<svg id="Imagen_No_13_Retroalimentación" data-name="Imagen No 13 Retroalimentación" xmlns="http://www.w3.org/2000/svg" width="1504" height="604.16" viewBox="0 0 1504 604.16">
  <rect id="Rectángulo_10" data-name="Rectángulo 10" width="1504" height="604.16" fill="#fee066"/>
  <path id="Trazado_78" data-name="Trazado 78" d="M1413.67,330.45q-48.09,1.1-28.22,38.59,7-19.1,9.87-24.6c3.6-.18,5.25-1.44,5-3.76Z" fill="#e3393c" fill-rule="evenodd"/>
  <path id="Trazado_79" data-name="Trazado 79" d="M1362.48,331.58l33.38,8.57q-12.34,14.3-10.11,32.48Q1336,360.69,1340.3,359.3,1344,336.91,1362.48,331.58Z" fill="#d1c6b3" fill-rule="evenodd"/>
  <path id="Trazado_80" data-name="Trazado 80" d="M1362.48,331.58l33.38,8.57q14.1-13.5,27.82-8.52-7.53-7.94-36.56-8.55Z" fill="#d1c6b3" fill-rule="evenodd"/>
  <path id="Trazado_81" data-name="Trazado 81" d="M1430.54,327.68s-16.06-2.39-24.09.34-10.59,12.13-10.59,12.13l-39.4-8.57c-.55-.12,2.44-7.94,8.47-11.08,7.57-3.95,18.66-3.41,19-3.34Z" fill="#e5e5e5" fill-rule="evenodd"/>
  <path id="Trazado_82" data-name="Trazado 82" d="M1112,509c207,0,375.89-10.11,375.89-22.51S1319.05,464,1112,464s-375.89,10.11-375.89,22.51S905,509,1112,509Z" fill="#f7b64d" fill-rule="evenodd"/>
  <path id="Trazado_83" data-name="Trazado 83" d="M910.41,197.86h403.73a19.63,19.63,0,0,1,19.58,19.57V439.36H890.84V217.43a19.62,19.62,0,0,1,19.57-19.57Z" fill="#333" fill-rule="evenodd"/>
  <path id="Trazado_84" data-name="Trazado 84" d="M1334,439.69H890.51V217.43a19.92,19.92,0,0,1,19.9-19.89h403.73a19.92,19.92,0,0,1,19.9,19.89ZM891.16,439H1333.4V217.43a19.28,19.28,0,0,0-19.26-19.25H910.41a19.28,19.28,0,0,0-19.25,19.25Z" fill="#666"/>
  <rect id="Rectángulo_11" data-name="Rectángulo 11" width="404.41" height="207.65" transform="translate(908.47 214.68)" fill="#336654"/>
  <path id="Trazado_85" data-name="Trazado 85" d="M1319.34,428.78H902V208.22h417.33ZM914.93,415.86h391.49V221.13H914.93Z" fill="#fee066"/>
  <path id="Trazado_86" data-name="Trazado 86" d="M1208.17,270.43q70.8-8.08,97.63.72,25-118.68-38.2-130.4-138.19,21.47-76.42,76.95Q1162.11,241.76,1208.17,270.43Z" fill="#633639" fill-rule="evenodd"/>
  <path id="Trazado_87" data-name="Trazado 87" d="M1296.08,217.29q-87.55,17.94-80.47-59.14-56.08,22-19.38,54.63-24.29,31.85,11.94,57.65,73-12.27,91.48-6.12Q1310.44,227.52,1296.08,217.29Z" fill="#542b2e" fill-rule="evenodd"/>
  <path id="Trazado_88" data-name="Trazado 88" d="M1198,208.49l-10.18-3.67s.22-1.81,1.49-2.14,9.31,3.17,9.31,3.17Z" fill="#9e282a" fill-rule="evenodd"/>
  <rect id="Rectángulo_12" data-name="Rectángulo 12" width="584.5" height="25.75" rx="5.79" transform="translate(819.86 466.51)" fill="#d6d6d6"/>
  <path id="Trazado_89" data-name="Trazado 89" d="M1404.36,480.78H819.86v5.69a5.81,5.81,0,0,0,5.79,5.79h572.92a5.81,5.81,0,0,0,5.79-5.79Z" fill="#b5b5b5" fill-rule="evenodd"/>
  <path id="Trazado_90" data-name="Trazado 90" d="M825.65,466.51l65.18-27.15h442.89l67.04,27.58Z" fill="#f2f2f2" fill-rule="evenodd"/>
  <path id="Trazado_91" data-name="Trazado 91" d="M951.56,441.35l-51.8,22.48,419.6.26-57.6-23.2Z" fill="#47413e" fill-rule="evenodd"/>
  <path id="Trazado_92" data-name="Trazado 92" d="M1320.12,455.1H885.61v-.33h432.05l-27.12-7.27H913.81v-.32h376.77l.02.01Z" fill="#f2f2f2"/>
  <path id="Trazado_93" data-name="Trazado 93" d="M917.4,466.75l.75-.38,51.78-26.27.15.28-51.04,25.9,29.1-2.58,43.06-22.55,20.29-.02-37.5,25.22h204.57l-18.79-25.37h21.85l.05.04,25.25,25.33h25.39l-30.95-25.54h22.28l.04.02,36.76,25.51,26.47-2.39-41.97-22.88.15-.28L1288,464.17l-.53.05-27.12,2.46-.05-.04-36.76-25.51h-21.28l30.95,25.54h-26.43l-.05-.05-25.25-25.32h-21.07l18.79,25.37H972.93l.44-.29,37.06-24.92-19.19.02L948.2,464.02Z" fill="#b2b2b2"/>
  <path id="Trazado_94" data-name="Trazado 94" d="M1148.02,455.1h-21.56l-.04-.08-8.9-14.37-16.03.15,2.73,14.3H1082.6V441.3h-13.24l-3.81,13.8h-16.52l.08-.22,5.28-14.32-11.96-.08-10.72,14.62h-19.29l14.99-14.08.22.24-14.4,13.51h18.32l10.72-14.61h.08l12.51.08-.08.22-5.29,14.31h15.81l3.82-13.79h13.8v13.79h20.91l-2.73-14.29h.2l16.4-.15.04.08,8.9,14.36h20.81l-8.86-14.64.28-.17Z" fill="#b2b2b2"/>
  <path id="Trazado_95" data-name="Trazado 95" d="M1270,238.19s-3.52,5.3-8.27,12.19-10.92,19.37-10.92,19.37-7,11.27-9.36,9.34-6.88-7.59-6.88-7.59l2.16-4.61,2.85-11.32S1260.19,252.75,1270,238.19Z" fill="#ffa89a" fill-rule="evenodd"/>
  <path id="Trazado_96" data-name="Trazado 96" d="M1340.44,338s-29.12,2.67-35.66,1.22-6.44-1.63-6.44-1.63l8.63-12.3,36.89,3.18Z" fill="#ffa89a" fill-rule="evenodd"/>
  <path id="Trazado_97" data-name="Trazado 97" d="M1080.23,311.39q11.8,14.92,20.89,4.86-4.08-13-18.72-9.15a19.69,19.69,0,0,1-9.87-2Q1071,311.87,1080.23,311.39Z" fill="#ffa89a" fill-rule="evenodd"/>
  <path id="Trazado_98" data-name="Trazado 98" d="M1306.08,175.59q-7.53-22.46-13.95-12.46-22.32,32.48-63.87-.5a89.559,89.559,0,0,0,37.43,30.94q-33.76-11.23-39.42-27.2,10.11,25.69,41.33,34.6,3.54,22,10.81,18.56,5.74-8.64,17.67-2.24Q1309.87,197.28,1306.08,175.59Z" fill="#542b2e" fill-rule="evenodd"/>
  <path id="Trazado_99" data-name="Trazado 99" d="M1297.59,319.37c1.8,1.64-29.21-42.66-34.1-44.12s-12.76-1.4-12.76-1.4l22.73,35.33,16.56,18.5Z" fill="#b1c2bb" fill-rule="evenodd"/>
  <path id="Trazado_100" data-name="Trazado 100" d="M1297.09,430.54l-93.19-.38s-4.76-29.25,2.08-48.3,35.17-40.06,35.17-40.06-33.7-52.27-34.19-58.62,5.86-8.8,10.74-9.29,32.25-.48,32.25-.48l30.29,17.09c-1.8,0-.72,8.91-6.83,13.55s-3.19,7.22-3.19,7.22l.74,24.42.48,12.71s29.32,32,27.85,53.49S1297.09,430.54,1297.09,430.54Z" fill="#2a3842" fill-rule="evenodd"/>
  <path id="Trazado_101" data-name="Trazado 101" d="M1272.1,354.77l-2.42,75.66,27.41.11C1297.92,418,1306.76,398.22,1272.1,354.77Z" fill="#202b33" fill-rule="evenodd"/>
  <path id="Trazado_102" data-name="Trazado 102" d="M1213.48,296.75c13.52,28.53,27.17,36.16,10.31,60.23l-9.39,10.53,46.07,11.73,3.41-10.91,12.83,8.37,10.66-7.4-6.34-9.12-9.59-11.78s1.23-35.27.48-36.45,5.61-2.19,7.17-8.13a51.251,51.251,0,0,0,1.15-13.32l-22.6-12.75-1.05-3.65s-31.58-.59-35.23-.4a59.946,59.946,0,0,0-8.79,1.43Z" fill="#ceded8" fill-rule="evenodd"/>
  <path id="Trazado_103" data-name="Trazado 103" d="M1252.41,267.34s9.36,11.64,3.1,14.28-8.86-8.25-8.86-8.25Z" fill="#fff" fill-rule="evenodd"/>
  <path id="Trazado_104" data-name="Trazado 104" d="M1236.86,266.18l9.79,7.19s2.19,4.31-4.4,7.74-12.79-5.71-12.79-5.71Z" fill="#fff" fill-rule="evenodd"/>
  <path id="Trazado_105" data-name="Trazado 105" d="M1217.15,157.53s-14.25,4.56-15.54,20.34-1.26,27.27-5.38,34.91-4.94,13.38-.85,19.35,13.95,24.26,17.1,26.82,29-2.26,29-2.26,9.5-1.59,15-4.94,13.32-11.25,13.32-11.25,6.42,7.71,15.87-1.05,16.29-19.06,9.12-23.12-15.8-1.05-16.88,4.9-6.37,3.56-7.53-1.53S1268,210,1268,210,1224,202.37,1217.15,157.53Z" fill="#ffc9a8" fill-rule="evenodd"/>
  <path id="Trazado_106" data-name="Trazado 106" d="M1219.5,249.77l2.8-5.8-11.15-2.44,1.12,6.74S1217.13,247.15,1219.5,249.77Z" fill="#ffa89a" fill-rule="evenodd"/>
  <path id="Trazado_107" data-name="Trazado 107" d="M1260.29,207.85q16.9-1.89,18.12,11.68,16.42-6,16.48,5.72-14.23,21.9-24.88,12.94-15.32,17.94-36.75,17.25Q1271,235.27,1260.29,207.85Z" fill="#ffa89a" fill-rule="evenodd"/>
  <path id="Trazado_108" data-name="Trazado 108" d="M1224.85,281.4l-39.57,53.42-10.56-7.9s27.17-50.15,31.66-52.89S1224.85,281.4,1224.85,281.4Z" fill="#ceded8" fill-rule="evenodd"/>
  <path id="Trazado_109" data-name="Trazado 109" d="M1169.62,319.55l13.07-1.91,3.42,19.25-13.18-1.06Z" fill="#fff" fill-rule="evenodd"/>
  <path id="Trazado_110" data-name="Trazado 110" d="M1101.78,315.65l68.23,5.82,2.48,12.21-12.26,1-59.4-15.09s-5.54,5.87-9.76,4.73-9.69-1.27-12.06-.67c-2.76.7-8.73.63-10.83-.23,0,0-7.53-4-7.2-4.84s4.21-2.2,4.21-2.2,4.9,2.53,9.35,2c6.24-.71,13-4.61,16.12-5.42C1096.05,311.6,1101.78,315.65,1101.78,315.65Z" fill="#ffc9a8" fill-rule="evenodd"/>
  <path id="Trazado_111" data-name="Trazado 111" d="M1300.05,316.04l-3.31,3.63-10.29,11.3,9.86,10.39,10.66-15.19Z" fill="#ceded8" fill-rule="evenodd"/>
  <path id="Trazado_112" data-name="Trazado 112" d="M1234.93,235.25a134.66,134.66,0,0,1-29.59-3.08,9.43,9.43,0,0,1,3.33,5.49,29.65,29.65,0,0,0,20,3.14C1230,237.71,1231.55,235.91,1234.93,235.25Z" fill="#fff" fill-rule="evenodd"/>
  <path id="Trazado_113" data-name="Trazado 113" d="M1204.82,230.92c.11-.24,1.75.92,2.72.77,3.42-.51,3.77-4.47,8.7-.68,7-1.27,6.48-.61,12.8,2.87a13.44,13.44,0,0,0,7.74.31C1227.65,240.69,1203.39,234.06,1204.82,230.92Z" fill="#fb578b" fill-rule="evenodd"/>
  <path id="Trazado_114" data-name="Trazado 114" d="M1229.84,240.91c-15.82-1.51-22.39-3.55-22.39-3.55C1211.57,248,1223.65,244.59,1229.84,240.91Z" fill="#fe728e" fill-rule="evenodd"/>
  <path id="Trazado_115" data-name="Trazado 115" d="M1267.71,310.59q14.65-6.75,10.31-18.84-7.44,14.67-19.53,9.48c-12.22,6.85-23.4,3.45-29.13-5.29-1.47,12.92,7.08,19.51,21.25,14.9Q1259.69,303.63,1267.71,310.59Z" fill="#bfcfc9" fill-rule="evenodd"/>
  <path id="Trazado_116" data-name="Trazado 116" d="M1224.85,281.4l-11.3,15.15c10.7,21,33.68,48.66.85,71l32.34,8.23,4.34-30C1241.21,312.22,1226.66,314,1224.85,281.4Z" fill="#bfcfc9" fill-rule="evenodd"/>
  <path id="Trazado_117" data-name="Trazado 117" d="M1213.91,183s.34,2-.78,2.75-4.48.25-7.4,1.74a18.87,18.87,0,0,0-5,3.87S1201.08,184.54,1213.91,183Z" fill="#542b2e" fill-rule="evenodd"/>
  <path id="Trazado_118" data-name="Trazado 118" d="M1286.77,231.99l-9.11.25-6.49,4.87,6.86-7.86Z" fill="#ff8d90" fill-rule="evenodd"/>
  <path id="Trazado_119" data-name="Trazado 119" d="M1290.13,221.39,1281.4,228v-2.62Z" fill="#ff8d90" fill-rule="evenodd"/>
  <path id="Trazado_120" data-name="Trazado 120" d="M1219.51,227.1a28,28,0,0,0-7.42-.68q-5.05-4.24-2.89-9.68,10.58-.66,11.91-10.39.09,11.24-10.16,11.31,3.72,5.11,7.58,4.39a2.29,2.29,0,0,0,0-2.66Q1223.61,222.51,1219.51,227.1Z" fill="#ff8d90" fill-rule="evenodd"/>
  <path id="Trazado_121" data-name="Trazado 121" d="M1216.49,219c-.76-.1-1.41.15-1.47.57s.5.84,1.25.95,1.42-.15,1.48-.56S1217.24,219.15,1216.49,219Z" fill="#ffd8c4" fill-rule="evenodd"/>
  <path id="Trazado_122" data-name="Trazado 122" d="M1218.54,225.58a2.27,2.27,0,0,0-2-1.88,20.652,20.652,0,0,0-3.42-.31,11,11,0,0,0,5.42,2.19Z" fill="#c75256" fill-rule="evenodd"/>
  <path id="Trazado_123" data-name="Trazado 123" d="M1219.07,242.75c1.3,0,2.35-.32,2.35-.72s-1.05-.71-2.35-.71-2.35.32-2.35.71S1217.78,242.75,1219.07,242.75Z" fill="#ffd8c4" fill-rule="evenodd"/>
  <path id="Trazado_124" data-name="Trazado 124" d="M1275.56,238.3c.7,1.89.28,1.88,2.08,2.53-2,.19-1.49.1-2.76,1.73,1.82.78,1.51,1.08,3.28.22-1.31,1.55-1,1.15-.82,3.18,1.87-.78,1.85-.36,2.55-2.22.11,2,0,1.52,1.6,2.76.83-1.89,1.11-1.58.33-3.36,1.47,1.28,1.09,1,3.09.73-.7-1.88-.28-1.88-2.09-2.53,2-.19,1.5-.1,2.76-1.73-1.81-.78-1.5-1.08-3.27-.22,1.3-1.54,1-1.15.82-3.18-1.87.78-1.85.36-2.55,2.22-.12-2,0-1.52-1.61-2.76-.82,1.89-1.11,1.58-.33,3.36C1277.18,237.75,1277.55,238,1275.56,238.3Z" fill="#f4e9a6" fill-rule="evenodd"/>
  <path id="Trazado_125" data-name="Trazado 125" d="M1282.11,215.81l-21.52-12-.53,5.4,2.3.94,1.81-.33s14.94,9.47,14.24,9.72S1280.55,216.85,1282.11,215.81Z" fill="#9e282a" fill-rule="evenodd"/>
  <path id="Trazado_126" data-name="Trazado 126" d="M1244.64,217.32c-9.31.87-16.9-2.35-17-7.19a5.183,5.183,0,0,1,.49-2.22c1.81-4,8.4-7.4,16.27-8.13,9.31-.88,16.9,2.35,17,7.19S1253.95,216.45,1244.64,217.32Zm0-1.48c7.95-.63,14.35-4.34,14.29-8.28s-6.56-6.63-14.51-6-14.36,4.34-14.3,8.29,6.56,6.63,14.52,5.99Z" fill="#b02e30" fill-rule="evenodd"/>
  <path id="Trazado_127" data-name="Trazado 127" d="M1200.82,215.62c-8.71-1.57-15.09-6.49-14.25-11s8.58-6.89,17.3-5.32,15.09,6.49,14.25,11S1209.54,217.18,1200.82,215.62Zm.28-1.37c7.42,1.44,13.65-.57,14.32-4.24s-4.48-7.61-11.9-9-14,.36-14.66,4S1193.67,212.81,1201.1,214.25Z" fill="#b02e30" fill-rule="evenodd"/>
  <path id="Trazado_128" data-name="Trazado 128" d="M1244.46,200.81c7.94-.45,14.44,1.83,14.53,5.09a2.587,2.587,0,0,0,0-.56c-.06-3.45-6.56-5.79-14.51-5.24s-14.15,3.69-14.29,7.07c.38-3.12,6.58-5.92,14.23-6.36Zm-28.61,7.07c.67-3.31-4.81-7-12.23-8.35a23.06,23.06,0,0,0-11.07.45c-1.9.68-3.18,1.7-3.54,3a6.33,6.33,0,0,1,3.44-2.25,23.51,23.51,0,0,1,10.78-.36c7.43,1.31,12.9,5,12.23,8.35a1.073,1.073,0,0,1,0,.19A2.82,2.82,0,0,0,1215.85,207.88Z" fill="#9e282a" fill-rule="evenodd"/>
  <path id="Trazado_129" data-name="Trazado 129" d="M1224.13,208.19l4.5,2.28.16-4A37.2,37.2,0,0,0,1223,205a16.78,16.78,0,0,0-6,.87l-.65,4.05S1218.84,206.74,1224.13,208.19Z" fill="#b02e30" fill-rule="evenodd"/>
  <path id="Trazado_130" data-name="Trazado 130" d="M1356.46,331.58q-14,12.92-21.39,1.55,6.06-12.21,19.92-6.12a19.741,19.741,0,0,0,10.06-.45Q1365.47,333.48,1356.46,331.58Z" fill="#ffa89a" fill-rule="evenodd"/>
  <path id="Trazado_131" data-name="Trazado 131" d="M1344.52,343.3s9.85-7.79,13-7.92,3.37,1.08,3.37,1.08,4.65-2.7,6.59-1.49a8.348,8.348,0,0,1,2.31,1.75s5.83-1.29,7.3-.41a3.559,3.559,0,0,1,1.72,1.8,40.779,40.779,0,0,1,6.1-.2c1.62.24,1.9,2.82,1.9,2.82s-11,1.79-14.43,3.17a18.872,18.872,0,0,0-5.61,3.43Z" fill="#ffc9a8" fill-rule="evenodd"/>
  <path id="Trazado_132" data-name="Trazado 132" d="M931.64,282.92,1084,315.62s3.83-.65,2.69-2.92-155.26-32.17-155.26-32.17S929.24,281.89,931.64,282.92Z" fill="#b59046" fill-rule="evenodd"/>
  <path id="Trazado_133" data-name="Trazado 133" d="M1335.54,354.5s2.23-11.38,8.38-17.08,12.54-5.84,12.54-5.84l39.4,8.57a23.23,23.23,0,0,0-14,16.4c-2.91,12.65-1.71,13.67-1.71,13.67Z" fill="#f2f2f2" fill-rule="evenodd"/>
  <path id="Trazado_134" data-name="Trazado 134" d="M1244.53,204.12a4.94,4.94,0,0,1,5.07,5,5.25,5.25,0,0,1-4.6,5.65,4.93,4.93,0,0,1-5.07-5,5.26,5.26,0,0,1,4.6-5.65Z" fill="#458783" fill-rule="evenodd"/>
  <path id="Trazado_135" data-name="Trazado 135" d="M1241.68,207.77a.8.8,0,0,1,.78.84.86.86,0,0,1-.7.94.8.8,0,0,1-.78-.84.85.85,0,0,1,.7-.94Z" fill="#ffceb5" fill-rule="evenodd"/>
  <path id="Trazado_136" data-name="Trazado 136" d="M1247,204.38a6.27,6.27,0,0,1,2.59,4.23,10.619,10.619,0,0,0-.61-.89c-1.27-1.74-7.34-1.34-7.6-1.14a3.16,3.16,0,0,1-.91.51,5.46,5.46,0,0,1,2.32-2.85,3.89,3.89,0,0,1,1.74-.53,4,4,0,0,1,2.47.67Z" fill="#b37c6b" fill-rule="evenodd"/>
  <path id="Trazado_137" data-name="Trazado 137" d="M1249.78,207.83c1.17,1.63.5,1,.5,1-3.24-2.53-7.13-1.53-10-1.58-1.82,0-3.27-2.16-3.27-2.16s3.36,2.13,5.54.87C1242.8,205.83,1248.6,206.2,1249.78,207.83Z" fill="#63262b" fill-rule="evenodd"/>
  <path id="Trazado_138" data-name="Trazado 138" d="M1231.85,209.28a1.32,1.32,0,0,0-.65,1.76,1.37,1.37,0,0,0,1.62,1,1.32,1.32,0,0,0,.66-1.76,1.38,1.38,0,0,0-1.63-1Z" fill="#fff" fill-rule="evenodd"/>
  <path id="Trazado_139" data-name="Trazado 139" d="M1236.09,204.8c-.67-.36-2.23.14-3.48,1.12s-1.71,2.07-1,2.44,2.23-.14,3.48-1.12S1236.77,205.16,1236.09,204.8Z" fill="#fff" fill-rule="evenodd"/>
  <path id="Trazado_140" data-name="Trazado 140" d="M1204.92,202.75a4.93,4.93,0,0,1,5.07,5,5.26,5.26,0,0,1-4.6,5.65,5,5,0,0,1-5.07-5,5.25,5.25,0,0,1,4.6-5.65Z" fill="#458783" fill-rule="evenodd"/>
  <path id="Trazado_141" data-name="Trazado 141" d="M1202.07,206.39a.81.81,0,0,1,.78.84.86.86,0,0,1-.7.94.79.79,0,0,1-.78-.83.86.86,0,0,1,.7-.95Z" fill="#ffceb5" fill-rule="evenodd"/>
  <path id="Trazado_142" data-name="Trazado 142" d="M1207.35,203a6.289,6.289,0,0,1,2.59,4.23c-.12-.19-.31-.47-.61-.89-1.27-1.74-7.34-1.34-7.6-1.14a2.941,2.941,0,0,1-.91.51,5.46,5.46,0,0,1,2.32-2.85,4,4,0,0,1,4.21.14Z" fill="#b37c6b" fill-rule="evenodd"/>
  <path id="Trazado_143" data-name="Trazado 143" d="M1210.17,206.45c1.17,1.63.5,1,.5,1-3.24-2.53-7.13-1.52-10-1.57-1.82,0-3.27-2.17-3.27-2.17s3.36,2.13,5.54.88C1203.19,204.45,1209,204.82,1210.17,206.45Z" fill="#63262b" fill-rule="evenodd"/>
  <path id="Trazado_144" data-name="Trazado 144" d="M1191,206.15a1.33,1.33,0,0,0-.65,1.77,1.38,1.38,0,0,0,1.62,1,1.33,1.33,0,0,0,.66-1.76,1.4,1.4,0,0,0-1.63-1.01Z" fill="#fff" fill-rule="evenodd"/>
  <path id="Trazado_145" data-name="Trazado 145" d="M1195.27,201.68c-.67-.37-2.23.14-3.48,1.12s-1.71,2.07-1,2.43,2.23-.13,3.48-1.12S1195.94,202,1195.27,201.68Z" fill="#fff" fill-rule="evenodd"/>
  <path id="Trazado_146" data-name="Trazado 146" d="M1261.4,302.21q-14.55-26.43-14.58-26.79l11.67,25.81c5.13,44.75,5.13,67.92,5.13,67.92C1263.65,349.4,1264.61,326.56,1261.4,302.21Z" fill="#a3b3ad" fill-rule="evenodd"/>
  <path id="Trazado_147" data-name="Trazado 147" d="M1377.38,466.51l-556.91,3.21s-.64-2.11,6.46-3.21S1377.38,466.51,1377.38,466.51Z" fill="#fff" fill-rule="evenodd"/>
  <path id="Trazado_148" data-name="Trazado 148" d="M1090.56,319.9s-9.67-8-12.86-8.23-3.39,1-3.39,1-4.59-2.8-6.56-1.64a8.361,8.361,0,0,0-2.35,1.7s-5.79-1.43-7.28-.58a3.53,3.53,0,0,0-1.76,1.76,41,41,0,0,0-6.1-.35c-1.63.2-2,2.78-2,2.78s10.94,2.05,14.36,3.5a18.909,18.909,0,0,1,5.53,3.57Z" fill="#ffc9a8" fill-rule="evenodd"/>
  <path id="Trazado_149" data-name="Trazado 149" d="M1303.38,331.29l-4.57,6.51c.65.2,2.22.61,6,1.45a43.39,43.39,0,0,0,8.1.42c6.51-.07,15-.64,20.84-1.09,4-.3,6.72-.55,6.72-.55v-.12a10.839,10.839,0,0,1-4.84-4l-1.92.12a144.582,144.582,0,0,1-14.87.19,58,58,0,0,1-6-.66,65.179,65.179,0,0,1-9.46-2.27Z" fill="#ed8c7d" fill-rule="evenodd"/>
  <path id="Trazado_150" data-name="Trazado 150" d="M1288.7,331.1l11.35-15.06-3.84,10.71,2.31,3.16,8.45-3.74-10.76,13.48Z" fill="#b1c2bb" fill-rule="evenodd"/>
  <path id="Trazado_151" data-name="Trazado 151" d="M1170.8,321.11l4.19,10.08,6.83-.43-.04-11.26,4.33,17.39-13.18-1.06Z" fill="#ceded8" fill-rule="evenodd"/>
  <path id="Trazado_152" data-name="Trazado 152" d="M1291.6,325.32c-3.86-2.55-9.21-18.87-11.61-26.76a35.05,35.05,0,0,1-.9,5.26,10.42,10.42,0,0,1-4.92,6.16l15.57,17.38Z" fill="#a3b3ad" fill-rule="evenodd"/>
  <path id="Trazado_153" data-name="Trazado 153" d="M1248.67,282.58c.59,0,1.24.78,1.46,1.75s-.1,1.75-.69,1.75-1.24-.78-1.45-1.75S1248.08,282.58,1248.67,282.58Z" fill="#adadad" fill-rule="evenodd"/>
  <path id="Trazado_154" data-name="Trazado 154" d="M1256.53,299.45c.59,0,1.24.78,1.45,1.75s-.09,1.75-.68,1.75-1.24-.78-1.45-1.75S1255.94,299.45,1256.53,299.45Z" fill="#adadad" fill-rule="evenodd"/>
  <path id="Trazado_155" data-name="Trazado 155" d="M1258.93,320.64c.59,0,1.14.78,1.24,1.75s-.32,1.75-.91,1.75-1.14-.78-1.23-1.75S1258.34,320.64,1258.93,320.64Z" fill="#adadad" fill-rule="evenodd"/>
  <path id="Trazado_156" data-name="Trazado 156" d="M1260.08,339.35c.59,0,1.14.78,1.23,1.75s-.31,1.75-.9,1.75-1.14-.79-1.23-1.75S1259.49,339.35,1260.08,339.35Z" fill="#adadad" fill-rule="evenodd"/>
  <path id="Trazado_157" data-name="Trazado 157" d="M1261.79,361.9c.59,0,1.14.78,1.23,1.75s-.31,1.75-.9,1.75-1.14-.78-1.23-1.75S1261.2,361.9,1261.79,361.9Z" fill="#adadad" fill-rule="evenodd"/>
  <path id="Trazado_158" data-name="Trazado 158" d="M1212.83,281.3l-29.63,39.18,2.32,14,38.53-52a12.15,12.15,0,0,0-11.22-1.18Z" fill="#bfcfc9" fill-rule="evenodd"/>
  <path id="Trazado_159" data-name="Trazado 159" d="M88.52,106.41v16c0,6,2.68,8.56,6.28,8.56,4,0,6.56-2.64,6.56-8.56v-16h3.52v15.76c0,8.28-4.36,11.64-10.2,11.64-5.52,0-9.68-3.12-9.68-11.52V106.41Z"/>
  <path id="Trazado_160" data-name="Trazado 160" d="M110.8,119.25c0-2,0-3.64-.16-5.24h3.12l.2,3.2H114a7.17,7.17,0,0,1,6.4-3.6c2.68,0,6.84,1.6,6.84,8.24v11.52h-3.52V122.21c0-3.12-1.16-5.72-4.48-5.72a5.16,5.16,0,0,0-5,5.24v11.64H110.8Z"/>
  <path id="Trazado_161" data-name="Trazado 161" d="M151.15,119.25c0-2-.08-3.64-.16-5.24h3.08l.16,3.16h.12a6.69,6.69,0,0,1,6.11-3.56,5.71,5.71,0,0,1,5.44,3.88h.1a7.64,7.64,0,0,1,2.2-2.52,6.49,6.49,0,0,1,4.24-1.36c2.6,0,6.4,1.68,6.4,8.4v11.36H175.4V122.45c0-3.76-1.4-6-4.2-6a4.62,4.62,0,0,0-4.2,3.16,6,6,0,0,0-.28,1.76v12h-3.44v-11.6c0-3.08-1.36-5.28-4-5.28a4.84,4.84,0,0,0-4.35,3.52,4.71,4.71,0,0,0-.28,1.72v11.64h-3.44Z"/>
  <path id="Trazado_162" data-name="Trazado 162" d="M198.1,128.73a32.483,32.483,0,0,0,.28,4.64h-3.16l-.28-2.44h-.12a7.21,7.21,0,0,1-5.91,2.88,5.52,5.52,0,0,1-5.92-5.56c0-4.68,4.16-7.24,11.63-7.2v-.4c0-1.56-.44-4.48-4.39-4.44a9.33,9.33,0,0,0-5.08,1.44l-.8-2.36a12.54,12.54,0,0,1,6.4-1.68c5.91,0,7.35,4,7.35,7.88Zm-3.4-5.24c-3.84-.08-8.19.6-8.19,4.36a3.08,3.08,0,0,0,3.28,3.36,4.88,4.88,0,0,0,4.75-3.24,4,4,0,0,0,.16-1.12Z"/>
  <path id="Trazado_163" data-name="Trazado 163" d="M203.79,119.25c0-2,0-3.64-.16-5.24h3.12l.2,3.2H207a7.14,7.14,0,0,1,6.39-3.6c2.68,0,6.84,1.6,6.84,8.24v11.52h-3.52V122.21c0-3.12-1.16-5.72-4.48-5.72a5.09,5.09,0,0,0-4.72,3.6,5.359,5.359,0,0,0-.23,1.64v11.64h-3.52Z"/>
  <path id="Trazado_164" data-name="Trazado 164" d="M228,124.33c.07,4.76,3.07,6.72,6.63,6.72a12.59,12.59,0,0,0,5.36-1l.64,2.52a15.77,15.77,0,0,1-6.48,1.24c-5.95,0-9.51-4-9.51-9.8s3.43-10.4,9.07-10.4c6.36,0,8,5.52,8,9.08a8.58,8.58,0,0,1-.12,1.64Zm10.31-2.52c0-2.2-.92-5.68-4.88-5.68-3.6,0-5.11,3.24-5.4,5.68Z"/>
  <path id="Trazado_165" data-name="Trazado 165" d="M241.27,139a5.41,5.41,0,0,0,3.83-1.52c1-1.08,1.36-2.6,1.36-7.23V114H250v17.64c0,3.75-.6,6.19-2.32,7.95a8.91,8.91,0,0,1-6,2.2Zm9.11-30.47a2.18,2.18,0,0,1-4.36,0,2.14,2.14,0,0,1,2.2-2.2,2.11,2.11,0,0,1,2.16,2.24Z"/>
  <path id="Trazado_166" data-name="Trazado 166" d="M273.26,123.53c0,7.16-5,10.28-9.64,10.28-5.2,0-9.28-3.84-9.28-10,0-6.44,4.28-10.24,9.6-10.24C269.5,113.61,273.26,117.65,273.26,123.53Zm-15.32.2c0,4.24,2.4,7.44,5.84,7.44s5.88-3.16,5.88-7.52c0-3.28-1.64-7.4-5.8-7.4s-5.92,3.84-5.92,7.48Z"/>
  <path id="Trazado_167" data-name="Trazado 167" d="M309.45,128.73a32.483,32.483,0,0,0,.28,4.64h-3.16l-.28-2.44h-.12a7.21,7.21,0,0,1-5.92,2.88,5.52,5.52,0,0,1-5.92-5.56c0-4.68,4.16-7.24,11.64-7.2v-.4c0-1.56-.44-4.48-4.4-4.44a9.33,9.33,0,0,0-5.08,1.44l-.8-2.36a12.54,12.54,0,0,1,6.4-1.68c5.92,0,7.36,4,7.36,7.88Zm-3.4-5.24c-3.84-.08-8.2.6-8.2,4.36a3.08,3.08,0,0,0,3.28,3.36,4.89,4.89,0,0,0,4.76-3.24,4,4,0,0,0,.16-1.12Z"/>
  <path id="Trazado_168" data-name="Trazado 168" d="M331.81,105v23.4c0,1.72.08,3.68.16,5h-3.12l-.16-3.36h-.12a7,7,0,0,1-6.52,3.8c-4.68,0-8.32-4-8.32-9.84,0-6.44,4-10.36,8.68-10.36a6.49,6.49,0,0,1,5.84,2.92h.08V105Zm-3.48,16.92a6.21,6.21,0,0,0-.16-1.48,5.18,5.18,0,0,0-5.08-4c-3.64,0-5.8,3.2-5.8,7.44,0,3.92,2,7.16,5.72,7.16a5.33,5.33,0,0,0,5.16-4.2,6.109,6.109,0,0,0,.16-1.52Z"/>
  <path id="Trazado_169" data-name="Trazado 169" d="M339.65,124.33c.08,4.76,3.08,6.72,6.64,6.72a12.59,12.59,0,0,0,5.36-1l.64,2.52a15.77,15.77,0,0,1-6.48,1.24c-6,0-9.52-4-9.52-9.8s3.44-10.4,9.08-10.4c6.36,0,8,5.52,8,9.08a8.583,8.583,0,0,1-.12,1.64ZM350,121.81c0-2.2-.92-5.68-4.88-5.68-3.6,0-5.12,3.24-5.4,5.68Z"/>
  <path id="Trazado_170" data-name="Trazado 170" d="M371.53,132.69a13.61,13.61,0,0,1-5.56,1.12c-5.84,0-9.64-4-9.64-9.88s4.08-10.32,10.4-10.32a11.08,11.08,0,0,1,4.88,1l-.8,2.68a8.62,8.62,0,0,0-4.08-.92c-4.44,0-6.84,3.32-6.84,7.32,0,4.48,2.88,7.24,6.72,7.24a10.08,10.08,0,0,0,4.32-.92Z"/>
  <path id="Trazado_171" data-name="Trazado 171" d="M391.85,128.05c0,2,0,3.8.16,5.32h-3.12l-.2-3.16h-.08a7.23,7.23,0,0,1-6.4,3.6c-3,0-6.68-1.72-6.68-8.48V114h3.52v10.68c0,3.68,1.16,6.2,4.32,6.2a5.06,5.06,0,0,0,4.64-3.24,4.831,4.831,0,0,0,.32-1.8V114h3.52Z"/>
  <path id="Trazado_172" data-name="Trazado 172" d="M411.29,128.73a32.478,32.478,0,0,0,.28,4.64h-3.16l-.28-2.44H408a7.21,7.21,0,0,1-5.92,2.88,5.52,5.52,0,0,1-5.92-5.56c0-4.68,4.16-7.24,11.64-7.2v-.4c0-1.56-.44-4.48-4.4-4.44a9.33,9.33,0,0,0-5.08,1.44l-.8-2.36a12.54,12.54,0,0,1,6.4-1.68c5.92,0,7.36,4,7.36,7.88Zm-3.4-5.24c-3.84-.08-8.2.6-8.2,4.36a3.08,3.08,0,0,0,3.28,3.36,4.89,4.89,0,0,0,4.76-3.24,4,4,0,0,0,.16-1.12Z"/>
  <path id="Trazado_173" data-name="Trazado 173" d="M433.65,105v23.4c0,1.72.08,3.68.16,5h-3.12l-.16-3.36h-.12a7,7,0,0,1-6.52,3.8c-4.68,0-8.32-4-8.32-9.84,0-6.44,4-10.36,8.68-10.36a6.49,6.49,0,0,1,5.84,2.92h.08V105Zm-3.48,16.92a6.209,6.209,0,0,0-.16-1.48,5.18,5.18,0,0,0-5.08-4c-3.64,0-5.8,3.2-5.8,7.44,0,3.92,2,7.16,5.72,7.16a5.33,5.33,0,0,0,5.16-4.2,6.11,6.11,0,0,0,.16-1.52Z"/>
  <path id="Trazado_174" data-name="Trazado 174" d="M457.05,123.53c0,7.16-5,10.28-9.64,10.28-5.2,0-9.28-3.84-9.28-10,0-6.44,4.28-10.24,9.6-10.24C453.29,113.61,457.05,117.65,457.05,123.53Zm-15.32.2c0,4.24,2.4,7.44,5.84,7.44s5.88-3.16,5.88-7.52c0-3.28-1.64-7.4-5.8-7.4s-5.92,3.84-5.92,7.48Z"/>
  <path id="Trazado_175" data-name="Trazado 175" d="M496.32,105v23.4c0,1.72.08,3.68.16,5h-3.12l-.16-3.4h-.12a7,7,0,0,1-6.52,3.8c-4.68,0-8.32-4-8.32-9.84,0-6.44,4-10.36,8.68-10.36a6.49,6.49,0,0,1,5.84,2.92h.08V105Zm-3.48,16.92a6.212,6.212,0,0,0-.16-1.48,5.18,5.18,0,0,0-5.08-4c-3.64,0-5.8,3.2-5.8,7.44,0,3.92,2,7.16,5.72,7.16a5.33,5.33,0,0,0,5.16-4.2,6.11,6.11,0,0,0,.16-1.52Z"/>
  <path id="Trazado_176" data-name="Trazado 176" d="M504.16,124.33c.08,4.76,3.08,6.72,6.64,6.72a12.59,12.59,0,0,0,5.36-1l.64,2.52a15.77,15.77,0,0,1-6.48,1.24c-6,0-9.52-4-9.52-9.8s3.44-10.4,9.08-10.4c6.36,0,8,5.52,8,9.08a8.583,8.583,0,0,1-.12,1.64Zm10.32-2.52c0-2.2-.92-5.68-4.88-5.68-3.6,0-5.12,3.24-5.4,5.68Z"/>
  <path id="Trazado_177" data-name="Trazado 177" d="M540.39,105h3.51v28.4h-3.51Z"/>
  <path id="Trazado_178" data-name="Trazado 178" d="M563.42,128.73a32.474,32.474,0,0,0,.28,4.64h-3.16l-.28-2.44h-.12a7.21,7.21,0,0,1-5.92,2.88,5.51,5.51,0,0,1-5.91-5.56c0-4.68,4.15-7.24,11.63-7.2v-.4c0-1.56-.44-4.48-4.4-4.44a9.27,9.27,0,0,0-5.07,1.44l-.8-2.36a12.5,12.5,0,0,1,6.39-1.68c5.92,0,7.36,4,7.36,7.88Zm-3.4-5.24c-3.84-.08-8.2.6-8.2,4.36a3.08,3.08,0,0,0,3.28,3.36,4.89,4.89,0,0,0,4.76-3.24,4,4,0,0,0,.16-1.12Z"/>
  <path id="Trazado_179" data-name="Trazado 179" d="M589.21,124.33c.08,4.76,3.08,6.72,6.64,6.72a12.59,12.59,0,0,0,5.36-1l.64,2.52a15.77,15.77,0,0,1-6.48,1.24c-6,0-9.52-4-9.52-9.8s3.44-10.4,9.08-10.4c6.36,0,8,5.52,8,9.08a8.583,8.583,0,0,1-.12,1.64Zm10.32-2.52c0-2.2-.92-5.68-4.88-5.68-3.6,0-5.12,3.24-5.4,5.68Z"/>
  <path id="Trazado_180" data-name="Trazado 180" d="M606.81,129.81a9.94,9.94,0,0,0,4.68,1.36c2.52,0,3.72-1.24,3.72-2.88s-1-2.56-3.56-3.52c-3.52-1.28-5.16-3.16-5.16-5.48,0-3.12,2.56-5.68,6.68-5.68a9,9,0,0,1,4.72,1.2l-.84,2.56a7.5,7.5,0,0,0-4-1.16c-2.08,0-3.2,1.2-3.2,2.64,0,1.6,1.12,2.32,3.64,3.32,3.32,1.24,5.08,2.92,5.08,5.8,0,3.44-2.68,5.84-7.2,5.84a11,11,0,0,1-5.44-1.36Z"/>
  <path id="Trazado_181" data-name="Trazado 181" d="M627.37,109.37V114h5v2.68h-5v10.44c0,2.4.68,3.76,2.64,3.76a6.57,6.57,0,0,0,2-.24l.16,2.68a9.6,9.6,0,0,1-3.12.48,5,5,0,0,1-3.8-1.48c-1-1.08-1.36-2.8-1.36-5.08V116.69h-3V114h3v-3.6Z"/>
  <path id="Trazado_182" data-name="Trazado 182" d="M636.37,120.05c0-2.28,0-4.24-.16-6h3.08l.16,3.84h.12a5.85,5.85,0,0,1,5.4-4.24,7.17,7.17,0,0,1,1,.08V117a5.48,5.48,0,0,0-1.2-.08c-2.48,0-4.24,1.84-4.72,4.48a10.529,10.529,0,0,0-.12,1.64v10.32h-3.52Z"/>
  <path id="Trazado_183" data-name="Trazado 183" d="M662.85,128.73a32.483,32.483,0,0,0,.28,4.64H660l-.28-2.44h-.12a7.21,7.21,0,0,1-5.92,2.88,5.52,5.52,0,0,1-5.92-5.56c0-4.68,4.16-7.24,11.64-7.2v-.4c0-1.56-.44-4.48-4.4-4.44a9.33,9.33,0,0,0-5.08,1.44l-.8-2.36a12.54,12.54,0,0,1,6.4-1.68c5.92,0,7.36,4,7.36,7.88Zm-3.4-5.24c-3.84-.08-8.2.6-8.2,4.36a3.08,3.08,0,0,0,3.28,3.36,4.89,4.89,0,0,0,4.76-3.24,4,4,0,0,0,.16-1.12Z"/>
  <path id="Trazado_184" data-name="Trazado 184" d="M672.61,109.37V114h5v2.68h-5v10.44c0,2.4.68,3.76,2.64,3.76a6.57,6.57,0,0,0,2-.24l.16,2.68a9.6,9.6,0,0,1-3.12.48,5,5,0,0,1-3.8-1.48c-1-1.08-1.36-2.8-1.36-5.08V116.69h-3V114h3v-3.6Z"/>
  <path id="Trazado_185" data-name="Trazado 185" d="M683.33,124.33c.08,4.76,3.08,6.72,6.64,6.72a12.59,12.59,0,0,0,5.36-1l.64,2.52a15.769,15.769,0,0,1-6.48,1.24c-6,0-9.52-4-9.52-9.8s3.44-10.4,9.08-10.4c6.36,0,8,5.52,8,9.08a8.583,8.583,0,0,1-.12,1.64Zm10.32-2.52c0-2.2-.92-5.68-4.88-5.68-3.6,0-5.12,3.24-5.4,5.68Z"/>
  <path id="Trazado_186" data-name="Trazado 186" d="M718,130.53c0,4.47-.92,7.15-2.76,8.87a10.64,10.64,0,0,1-7.08,2.32,12.5,12.5,0,0,1-6.44-1.6l.88-2.72a10.54,10.54,0,0,0,5.68,1.56c3.6,0,6.24-1.88,6.24-6.79v-2.12h-.08a6.86,6.86,0,0,1-6.16,3.24c-4.8,0-8.24-4.08-8.24-9.44,0-6.56,4.28-10.24,8.76-10.24a6.46,6.46,0,0,1,6,3.32h.08L715,114h3.12c-.12,1.36-.16,3-.16,5.28Zm-3.52-8.88a4.621,4.621,0,0,0-.2-1.56,5,5,0,0,0-4.92-3.76c-3.36,0-5.76,2.84-5.76,7.32,0,3.8,2,7,5.72,7a5.07,5.07,0,0,0,4.88-3.6,6.12,6.12,0,0,0,.28-1.88Z"/>
  <path id="Trazado_187" data-name="Trazado 187" d="M727.45,108.57a2.1,2.1,0,0,1-2.24,2.16,2.07,2.07,0,0,1-2.12-2.16,2.14,2.14,0,0,1,2.2-2.2,2.11,2.11,0,0,1,2.16,2.2Zm-3.92,24.8V114h3.52v19.36Z"/>
  <path id="Trazado_188" data-name="Trazado 188" d="M746.49,128.73a32.483,32.483,0,0,0,.28,4.64h-3.16l-.28-2.44h-.12a7.21,7.21,0,0,1-5.92,2.88,5.52,5.52,0,0,1-5.92-5.56c0-4.68,4.16-7.24,11.64-7.2v-.4c0-1.56-.44-4.48-4.4-4.44a9.33,9.33,0,0,0-5.08,1.44l-.8-2.36a12.54,12.54,0,0,1,6.4-1.68c5.92,0,7.36,4,7.36,7.88Zm-3.4-5.24c-3.84-.08-8.2.6-8.2,4.36a3.08,3.08,0,0,0,3.28,3.36,4.89,4.89,0,0,0,4.76-3.24,4,4,0,0,0,.16-1.12Z"/>
  <path id="Trazado_189" data-name="Trazado 189" d="M787,105v23.4c0,1.72.08,3.68.16,5H784l-.16-3.36h-.12a7,7,0,0,1-6.52,3.8c-4.68,0-8.32-4-8.32-9.84,0-6.44,4-10.36,8.68-10.36a6.49,6.49,0,0,1,5.84,2.92h.08V105Zm-3.48,16.92a6.212,6.212,0,0,0-.16-1.48,5.18,5.18,0,0,0-5.08-4c-3.64,0-5.8,3.2-5.8,7.44,0,3.92,2,7.16,5.72,7.16a5.33,5.33,0,0,0,5.16-4.2,6.112,6.112,0,0,0,.16-1.52Z"/>
  <path id="Trazado_190" data-name="Trazado 190" d="M794.84,124.33c.08,4.76,3.08,6.72,6.64,6.72a12.51,12.51,0,0,0,5.35-1l.65,2.52a15.77,15.77,0,0,1-6.48,1.24c-6,0-9.52-4-9.52-9.8s3.44-10.4,9.08-10.4c6.36,0,8,5.52,8,9.08a9.684,9.684,0,0,1-.11,1.64Zm10.32-2.52c0-2.2-.92-5.68-4.88-5.68-3.6,0-5.12,3.24-5.4,5.68Z"/>
  <path id="Trazado_191" data-name="Trazado 191" d="M84.92,168.05c0-2.28,0-4.24-.16-6h3.08l.16,3.84h.12a5.85,5.85,0,0,1,5.4-4.24,7.17,7.17,0,0,1,1,.08V165a5.48,5.48,0,0,0-1.2-.08c-2.48,0-4.24,1.84-4.72,4.48a10.529,10.529,0,0,0-.12,1.64v10.32H84.92Z"/>
  <path id="Trazado_192" data-name="Trazado 192" d="M99.56,172.33c.08,4.76,3.08,6.72,6.64,6.72a12.59,12.59,0,0,0,5.36-1l.64,2.52a15.77,15.77,0,0,1-6.48,1.24c-6,0-9.52-4-9.52-9.8s3.44-10.4,9.08-10.4c6.36,0,8,5.52,8,9.08a8.58,8.58,0,0,1-.12,1.64Zm10.32-2.52c0-2.2-.92-5.68-4.88-5.68-3.6,0-5.12,3.24-5.4,5.68Z"/>
  <path id="Trazado_193" data-name="Trazado 193" d="M121.88,157.37V162h5v2.68h-5v10.44c0,2.4.68,3.76,2.64,3.76a6.57,6.57,0,0,0,2-.24l.16,2.68a9.6,9.6,0,0,1-3.12.48,5,5,0,0,1-3.8-1.48c-1-1.08-1.36-2.8-1.36-5.08V164.69h-3V162h3v-3.6Z"/>
  <path id="Trazado_194" data-name="Trazado 194" d="M130.88,168.05c0-2.28,0-4.24-.16-6h3.08l.16,3.84h.12a5.85,5.85,0,0,1,5.4-4.24,7.171,7.171,0,0,1,1,.08V165a5.481,5.481,0,0,0-1.2-.08c-2.48,0-4.24,1.84-4.72,4.48a10.53,10.53,0,0,0-.12,1.64v10.32h-3.52Z"/>
  <path id="Trazado_195" data-name="Trazado 195" d="M161.08,171.53c0,7.16-5,10.28-9.64,10.28-5.2,0-9.28-3.84-9.28-10,0-6.44,4.28-10.24,9.6-10.24C157.32,161.61,161.08,165.65,161.08,171.53Zm-15.32.2c0,4.24,2.4,7.44,5.84,7.44s5.88-3.16,5.88-7.52c0-3.28-1.64-7.4-5.8-7.4s-5.92,3.84-5.92,7.48Z"/>
  <path id="Trazado_196" data-name="Trazado 196" d="M179.12,176.73a32.478,32.478,0,0,0,.28,4.64h-3.16l-.28-2.44h-.12a7.21,7.21,0,0,1-5.92,2.88,5.52,5.52,0,0,1-5.92-5.56c0-4.68,4.16-7.24,11.64-7.2v-.4c0-1.56-.44-4.48-4.4-4.44a9.33,9.33,0,0,0-5.08,1.44l-.8-2.36a12.54,12.54,0,0,1,6.4-1.68c5.92,0,7.36,4,7.36,7.88Zm-3.4-5.24c-3.84-.08-8.2.6-8.2,4.36a3.08,3.08,0,0,0,3.28,3.36,4.89,4.89,0,0,0,4.76-3.24,4,4,0,0,0,.16-1.12Z"/>
  <path id="Trazado_197" data-name="Trazado 197" d="M184.8,153h3.52v28.4H184.8Z"/>
  <path id="Trazado_198" data-name="Trazado 198" d="M198.16,156.57a2.1,2.1,0,0,1-2.24,2.16,2.07,2.07,0,0,1-2.12-2.16,2.14,2.14,0,0,1,2.2-2.2,2.11,2.11,0,0,1,2.16,2.2Zm-3.92,24.8V162h3.52v19.36Z"/>
  <path id="Trazado_199" data-name="Trazado 199" d="M203.6,167.25c0-2-.08-3.64-.16-5.24h3.08l.16,3.16h.12a6.69,6.69,0,0,1,6.12-3.56,5.71,5.71,0,0,1,5.44,3.88h.08a7.64,7.64,0,0,1,2.2-2.52,6.49,6.49,0,0,1,4.24-1.36c2.6,0,6.39,1.68,6.39,8.4v11.36h-3.44V170.45c0-3.76-1.39-6-4.19-6a4.62,4.62,0,0,0-4.2,3.16,6,6,0,0,0-.28,1.76v12h-3.44v-11.6c0-3.08-1.36-5.28-4-5.28a4.85,4.85,0,0,0-4.36,3.52,4.71,4.71,0,0,0-.28,1.72v11.64H203.6Z"/>
  <path id="Trazado_200" data-name="Trazado 200" d="M238.92,172.33c.08,4.76,3.08,6.72,6.64,6.72a12.59,12.59,0,0,0,5.36-1l.64,2.52a15.77,15.77,0,0,1-6.48,1.24c-6,0-9.52-4-9.52-9.8s3.44-10.4,9.08-10.4c6.36,0,8,5.52,8,9.08a8.579,8.579,0,0,1-.12,1.64Zm10.32-2.52c0-2.2-.92-5.68-4.88-5.68-3.6,0-5.12,3.24-5.4,5.68Z"/>
  <path id="Trazado_201" data-name="Trazado 201" d="M257,167.25c0-2,0-3.64-.16-5.24H260l.2,3.2h.08a7.17,7.17,0,0,1,6.4-3.6c2.68,0,6.84,1.6,6.84,8.24v11.52H270V170.21c0-3.12-1.16-5.72-4.48-5.72a5.16,5.16,0,0,0-5,5.24v11.64H257Z"/>
  <path id="Trazado_202" data-name="Trazado 202" d="M283.28,157.37V162h5v2.68h-5v10.44c0,2.4.68,3.76,2.64,3.76a6.57,6.57,0,0,0,2-.24l.16,2.68a9.6,9.6,0,0,1-3.12.48,5,5,0,0,1-3.8-1.48c-1-1.08-1.36-2.8-1.36-5.08V164.69h-3V162h3v-3.6Z"/>
  <path id="Trazado_203" data-name="Trazado 203" d="M305.88,176.73a32.483,32.483,0,0,0,.28,4.64H303l-.28-2.44h-.12a7.21,7.21,0,0,1-5.92,2.88,5.52,5.52,0,0,1-5.92-5.56c0-4.68,4.16-7.24,11.64-7.2v-.4c0-1.56-.44-4.48-4.4-4.44a9.33,9.33,0,0,0-5.08,1.44l-.8-2.36a12.54,12.54,0,0,1,6.4-1.68c5.92,0,7.36,4,7.36,7.88Zm-3.4-5.24c-3.84-.08-8.2.6-8.2,4.36a3.08,3.08,0,0,0,3.28,3.36,4.89,4.89,0,0,0,4.76-3.24,4,4,0,0,0,.16-1.12Z"/>
  <path id="Trazado_204" data-name="Trazado 204" d="M325.36,180.69a13.61,13.61,0,0,1-5.56,1.12c-5.84,0-9.64-4-9.64-9.88s4.08-10.32,10.4-10.32a11.08,11.08,0,0,1,4.88,1l-.8,2.68a8.62,8.62,0,0,0-4.08-.92c-4.44,0-6.84,3.32-6.84,7.32,0,4.48,2.88,7.24,6.72,7.24a10.08,10.08,0,0,0,4.32-.92Z"/>
  <path id="Trazado_205" data-name="Trazado 205" d="M333.4,156.57a2.1,2.1,0,0,1-2.24,2.16,2.07,2.07,0,0,1-2.12-2.16,2.14,2.14,0,0,1,2.2-2.2,2.11,2.11,0,0,1,2.16,2.2Zm-3.92,24.8V162H333v19.36Z"/>
  <path id="Trazado_206" data-name="Trazado 206" d="M356.35,171.53c0,7.16-5,10.28-9.63,10.28-5.2,0-9.28-3.84-9.28-10,0-6.44,4.28-10.24,9.6-10.24C352.6,161.61,356.35,165.65,356.35,171.53Zm-15.31.2c0,4.24,2.4,7.44,5.84,7.44s5.88-3.16,5.88-7.52c0-3.28-1.64-7.4-5.8-7.4s-5.96,3.84-5.96,7.48Zm11.12-18.08-4.88,5.72H344.8l3.48-5.72Z"/>
  <path id="Trazado_207" data-name="Trazado 207" d="M360.8,167.25c0-2,0-3.64-.16-5.24h3.12l.2,3.2H364a7.17,7.17,0,0,1,6.4-3.6c2.68,0,6.83,1.6,6.83,8.24v11.52h-3.51V170.21c0-3.12-1.16-5.72-4.48-5.72a5.16,5.16,0,0,0-5,5.24v11.64H360.8Z"/>
  <path id="Trazado_208" data-name="Trazado 208" d="M380.72,186.32a59,59,0,0,0,2.4-9.59l3.92-.4A51,51,0,0,1,383.2,186Z"/>
  <path id="Trazado_209" data-name="Trazado 209" d="M402,153h3.52v28.4H402Z"/>
  <path id="Trazado_210" data-name="Trazado 210" d="M413.44,172.33c.08,4.76,3.08,6.72,6.64,6.72a12.59,12.59,0,0,0,5.36-1l.64,2.52a15.77,15.77,0,0,1-6.48,1.24c-6,0-9.52-4-9.52-9.8s3.44-10.4,9.08-10.4c6.36,0,8,5.52,8,9.08a8.58,8.58,0,0,1-.12,1.64Zm10.32-2.52c0-2.2-.92-5.68-4.88-5.68-3.6,0-5.12,3.24-5.4,5.68Z"/>
  <path id="Trazado_211" data-name="Trazado 211" d="M442.28,168.33c0-2.48-.08-4.48-.16-6.32h3.12l.2,3.32h.08a7.54,7.54,0,0,1,6.88-3.72c4.72,0,8.24,4,8.24,9.8,0,7-4.28,10.4-8.84,10.4a6.79,6.79,0,0,1-6-3h-.08v10.51h-3.48Zm3.48,5.16a5.43,5.43,0,0,0,5.44,5.56c3.72,0,5.88-3,5.88-7.48,0-3.84-2-7.16-5.76-7.16a5.54,5.54,0,0,0-5.32,4.32,5.708,5.708,0,0,0-.24,1.4Z"/>
  <path id="Trazado_212" data-name="Trazado 212" d="M467,172.33c.08,4.76,3.08,6.72,6.64,6.72a12.59,12.59,0,0,0,5.36-1l.64,2.52a15.77,15.77,0,0,1-6.48,1.24c-6,0-9.52-4-9.52-9.8s3.44-10.4,9.08-10.4c6.36,0,8,5.52,8,9.08a8.58,8.58,0,0,1-.12,1.64Zm10.32-2.52c0-2.2-.92-5.68-4.88-5.68-3.6,0-5.12,3.24-5.4,5.68Z"/>
  <path id="Trazado_213" data-name="Trazado 213" d="M485.08,168.05c0-2.28,0-4.24-.16-6H488l.16,3.84h.12a5.85,5.85,0,0,1,5.4-4.24,7.173,7.173,0,0,1,1,.08V165a5.48,5.48,0,0,0-1.2-.08c-2.48,0-4.24,1.84-4.72,4.48a10.529,10.529,0,0,0-.12,1.64v10.32h-3.52Z"/>
  <path id="Trazado_214" data-name="Trazado 214" d="M498.32,167.25c0-2-.08-3.64-.16-5.24h3.08l.16,3.16h.12a6.69,6.69,0,0,1,6.12-3.56,5.71,5.71,0,0,1,5.44,3.88h.08a7.641,7.641,0,0,1,2.2-2.52,6.489,6.489,0,0,1,4.24-1.36c2.59,0,6.39,1.68,6.39,8.4v11.36h-3.44V170.45c0-3.76-1.39-6-4.19-6a4.62,4.62,0,0,0-4.2,3.16,6,6,0,0,0-.28,1.76v12h-3.44v-11.6c0-3.08-1.36-5.28-4-5.28A4.85,4.85,0,0,0,502,168a4.71,4.71,0,0,0-.28,1.72v11.64h-3.44Z"/>
  <path id="Trazado_215" data-name="Trazado 215" d="M535.6,156.57a2.1,2.1,0,0,1-2.24,2.16,2.07,2.07,0,0,1-2.12-2.16,2.14,2.14,0,0,1,2.2-2.2,2.11,2.11,0,0,1,2.16,2.2Zm-3.92,24.8V162h3.52v19.36Z"/>
  <path id="Trazado_216" data-name="Trazado 216" d="M545.28,157.37V162h5v2.68h-5v10.44c0,2.4.68,3.76,2.64,3.76a6.569,6.569,0,0,0,2-.24l.16,2.68a9.6,9.6,0,0,1-3.12.48,5,5,0,0,1-3.8-1.48c-1-1.08-1.36-2.8-1.36-5.08V164.69h-3V162h3v-3.6Z"/>
  <path id="Trazado_217" data-name="Trazado 217" d="M558.2,156.57a2.1,2.1,0,0,1-2.24,2.16,2.07,2.07,0,0,1-2.12-2.16,2.14,2.14,0,0,1,2.2-2.2,2.11,2.11,0,0,1,2.16,2.2Zm-3.92,24.8V162h3.52v19.36Z"/>
  <path id="Trazado_218" data-name="Trazado 218" d="M563.64,168.05c0-2.28,0-4.24-.16-6h3.08l.16,3.84h.12a5.85,5.85,0,0,1,5.4-4.24,7.172,7.172,0,0,1,1,.08V165a5.48,5.48,0,0,0-1.2-.08c-2.48,0-4.24,1.84-4.72,4.48a10.528,10.528,0,0,0-.12,1.64v10.32h-3.52Z"/>
  <path id="Trazado_219" data-name="Trazado 219" d="M590.12,176.73a32.474,32.474,0,0,0,.28,4.64h-3.16l-.28-2.44h-.12a7.21,7.21,0,0,1-5.92,2.88,5.52,5.52,0,0,1-5.92-5.56c0-4.68,4.16-7.24,11.64-7.2v-.4c0-1.56-.44-4.48-4.4-4.44a9.33,9.33,0,0,0-5.08,1.44l-.8-2.36a12.54,12.54,0,0,1,6.4-1.68c5.92,0,7.36,4,7.36,7.88Zm-3.4-5.24c-3.84-.08-8.2.6-8.2,4.36a3.08,3.08,0,0,0,3.28,3.36,4.89,4.89,0,0,0,4.76-3.24,4,4,0,0,0,.16-1.12Zm1.76-17.84-4.88,5.72h-2.48l3.48-5.72Z"/>
  <path id="Trazado_220" data-name="Trazado 220" d="M620.36,180.69a13.609,13.609,0,0,1-5.56,1.12c-5.84,0-9.64-4-9.64-9.88s4.08-10.32,10.4-10.32a11.08,11.08,0,0,1,4.88,1l-.8,2.68a8.619,8.619,0,0,0-4.08-.92c-4.44,0-6.84,3.32-6.84,7.32,0,4.48,2.88,7.24,6.72,7.24a10.08,10.08,0,0,0,4.32-.92Z"/>
  <path id="Trazado_221" data-name="Trazado 221" d="M641.76,171.53c0,7.16-5,10.28-9.64,10.28-5.2,0-9.28-3.84-9.28-10,0-6.44,4.28-10.24,9.6-10.24C638,161.61,641.76,165.65,641.76,171.53Zm-15.32.2c0,4.24,2.4,7.44,5.84,7.44s5.88-3.16,5.88-7.52c0-3.28-1.64-7.4-5.8-7.4S626.44,168.09,626.44,171.73Z"/>
  <path id="Trazado_222" data-name="Trazado 222" d="M646.2,167.25c0-2-.08-3.64-.16-5.24h3.08l.16,3.16h.12a6.69,6.69,0,0,1,6.12-3.56,5.71,5.71,0,0,1,5.44,3.88H661a7.641,7.641,0,0,1,2.2-2.52,6.49,6.49,0,0,1,4.24-1.36c2.6,0,6.4,1.68,6.4,8.4v11.36H670.4V170.45c0-3.76-1.4-6-4.2-6a4.62,4.62,0,0,0-4.2,3.16,6,6,0,0,0-.28,1.76v12h-3.44v-11.6c0-3.08-1.36-5.28-4-5.28a4.85,4.85,0,0,0-4.36,3.52,4.71,4.71,0,0,0-.28,1.72v11.64H646.2Z"/>
  <path id="Trazado_223" data-name="Trazado 223" d="M679.56,168.33c0-2.48-.08-4.48-.16-6.32h3.12l.2,3.32h.08a7.54,7.54,0,0,1,6.88-3.72c4.72,0,8.24,4,8.24,9.8,0,7-4.28,10.4-8.84,10.4a6.79,6.79,0,0,1-6-3H683v10.51h-3.48Zm3.48,5.16a5.43,5.43,0,0,0,5.44,5.56c3.72,0,5.88-3,5.88-7.48,0-3.84-2-7.16-5.76-7.16a5.54,5.54,0,0,0-5.32,4.32,5.711,5.711,0,0,0-.24,1.4Z"/>
  <path id="Trazado_224" data-name="Trazado 224" d="M702.32,168.05c0-2.28,0-4.24-.16-6h3.08l.16,3.84h.12a5.85,5.85,0,0,1,5.4-4.24,7.171,7.171,0,0,1,1,.08V165a5.48,5.48,0,0,0-1.2-.08c-2.48,0-4.24,1.84-4.72,4.48a10.521,10.521,0,0,0-.12,1.64v10.32h-3.52Z"/>
  <path id="Trazado_225" data-name="Trazado 225" d="M717,172.33c.08,4.76,3.08,6.72,6.64,6.72a12.59,12.59,0,0,0,5.36-1l.64,2.52a15.77,15.77,0,0,1-6.48,1.24c-6,0-9.52-4-9.52-9.8s3.44-10.4,9.08-10.4c6.36,0,8,5.52,8,9.08a8.582,8.582,0,0,1-.12,1.64Zm10.32-2.52c0-2.2-.92-5.68-4.88-5.68-3.6,0-5.12,3.24-5.4,5.68Z"/>
  <path id="Trazado_226" data-name="Trazado 226" d="M735,167.25c0-2,0-3.64-.16-5.24H738l.2,3.2h.08a7.17,7.17,0,0,1,6.4-3.6c2.68,0,6.84,1.6,6.84,8.24v11.52H748V170.21c0-3.12-1.16-5.72-4.48-5.72a5.16,5.16,0,0,0-5,5.24v11.64H735Z"/>
  <path id="Trazado_227" data-name="Trazado 227" d="M773.92,153v23.4c0,1.72.08,3.68.16,5H771l-.2-3.4h-.12a7,7,0,0,1-6.52,3.8c-4.68,0-8.32-4-8.32-9.84,0-6.44,4-10.36,8.68-10.36a6.49,6.49,0,0,1,5.84,2.92h.08V153Zm-3.48,16.92a6.209,6.209,0,0,0-.16-1.48,5.18,5.18,0,0,0-5.08-4c-3.64,0-5.8,3.2-5.8,7.44,0,3.92,2,7.16,5.72,7.16a5.33,5.33,0,0,0,5.16-4.2,6.109,6.109,0,0,0,.16-1.52Z"/>
  <path id="Trazado_228" data-name="Trazado 228" d="M781.76,172.33c.08,4.76,3.08,6.72,6.64,6.72a12.59,12.59,0,0,0,5.36-1l.64,2.52a15.769,15.769,0,0,1-6.48,1.24c-6,0-9.52-4-9.52-9.8s3.44-10.4,9.08-10.4c6.36,0,8,5.52,8,9.08a8.582,8.582,0,0,1-.12,1.64Zm10.32-2.52c0-2.2-.92-5.68-4.88-5.68-3.6,0-5.12,3.24-5.4,5.68Z"/>
  <path id="Trazado_229" data-name="Trazado 229" d="M799.84,168.05c0-2.28,0-4.24-.16-6h3.08l.16,3.84H803a5.85,5.85,0,0,1,5.4-4.24,7.17,7.17,0,0,1,1,.08V165a5.481,5.481,0,0,0-1.2-.08c-2.48,0-4.24,1.84-4.72,4.48a10.521,10.521,0,0,0-.12,1.64v10.32h-3.52Z"/>
  <path id="Trazado_230" data-name="Trazado 230" d="M98.52,224.73a32.478,32.478,0,0,0,.28,4.64H95.64l-.28-2.44h-.12a7.21,7.21,0,0,1-5.92,2.88,5.52,5.52,0,0,1-5.92-5.56c0-4.68,4.16-7.24,11.64-7.2v-.4c0-1.56-.44-4.48-4.4-4.44a9.33,9.33,0,0,0-5.08,1.44l-.8-2.36a12.54,12.54,0,0,1,6.4-1.68c5.92,0,7.36,4,7.36,7.88Zm-3.4-5.24c-3.84-.08-8.2.6-8.2,4.36a3.08,3.08,0,0,0,3.28,3.36A4.89,4.89,0,0,0,95,224a4,4,0,0,0,.16-1.12Z"/>
  <path id="Trazado_231" data-name="Trazado 231" d="M104.2,201h3.52v28.4H104.2Z"/>
  <path id="Trazado_232" data-name="Trazado 232" d="M135.67,224.73a32.476,32.476,0,0,0,.28,4.64h-3.16l-.28-2.44h-.12a7.21,7.21,0,0,1-5.92,2.88,5.52,5.52,0,0,1-5.92-5.56c0-4.68,4.16-7.24,11.64-7.2v-.4c0-1.56-.44-4.48-4.4-4.44a9.33,9.33,0,0,0-5.08,1.44l-.8-2.36a12.54,12.54,0,0,1,6.4-1.68c5.92,0,7.36,4,7.36,7.88Zm-3.4-5.24c-3.84-.08-8.2.6-8.2,4.36a3.08,3.08,0,0,0,3.28,3.36,4.89,4.89,0,0,0,4.76-3.24,4,4,0,0,0,.16-1.12Z"/>
  <path id="Trazado_233" data-name="Trazado 233" d="M141.35,216.33c0-2.48-.08-4.48-.16-6.32h3.12l.2,3.32h.08a7.54,7.54,0,0,1,6.88-3.72c4.72,0,8.24,4,8.24,9.8,0,7-4.28,10.4-8.84,10.4a6.79,6.79,0,0,1-6-3h-.08v10.51h-3.48Zm3.48,5.16a5.43,5.43,0,0,0,5.44,5.56c3.72,0,5.88-3,5.88-7.48,0-3.84-2-7.16-5.76-7.16a5.54,5.54,0,0,0-5.32,4.32,5.71,5.71,0,0,0-.24,1.4Z"/>
  <path id="Trazado_234" data-name="Trazado 234" d="M164.11,216.05c0-2.28,0-4.24-.16-6H167l.16,3.84h.12a5.85,5.85,0,0,1,5.4-4.24,7.171,7.171,0,0,1,1,.08V213a5.48,5.48,0,0,0-1.2-.08c-2.48,0-4.24,1.84-4.72,4.48a10.53,10.53,0,0,0-.12,1.64v10.32h-3.52Z"/>
  <path id="Trazado_235" data-name="Trazado 235" d="M178.75,220.33c.08,4.76,3.08,6.72,6.64,6.72a12.591,12.591,0,0,0,5.36-1l.64,2.52a15.77,15.77,0,0,1-6.48,1.24c-6,0-9.52-4-9.52-9.8s3.44-10.4,9.08-10.4c6.36,0,8,5.52,8,9.08a8.581,8.581,0,0,1-.12,1.64Zm10.32-2.52c0-2.2-.92-5.68-4.88-5.68-3.6,0-5.12,3.24-5.4,5.68Z"/>
  <path id="Trazado_236" data-name="Trazado 236" d="M196.83,215.25c0-2,0-3.64-.16-5.24h3.12l.2,3.2h.08a7.17,7.17,0,0,1,6.4-3.6c2.68,0,6.84,1.6,6.84,8.24v11.52h-3.52V218.21c0-3.12-1.16-5.72-4.48-5.72a5.16,5.16,0,0,0-5,5.24v11.64h-3.52Z"/>
  <path id="Trazado_237" data-name="Trazado 237" d="M235.7,201v23.4c0,1.72.08,3.68.16,5h-3.11l-.17-3.36h-.11a7,7,0,0,1-6.52,3.8c-4.68,0-8.32-4-8.32-9.84,0-6.44,4-10.36,8.68-10.36a6.49,6.49,0,0,1,5.84,2.92h.08V201Zm-3.47,16.92a6.211,6.211,0,0,0-.16-1.48,5.18,5.18,0,0,0-5.08-4c-3.64,0-5.8,3.2-5.8,7.44,0,3.92,2,7.16,5.72,7.16a5.33,5.33,0,0,0,5.16-4.2,6.111,6.111,0,0,0,.16-1.52Z"/>
  <path id="Trazado_238" data-name="Trazado 238" d="M245.51,204.57a2.1,2.1,0,0,1-2.24,2.16,2.07,2.07,0,0,1-2.12-2.16,2.14,2.14,0,0,1,2.2-2.2,2.11,2.11,0,0,1,2.16,2.2Zm-3.92,24.8V210h3.52v19.36Z"/>
  <path id="Trazado_239" data-name="Trazado 239" d="M248.75,227.33l8.72-11.4c.88-1.08,1.68-2,2.56-3v-.08H249.55V210h14.71v2.2l-8.63,11.24a38.048,38.048,0,0,1-2.48,3v.08h11.27v2.8H248.75Z"/>
  <path id="Trazado_240" data-name="Trazado 240" d="M265.79,234.32a59,59,0,0,0,2.4-9.59l3.92-.4a51,51,0,0,1-3.84,9.71Z"/>
  <path id="Trazado_241" data-name="Trazado 241" d="M298,226.41h-.08a7,7,0,0,1-6.32,3.4c-4.51,0-8.19-3.88-8.19-9.76,0-7.28,4.68-10.44,8.75-10.44a6.41,6.41,0,0,1,6,3.32h.08l.12-2.92h3.32c-.08,1.6-.16,3.32-.16,5.32v21.95H298Zm0-8.56a5.681,5.681,0,0,0-.16-1.44,5.18,5.18,0,0,0-5-4c-3.63,0-5.83,3.08-5.83,7.4,0,3.88,1.84,7.2,5.71,7.2a5.25,5.25,0,0,0,5-3.8,6.439,6.439,0,0,0,.28-1.72Z"/>
  <path id="Trazado_242" data-name="Trazado 242" d="M323.49,224.05c0,2,0,3.8.16,5.32h-3.12l-.2-3.16h-.08a7.23,7.23,0,0,1-6.4,3.6c-3,0-6.67-1.72-6.67-8.48V210h3.51v10.68c0,3.68,1.16,6.2,4.32,6.2a5.06,5.06,0,0,0,4.64-3.24,4.83,4.83,0,0,0,.32-1.8V210h3.52Z"/>
  <path id="Trazado_243" data-name="Trazado 243" d="M331.3,220.33c.08,4.76,3.07,6.72,6.63,6.72a12.591,12.591,0,0,0,5.36-1l.64,2.52a15.77,15.77,0,0,1-6.48,1.24c-5.95,0-9.51-4-9.51-9.8s3.44-10.4,9.07-10.4c6.36,0,8,5.52,8,9.08a8.583,8.583,0,0,1-.12,1.64Zm10.31-2.52c0-2.2-.92-5.68-4.88-5.68-3.6,0-5.11,3.24-5.4,5.68Z"/>
  <path id="Trazado_244" data-name="Trazado 244" d="M357.8,201h3.52v28.4H357.8Z"/>
  <path id="Trazado_245" data-name="Trazado 245" d="M380.84,224.73a32.478,32.478,0,0,0,.28,4.64H378l-.28-2.44h-.12a7.21,7.21,0,0,1-5.92,2.88,5.51,5.51,0,0,1-5.91-5.56c0-4.68,4.15-7.24,11.63-7.2v-.4c0-1.56-.44-4.48-4.4-4.44a9.33,9.33,0,0,0-5.08,1.44l-.8-2.36a12.54,12.54,0,0,1,6.4-1.68c5.92,0,7.36,4,7.36,7.88Zm-3.4-5.24c-3.84-.08-8.2.6-8.2,4.36a3.08,3.08,0,0,0,3.28,3.36,4.89,4.89,0,0,0,4.76-3.24,4,4,0,0,0,.16-1.12Z"/>
  <path id="Trazado_246" data-name="Trazado 246" d="M396.91,220.33c.08,4.76,3.08,6.72,6.64,6.72a12.591,12.591,0,0,0,5.36-1l.64,2.52a15.77,15.77,0,0,1-6.48,1.24c-6,0-9.52-4-9.52-9.8s3.44-10.4,9.08-10.4c6.36,0,8,5.52,8,9.08a8.583,8.583,0,0,1-.12,1.64Zm10.32-2.52c0-2.2-.92-5.68-4.88-5.68-3.6,0-5.12,3.24-5.4,5.68Z"/>
  <path id="Trazado_247" data-name="Trazado 247" d="M415,215.25c0-2,0-3.64-.16-5.24H418l.2,3.2h.08a7.17,7.17,0,0,1,6.4-3.6c2.68,0,6.84,1.6,6.84,8.24v11.52H428V218.21c0-3.12-1.16-5.72-4.48-5.72a5.16,5.16,0,0,0-5,5.24v11.64H415Z"/>
  <path id="Trazado_248" data-name="Trazado 248" d="M441.27,205.37V210h5v2.68h-5v10.44c0,2.4.68,3.76,2.64,3.76a6.57,6.57,0,0,0,2-.24l.16,2.68a9.6,9.6,0,0,1-3.12.48,5,5,0,0,1-3.8-1.48c-1-1.08-1.36-2.8-1.36-5.08V212.69h-3V210h3v-3.6Z"/>
  <path id="Trazado_249" data-name="Trazado 249" d="M450.27,216.05c0-2.28,0-4.24-.16-6h3.08l.16,3.84h.12a5.85,5.85,0,0,1,5.4-4.24,7.167,7.167,0,0,1,1,.08V213a5.479,5.479,0,0,0-1.2-.08c-2.48,0-4.24,1.84-4.72,4.48a10.532,10.532,0,0,0-.12,1.64v10.32h-3.52Z"/>
  <path id="Trazado_250" data-name="Trazado 250" d="M464.91,220.33c.08,4.76,3.08,6.72,6.64,6.72a12.591,12.591,0,0,0,5.36-1l.64,2.52a15.77,15.77,0,0,1-6.48,1.24c-6,0-9.52-4-9.52-9.8s3.44-10.4,9.08-10.4c6.36,0,8,5.52,8,9.08a8.583,8.583,0,0,1-.12,1.64Zm10.32-2.52c0-2.2-.92-5.68-4.88-5.68-3.6,0-5.12,3.24-5.4,5.68Z"/>
  <path id="Trazado_251" data-name="Trazado 251" d="M499.55,226.53c0,4.47-.92,7.15-2.76,8.87a10.64,10.64,0,0,1-7.08,2.32,12.5,12.5,0,0,1-6.44-1.6l.88-2.72a10.54,10.54,0,0,0,5.68,1.56c3.6,0,6.24-1.88,6.24-6.79v-2.12H496a6.86,6.86,0,0,1-6.16,3.24c-4.8,0-8.24-4.08-8.24-9.44,0-6.56,4.28-10.24,8.76-10.24a6.46,6.46,0,0,1,6,3.32h.08l.12-2.92h3.12c-.12,1.36-.16,3-.16,5.28ZM496,217.65a4.62,4.62,0,0,0-.2-1.56,5,5,0,0,0-4.92-3.76c-3.36,0-5.76,2.84-5.76,7.32,0,3.8,2,7,5.72,7a5.07,5.07,0,0,0,4.88-3.6,6.121,6.121,0,0,0,.28-1.88Z"/>
  <path id="Trazado_252" data-name="Trazado 252" d="M519,224.73a32.483,32.483,0,0,0,.28,4.64h-3.16l-.28-2.44h-.12a7.21,7.21,0,0,1-5.92,2.88,5.52,5.52,0,0,1-5.92-5.56c0-4.68,4.16-7.24,11.64-7.2v-.4c0-1.56-.44-4.48-4.4-4.44a9.33,9.33,0,0,0-5.08,1.44l-.8-2.36a12.54,12.54,0,0,1,6.4-1.68c5.92,0,7.36,4,7.36,7.88Zm-3.4-5.24c-3.84-.08-8.2.6-8.2,4.36a3.08,3.08,0,0,0,3.28,3.36,4.89,4.89,0,0,0,4.76-3.24,4,4,0,0,0,.16-1.12Z"/>
  <path id="Trazado_253" data-name="Trazado 253" d="M549.74,201v23.4c0,1.72.08,3.68.16,5h-3.12l-.16-3.36h-.12a7,7,0,0,1-6.52,3.8c-4.68,0-8.32-4-8.32-9.84,0-6.44,4-10.36,8.68-10.36a6.49,6.49,0,0,1,5.84,2.92h.08V201Zm-3.48,16.92a6.209,6.209,0,0,0-.16-1.48,5.18,5.18,0,0,0-5.08-4c-3.64,0-5.8,3.2-5.8,7.44,0,3.92,2,7.16,5.72,7.16a5.33,5.33,0,0,0,5.16-4.2,6.112,6.112,0,0,0,.16-1.52Z"/>
  <path id="Trazado_254" data-name="Trazado 254" d="M557.58,220.33c.08,4.76,3.08,6.72,6.64,6.72a12.591,12.591,0,0,0,5.36-1l.64,2.52a15.77,15.77,0,0,1-6.48,1.24c-6,0-9.52-4-9.52-9.8s3.44-10.4,9.08-10.4c6.36,0,8,5.52,8,9.08a8.582,8.582,0,0,1-.12,1.64Zm10.32-2.52c0-2.2-.92-5.68-4.88-5.68-3.6,0-5.12,3.24-5.4,5.68Z"/>
  <path id="Trazado_255" data-name="Trazado 255" d="M584.09,201h3.52v28.4h-3.52Z"/>
  <path id="Trazado_256" data-name="Trazado 256" d="M607.13,224.73a32.483,32.483,0,0,0,.28,4.64h-3.16l-.28-2.44h-.12a7.21,7.21,0,0,1-5.92,2.88,5.52,5.52,0,0,1-5.92-5.56c0-4.68,4.16-7.24,11.64-7.2v-.4c0-1.56-.44-4.48-4.4-4.44a9.33,9.33,0,0,0-5.08,1.44l-.8-2.36a12.54,12.54,0,0,1,6.4-1.68c5.92,0,7.36,4,7.36,7.88Zm-3.4-5.24c-3.84-.08-8.2.6-8.2,4.36a3.08,3.08,0,0,0,3.28,3.36,4.89,4.89,0,0,0,4.76-3.24,4,4,0,0,0,.16-1.12Z"/>
  <path id="Trazado_257" data-name="Trazado 257" d="M612.33,225.81a9.94,9.94,0,0,0,4.68,1.36c2.52,0,3.72-1.24,3.72-2.88s-1-2.56-3.56-3.52c-3.52-1.28-5.16-3.16-5.16-5.48,0-3.12,2.56-5.68,6.68-5.68a9,9,0,0,1,4.72,1.2l-.84,2.56a7.5,7.5,0,0,0-4-1.16c-2.08,0-3.2,1.2-3.2,2.64,0,1.6,1.12,2.32,3.64,3.32,3.32,1.24,5.08,2.92,5.08,5.8,0,3.44-2.68,5.84-7.2,5.84a11,11,0,0,1-5.44-1.36Z"/>
  <path id="Trazado_258" data-name="Trazado 258" d="M639,220.33c.08,4.76,3.08,6.72,6.64,6.72a12.591,12.591,0,0,0,5.36-1l.64,2.52a15.77,15.77,0,0,1-6.48,1.24c-6,0-9.52-4-9.52-9.8s3.44-10.4,9.08-10.4c6.36,0,8,5.52,8,9.08a8.583,8.583,0,0,1-.12,1.64Zm10.32-2.52c0-2.2-.92-5.68-4.88-5.68-3.6,0-5.12,3.24-5.4,5.68Z"/>
  <path id="Trazado_259" data-name="Trazado 259" d="M658.48,210l3.8,10.84c.64,1.8,1.16,3.4,1.56,5H664c.44-1.6,1-3.2,1.64-5L669.36,210H673l-7.6,19.36h-3.36L654.72,210Z"/>
  <path id="Trazado_260" data-name="Trazado 260" d="M680.28,204.57a2.1,2.1,0,0,1-2.24,2.16,2.07,2.07,0,0,1-2.12-2.16,2.14,2.14,0,0,1,2.2-2.2,2.11,2.11,0,0,1,2.16,2.2Zm-3.92,24.8V210h3.52v19.36Z"/>
  <path id="Trazado_261" data-name="Trazado 261" d="M702.4,201v23.4c0,1.72.08,3.68.16,5h-3.12l-.16-3.36h-.12a7,7,0,0,1-6.52,3.8c-4.68,0-8.32-4-8.32-9.84,0-6.44,4-10.36,8.68-10.36a6.49,6.49,0,0,1,5.84,2.92h.08V201Zm-3.48,16.92a6.212,6.212,0,0,0-.16-1.48,5.18,5.18,0,0,0-5.08-4c-3.64,0-5.8,3.2-5.8,7.44,0,3.92,2,7.16,5.72,7.16a5.33,5.33,0,0,0,5.16-4.2,6.112,6.112,0,0,0,.16-1.52Z"/>
  <path id="Trazado_262" data-name="Trazado 262" d="M710.24,220.33c.08,4.76,3.08,6.72,6.64,6.72a12.591,12.591,0,0,0,5.36-1l.64,2.52a15.769,15.769,0,0,1-6.48,1.24c-6,0-9.52-4-9.52-9.8s3.44-10.4,9.08-10.4c6.36,0,8,5.52,8,9.08a8.578,8.578,0,0,1-.12,1.64Zm10.32-2.52c0-2.2-.92-5.68-4.88-5.68-3.6,0-5.12,3.24-5.4,5.68Z"/>
  <path id="Trazado_263" data-name="Trazado 263" d="M728.32,215.25c0-2,0-3.64-.16-5.24h3.12l.2,3.2h.08a7.17,7.17,0,0,1,6.4-3.6c2.68,0,6.84,1.6,6.84,8.24v11.52h-3.52V218.21c0-3.12-1.16-5.72-4.48-5.72a5.16,5.16,0,0,0-5,5.24v11.64h-3.52Z"/>
  <path id="Trazado_264" data-name="Trazado 264" d="M764.32,228.69a13.61,13.61,0,0,1-5.56,1.12c-5.84,0-9.64-4-9.64-9.88s4.08-10.32,10.4-10.32a11.08,11.08,0,0,1,4.88,1l-.8,2.68a8.619,8.619,0,0,0-4.08-.92c-4.44,0-6.84,3.32-6.84,7.32,0,4.48,2.88,7.24,6.72,7.24a10.08,10.08,0,0,0,4.32-.92Z"/>
  <path id="Trazado_265" data-name="Trazado 265" d="M772.36,204.57a2.1,2.1,0,0,1-2.24,2.16,2.07,2.07,0,0,1-2.12-2.16,2.14,2.14,0,0,1,2.2-2.2,2.11,2.11,0,0,1,2.16,2.2Zm-3.92,24.8V210H772v19.36Z"/>
  <path id="Trazado_266" data-name="Trazado 266" d="M791.4,224.73a32.483,32.483,0,0,0,.28,4.64h-3.16l-.28-2.44h-.12a7.21,7.21,0,0,1-5.92,2.88,5.52,5.52,0,0,1-5.92-5.56c0-4.68,4.16-7.24,11.64-7.2v-.4c0-1.56-.44-4.48-4.4-4.44a9.33,9.33,0,0,0-5.08,1.44l-.8-2.36a12.54,12.54,0,0,1,6.4-1.68c5.92,0,7.36,4,7.36,7.88Zm-3.4-5.24c-3.84-.08-8.2.6-8.2,4.36a3.08,3.08,0,0,0,3.28,3.36,4.89,4.89,0,0,0,4.76-3.24,4,4,0,0,0,.16-1.12Z"/>
  <path id="Trazado_267" data-name="Trazado 267" d="M796.6,225.81a9.94,9.94,0,0,0,4.68,1.36c2.52,0,3.72-1.24,3.72-2.88s-1-2.56-3.56-3.52c-3.52-1.28-5.16-3.16-5.16-5.48,0-3.12,2.56-5.68,6.68-5.68a9,9,0,0,1,4.72,1.2l-.84,2.56a7.5,7.5,0,0,0-4-1.16c-2.08,0-3.2,1.2-3.2,2.64,0,1.6,1.12,2.32,3.64,3.32,3.32,1.24,5.08,2.92,5.08,5.8,0,3.44-2.68,5.84-7.2,5.84a11,11,0,0,1-5.44-1.36Z"/>
  <path id="Trazado_268" data-name="Trazado 268" d="M86.88,268.33c.08,4.76,3.08,6.72,6.64,6.72a12.59,12.59,0,0,0,5.36-1l.64,2.52A15.77,15.77,0,0,1,93,277.81c-6,0-9.52-4-9.52-9.8s3.44-10.4,9.08-10.4c6.36,0,8,5.52,8,9.08a8.581,8.581,0,0,1-.12,1.64Zm10.32-2.52c0-2.2-.92-5.68-4.88-5.68-3.6,0-5.12,3.24-5.4,5.68Z"/>
  <path id="Trazado_269" data-name="Trazado 269" d="M104.48,273.81a9.94,9.94,0,0,0,4.68,1.36c2.52,0,3.72-1.24,3.72-2.88s-1-2.56-3.56-3.52c-3.52-1.28-5.16-3.16-5.16-5.48,0-3.12,2.56-5.68,6.68-5.68a9,9,0,0,1,4.72,1.2l-.84,2.56a7.5,7.5,0,0,0-4-1.16c-2.08,0-3.2,1.2-3.2,2.64,0,1.6,1.12,2.32,3.64,3.32,3.32,1.24,5.08,2.92,5.08,5.8,0,3.44-2.68,5.84-7.2,5.84a11,11,0,0,1-5.44-1.36Z"/>
  <path id="Trazado_270" data-name="Trazado 270" d="M150.13,252.57a2.1,2.1,0,0,1-2.24,2.16,2.07,2.07,0,0,1-2.12-2.16,2.14,2.14,0,0,1,2.2-2.2,2.11,2.11,0,0,1,2.16,2.2Zm-3.92,24.8V258h3.52v19.36Z"/>
  <path id="Trazado_271" data-name="Trazado 271" d="M155.57,263.25c0-2-.08-3.64-.16-5.24h3.08l.16,3.16h.12a6.69,6.69,0,0,1,6.11-3.56,5.71,5.71,0,0,1,5.44,3.88h.08a7.64,7.64,0,0,1,2.2-2.52,6.49,6.49,0,0,1,4.24-1.36c2.6,0,6.4,1.68,6.4,8.4v11.36H179.8V266.45c0-3.76-1.4-6-4.2-6a4.62,4.62,0,0,0-4.2,3.16,6,6,0,0,0-.28,1.76v12h-3.44v-11.6c0-3.08-1.36-5.28-4-5.28a4.85,4.85,0,0,0-4.36,3.52,4.71,4.71,0,0,0-.28,1.72v11.64H155.6Z"/>
  <path id="Trazado_272" data-name="Trazado 272" d="M188.93,264.33c0-2.48-.08-4.48-.16-6.32h3.12l.2,3.32h.08a7.53,7.53,0,0,1,6.87-3.72c4.72,0,8.24,4,8.24,9.8,0,7-4.28,10.4-8.84,10.4a6.78,6.78,0,0,1-5.95-3h-.08v10.51h-3.48Zm3.48,5.16a5.43,5.43,0,0,0,5.43,5.56c3.72,0,5.88-3,5.88-7.48,0-3.84-2-7.16-5.76-7.16a5.54,5.54,0,0,0-5.31,4.32,5.71,5.71,0,0,0-.24,1.4Z"/>
  <path id="Trazado_273" data-name="Trazado 273" d="M229.2,267.53c0,7.16-5,10.28-9.64,10.28-5.19,0-9.27-3.84-9.27-10,0-6.44,4.27-10.24,9.59-10.24C225.44,257.61,229.2,261.65,229.2,267.53Zm-15.31.2c0,4.24,2.39,7.44,5.83,7.44s5.88-3.16,5.88-7.52c0-3.28-1.64-7.4-5.8-7.4S213.89,264.09,213.89,267.73Z"/>
  <path id="Trazado_274" data-name="Trazado 274" d="M233.65,264.05c0-2.28,0-4.24-.16-6h3.07l.17,3.84h.12a5.84,5.84,0,0,1,5.39-4.24,7.17,7.17,0,0,1,1,.08V261a5.481,5.481,0,0,0-1.2-.08c-2.48,0-4.24,1.84-4.71,4.48a10.529,10.529,0,0,0-.12,1.64v10.32h-3.52Z"/>
  <path id="Trazado_275" data-name="Trazado 275" d="M251.92,253.37V258h5v2.68h-5v10.44c0,2.4.68,3.76,2.64,3.76a6.569,6.569,0,0,0,2-.24l.16,2.68a9.6,9.6,0,0,1-3.12.48,5,5,0,0,1-3.8-1.48c-1-1.08-1.36-2.8-1.36-5.08V260.69h-3V258h3v-3.6Z"/>
  <path id="Trazado_276" data-name="Trazado 276" d="M274.52,272.73a32.474,32.474,0,0,0,.28,4.64h-3.16l-.28-2.44h-.12a7.21,7.21,0,0,1-5.92,2.88,5.51,5.51,0,0,1-5.91-5.56c0-4.68,4.15-7.24,11.63-7.2v-.4c0-1.56-.44-4.48-4.4-4.44a9.33,9.33,0,0,0-5.08,1.44l-.79-2.36a12.47,12.47,0,0,1,6.39-1.68c5.92,0,7.36,4,7.36,7.88Zm-3.4-5.24c-3.84-.08-8.2.6-8.2,4.36a3.08,3.08,0,0,0,3.28,3.36A4.89,4.89,0,0,0,271,272a4,4,0,0,0,.16-1.12Z"/>
  <path id="Trazado_277" data-name="Trazado 277" d="M280.2,263.25c0-2,0-3.64-.16-5.24h3.12l.2,3.2h.08a7.17,7.17,0,0,1,6.4-3.6c2.68,0,6.84,1.6,6.84,8.24v11.52h-3.52V266.21c0-3.12-1.16-5.72-4.48-5.72a5.16,5.16,0,0,0-5,5.24v11.64H280.2Z"/>
  <path id="Trazado_278" data-name="Trazado 278" d="M306.48,253.37V258h5v2.68h-5v10.44c0,2.4.68,3.76,2.64,3.76a6.569,6.569,0,0,0,2-.24l.16,2.68a9.6,9.6,0,0,1-3.12.48,5,5,0,0,1-3.8-1.48c-1-1.08-1.36-2.8-1.36-5.08V260.69h-3V258h3v-3.6Z"/>
  <path id="Trazado_279" data-name="Trazado 279" d="M317.2,268.33c.08,4.76,3.08,6.72,6.64,6.72a12.59,12.59,0,0,0,5.36-1l.64,2.52a15.77,15.77,0,0,1-6.48,1.24c-6,0-9.52-4-9.52-9.8s3.44-10.4,9.08-10.4c6.36,0,8,5.52,8,9.08a8.58,8.58,0,0,1-.12,1.64Zm10.32-2.52c0-2.2-.92-5.68-4.88-5.68-3.6,0-5.12,3.24-5.4,5.68Z"/>
  <path id="Trazado_280" data-name="Trazado 280" d="M360.69,264.33c0-2.48-.08-4.48-.16-6.32h3.12l.2,3.32h.08a7.54,7.54,0,0,1,6.88-3.72c4.72,0,8.24,4,8.24,9.8,0,7-4.28,10.4-8.84,10.4a6.79,6.79,0,0,1-6-3h-.08v10.51h-3.48Zm3.48,5.16a5.43,5.43,0,0,0,5.44,5.56c3.72,0,5.88-3,5.88-7.48,0-3.84-2-7.16-5.76-7.16a5.54,5.54,0,0,0-5.32,4.32,5.709,5.709,0,0,0-.24,1.4Z"/>
  <path id="Trazado_281" data-name="Trazado 281" d="M397.05,272.73a32.474,32.474,0,0,0,.28,4.64h-3.16l-.28-2.44h-.12a7.21,7.21,0,0,1-5.92,2.88,5.52,5.52,0,0,1-5.92-5.56c0-4.68,4.16-7.24,11.64-7.2v-.4c0-1.56-.44-4.48-4.4-4.44a9.33,9.33,0,0,0-5.08,1.44l-.8-2.36a12.54,12.54,0,0,1,6.4-1.68c5.92,0,7.36,4,7.36,7.88Zm-3.4-5.24c-3.84-.08-8.2.6-8.2,4.36a3.08,3.08,0,0,0,3.28,3.36,4.89,4.89,0,0,0,4.76-3.24,4,4,0,0,0,.16-1.12Z"/>
  <path id="Trazado_282" data-name="Trazado 282" d="M402.73,264.05c0-2.28,0-4.24-.16-6h3.08l.16,3.84h.12a5.85,5.85,0,0,1,5.4-4.24,7.171,7.171,0,0,1,1,.08V261a5.48,5.48,0,0,0-1.2-.08c-2.48,0-4.24,1.84-4.72,4.48a10.533,10.533,0,0,0-.12,1.64v10.32h-3.52Z"/>
  <path id="Trazado_283" data-name="Trazado 283" d="M429.21,272.73a32.487,32.487,0,0,0,.28,4.64h-3.16l-.28-2.44h-.12a7.21,7.21,0,0,1-5.92,2.88,5.52,5.52,0,0,1-5.92-5.56c0-4.68,4.16-7.24,11.64-7.2v-.4c0-1.56-.44-4.48-4.4-4.44a9.33,9.33,0,0,0-5.08,1.44l-.8-2.36a12.54,12.54,0,0,1,6.4-1.68c5.92,0,7.36,4,7.36,7.88Zm-3.4-5.24c-3.84-.08-8.2.6-8.2,4.36a3.08,3.08,0,0,0,3.28,3.36,4.89,4.89,0,0,0,4.76-3.24,4,4,0,0,0,.16-1.12Z"/>
  <path id="Trazado_284" data-name="Trazado 284" d="M462.26,268.33c.08,4.76,3.08,6.72,6.64,6.72a12.509,12.509,0,0,0,5.35-1l.65,2.52a15.769,15.769,0,0,1-6.48,1.24c-6,0-9.52-4-9.52-9.8s3.44-10.4,9.08-10.4c6.35,0,8,5.52,8,9.08a8.583,8.583,0,0,1-.12,1.64Zm10.32-2.52c0-2.2-.92-5.68-4.88-5.68-3.6,0-5.12,3.24-5.4,5.68Z"/>
  <path id="Trazado_285" data-name="Trazado 285" d="M480.34,249h3.52v28.4h-3.52Z"/>
  <path id="Trazado_286" data-name="Trazado 286" d="M531.86,249v23.4c0,1.72.08,3.68.16,5H528.9l-.16-3.36h-.12a7,7,0,0,1-6.52,3.8c-4.68,0-8.32-4-8.32-9.84,0-6.44,4-10.36,8.68-10.36a6.49,6.49,0,0,1,5.84,2.92h.08V249Zm-3.48,16.92a6.209,6.209,0,0,0-.16-1.48,5.18,5.18,0,0,0-5.08-4c-3.64,0-5.8,3.2-5.8,7.44,0,3.92,2,7.16,5.72,7.16a5.33,5.33,0,0,0,5.16-4.2,6.109,6.109,0,0,0,.16-1.52Z"/>
  <path id="Trazado_287" data-name="Trazado 287" d="M539.7,268.33c.08,4.76,3.08,6.72,6.64,6.72a12.59,12.59,0,0,0,5.36-1l.64,2.52a15.769,15.769,0,0,1-6.48,1.24c-6,0-9.52-4-9.52-9.8s3.44-10.4,9.08-10.4c6.36,0,8,5.52,8,9.08a8.578,8.578,0,0,1-.12,1.64Zm10.3-2.52c0-2.2-.92-5.68-4.88-5.68-3.6,0-5.12,3.24-5.4,5.68Z"/>
  <path id="Trazado_288" data-name="Trazado 288" d="M557.3,273.81a9.94,9.94,0,0,0,4.68,1.36c2.52,0,3.72-1.24,3.72-2.88s-1-2.56-3.56-3.52c-3.52-1.28-5.16-3.16-5.16-5.48,0-3.12,2.56-5.68,6.68-5.68a9,9,0,0,1,4.72,1.2l-.84,2.56a7.5,7.5,0,0,0-4-1.16c-2.08,0-3.2,1.2-3.2,2.64,0,1.6,1.12,2.32,3.64,3.32,3.32,1.24,5.08,2.92,5.08,5.8,0,3.44-2.68,5.84-7.2,5.84a11,11,0,0,1-5.44-1.36Z"/>
  <path id="Trazado_289" data-name="Trazado 289" d="M587.22,272.73a32.483,32.483,0,0,0,.28,4.64h-3.16l-.28-2.44h-.12a7.21,7.21,0,0,1-5.92,2.88,5.52,5.52,0,0,1-5.92-5.56c0-4.68,4.16-7.24,11.64-7.2v-.4c0-1.56-.44-4.48-4.4-4.44a9.331,9.331,0,0,0-5.08,1.44l-.8-2.36a12.54,12.54,0,0,1,6.4-1.68c5.92,0,7.36,4,7.36,7.88Zm-3.4-5.24c-3.84-.08-8.2.6-8.2,4.36a3.08,3.08,0,0,0,3.28,3.36,4.89,4.89,0,0,0,4.76-3.24,4,4,0,0,0,.16-1.12Z"/>
  <path id="Trazado_290" data-name="Trazado 290" d="M592.9,264.05c0-2.28,0-4.24-.16-6h3.08l.16,3.84h.12a5.85,5.85,0,0,1,5.4-4.24,7.175,7.175,0,0,1,1,.08V261a5.48,5.48,0,0,0-1.2-.08c-2.48,0-4.24,1.84-4.72,4.48a10.529,10.529,0,0,0-.12,1.64v10.32H592.9Z"/>
  <path id="Trazado_291" data-name="Trazado 291" d="M606.14,264.05c0-2.28,0-4.24-.16-6h3.08l.16,3.84h.12a5.85,5.85,0,0,1,5.4-4.24,7.171,7.171,0,0,1,1,.08V261a5.48,5.48,0,0,0-1.2-.08c-2.48,0-4.24,1.84-4.72,4.48a10.529,10.529,0,0,0-.12,1.64v10.32h-3.52Z"/>
  <path id="Trazado_292" data-name="Trazado 292" d="M636.34,267.53c0,7.16-5,10.28-9.64,10.28-5.2,0-9.28-3.84-9.28-10,0-6.44,4.28-10.24,9.6-10.24C632.58,257.61,636.34,261.65,636.34,267.53Zm-15.32.2c0,4.24,2.4,7.44,5.84,7.44s5.88-3.16,5.88-7.52c0-3.28-1.64-7.4-5.8-7.4s-5.94,3.84-5.94,7.48Z"/>
  <path id="Trazado_293" data-name="Trazado 293" d="M640.78,249h3.52v28.4h-3.52Z"/>
  <path id="Trazado_294" data-name="Trazado 294" d="M650.22,249h3.52v28.4h-3.52Z"/>
  <path id="Trazado_295" data-name="Trazado 295" d="M677.18,267.53c0,7.16-5,10.28-9.64,10.28-5.2,0-9.28-3.84-9.28-10,0-6.44,4.28-10.24,9.6-10.24C673.42,257.61,677.18,261.65,677.18,267.53Zm-15.32.2c0,4.24,2.4,7.44,5.84,7.44s5.88-3.16,5.88-7.52c0-3.28-1.64-7.4-5.8-7.4S661.86,264.09,661.86,267.73Z"/>
  <path id="Trazado_296" data-name="Trazado 296" d="M723.71,249v23.4c0,1.72.08,3.68.16,5h-3.12l-.16-3.36h-.12a7,7,0,0,1-6.52,3.8c-4.68,0-8.32-4-8.32-9.84,0-6.44,4-10.36,8.68-10.36a6.49,6.49,0,0,1,5.84,2.92h.08V249Zm-3.48,16.92a6.212,6.212,0,0,0-.16-1.48,5.18,5.18,0,0,0-5.08-4c-3.64,0-5.8,3.2-5.8,7.44,0,3.92,2,7.16,5.72,7.16a5.33,5.33,0,0,0,5.16-4.2,6.109,6.109,0,0,0,.16-1.52Z"/>
  <path id="Trazado_297" data-name="Trazado 297" d="M731.55,268.33c.08,4.76,3.08,6.72,6.64,6.72a12.59,12.59,0,0,0,5.36-1l.64,2.52a15.769,15.769,0,0,1-6.48,1.24c-6,0-9.52-4-9.52-9.8s3.44-10.4,9.08-10.4c6.36,0,8,5.52,8,9.08a8.588,8.588,0,0,1-.12,1.64Zm10.32-2.52c0-2.2-.92-5.68-4.88-5.68-3.6,0-5.12,3.24-5.4,5.68Z"/>
  <path id="Trazado_298" data-name="Trazado 298" d="M774.56,273.81a9.94,9.94,0,0,0,4.67,1.36c2.52,0,3.72-1.24,3.72-2.88s-1-2.56-3.55-3.52c-3.52-1.28-5.16-3.16-5.16-5.48,0-3.12,2.56-5.68,6.67-5.68a9,9,0,0,1,4.72,1.2l-.84,2.56a7.5,7.5,0,0,0-4-1.16c-2.08,0-3.19,1.2-3.19,2.64,0,1.6,1.11,2.32,3.63,3.32,3.32,1.24,5.08,2.92,5.08,5.8,0,3.44-2.68,5.84-7.19,5.84a11,11,0,0,1-5.44-1.36Z"/>
  <path id="Trazado_299" data-name="Trazado 299" d="M807.07,272.05c0,2,0,3.8.16,5.32h-3.12l-.2-3.16h-.08a7.23,7.23,0,0,1-6.4,3.6c-3,0-6.67-1.72-6.67-8.48V258h3.51v10.68c0,3.68,1.16,6.2,4.32,6.2a5.06,5.06,0,0,0,4.64-3.24,4.832,4.832,0,0,0,.32-1.8V258h3.52Z"/>
  <path id="Trazado_300" data-name="Trazado 300" d="M98.52,320.73a32.478,32.478,0,0,0,.28,4.64H95.64l-.28-2.44h-.12a7.2,7.2,0,0,1-5.92,2.87,5.51,5.51,0,0,1-5.92-5.55c0-4.68,4.16-7.24,11.64-7.2v-.4c0-1.56-.44-4.48-4.4-4.44a9.33,9.33,0,0,0-5.08,1.44l-.8-2.36a12.54,12.54,0,0,1,6.4-1.68c5.92,0,7.36,4,7.36,7.88Zm-3.4-5.24c-3.84-.08-8.2.6-8.2,4.36a3.08,3.08,0,0,0,3.28,3.36A4.89,4.89,0,0,0,95,320a4,4,0,0,0,.16-1.12Z"/>
  <path id="Trazado_301" data-name="Trazado 301" d="M104.2,312.33c0-2.48-.08-4.48-.16-6.32h3.12l.2,3.32h.08a7.54,7.54,0,0,1,6.88-3.72c4.72,0,8.24,4,8.24,9.8,0,7-4.28,10.39-8.84,10.39a6.78,6.78,0,0,1-6-3h-.08v10.51H104.2Zm3.48,5.16a5.43,5.43,0,0,0,5.44,5.56c3.72,0,5.88-3,5.88-7.48,0-3.84-2-7.16-5.76-7.16a5.54,5.54,0,0,0-5.32,4.32,5.71,5.71,0,0,0-.24,1.4Z"/>
  <path id="Trazado_302" data-name="Trazado 302" d="M127,312.05c0-2.28,0-4.24-.16-6h3.08l.16,3.84h.12a5.85,5.85,0,0,1,5.4-4.24,7.171,7.171,0,0,1,1,.08V309a5.48,5.48,0,0,0-1.2-.08c-2.48,0-4.24,1.84-4.72,4.48a10.531,10.531,0,0,0-.12,1.64v10.32H127Z"/>
  <path id="Trazado_303" data-name="Trazado 303" d="M141.6,316.33c.08,4.76,3.08,6.72,6.64,6.72a12.59,12.59,0,0,0,5.36-1l.64,2.52a15.8,15.8,0,0,1-6.48,1.23c-6,0-9.52-3.95-9.52-9.79s3.44-10.4,9.08-10.4c6.36,0,8,5.52,8,9.08a8.58,8.58,0,0,1-.12,1.64Zm10.32-2.52c0-2.2-.92-5.68-4.88-5.68-3.6,0-5.12,3.24-5.4,5.68Z"/>
  <path id="Trazado_304" data-name="Trazado 304" d="M159.68,311.25c0-2,0-3.64-.16-5.24h3.12l.2,3.2h.08a7.17,7.17,0,0,1,6.4-3.6c2.68,0,6.84,1.6,6.84,8.24v11.52h-3.52V314.21c0-3.12-1.16-5.72-4.48-5.72a5.16,5.16,0,0,0-5,5.24v11.64h-3.52Z"/>
  <path id="Trazado_305" data-name="Trazado 305" d="M198.56,297v23.4c0,1.72.08,3.68.16,5H195.6l-.16-3.36h-.12a7,7,0,0,1-6.52,3.79c-4.68,0-8.32-3.95-8.32-9.83,0-6.44,4-10.36,8.68-10.36a6.49,6.49,0,0,1,5.84,2.92h.08V297Zm-3.48,16.92a6.21,6.21,0,0,0-.16-1.48,5.18,5.18,0,0,0-5.08-4c-3.64,0-5.8,3.2-5.8,7.44,0,3.92,2,7.16,5.72,7.16a5.33,5.33,0,0,0,5.16-4.2,6.111,6.111,0,0,0,.16-1.52Z"/>
  <path id="Trazado_306" data-name="Trazado 306" d="M208.36,300.57a2.1,2.1,0,0,1-2.24,2.16,2.07,2.07,0,0,1-2.12-2.16,2.14,2.14,0,0,1,2.2-2.2,2.11,2.11,0,0,1,2.16,2.2Zm-3.92,24.8V306H208v19.36Z"/>
  <path id="Trazado_307" data-name="Trazado 307" d="M211.6,323.33l8.72-11.4c.88-1.08,1.68-2,2.56-3v-.08H212.4V306h14.72v2.2l-8.64,11.24a38.054,38.054,0,0,1-2.48,3v.08h11.28v2.8H211.6Z"/>
  <path id="Trazado_308" data-name="Trazado 308" d="M244.51,320.73a32.481,32.481,0,0,0,.28,4.64h-3.15l-.28-2.44h-.12a7.2,7.2,0,0,1-5.92,2.87,5.51,5.51,0,0,1-5.92-5.55c0-4.68,4.16-7.24,11.64-7.2v-.4c0-1.56-.44-4.48-4.4-4.44a9.33,9.33,0,0,0-5.08,1.44l-.8-2.36a12.54,12.54,0,0,1,6.4-1.68c5.92,0,7.35,4,7.35,7.88Zm-3.39-5.24c-3.84-.08-8.2.6-8.2,4.36a3.08,3.08,0,0,0,3.28,3.36A4.89,4.89,0,0,0,241,320a4,4,0,0,0,.16-1.12Z"/>
  <path id="Trazado_309" data-name="Trazado 309" d="M245.44,331a5.46,5.46,0,0,0,3.84-1.52c1-1.08,1.36-2.6,1.36-7.23V306h3.52v17.64c0,3.76-.6,6.19-2.32,8a8.93,8.93,0,0,1-6,2.2Zm9.12-30.47a2.18,2.18,0,0,1-4.36,0,2.14,2.14,0,0,1,2.2-2.2,2.11,2.11,0,0,1,2.16,2.24Z"/>
  <path id="Trazado_310" data-name="Trazado 310" d="M261.88,316.33c.08,4.76,3.08,6.72,6.64,6.72a12.57,12.57,0,0,0,5.35-1l.64,2.52A15.789,15.789,0,0,1,268,325.8c-6,0-9.52-3.95-9.52-9.79s3.44-10.4,9.08-10.4c6.35,0,8,5.52,8,9.08a8.58,8.58,0,0,1-.12,1.64Zm10.31-2.52c0-2.2-.92-5.68-4.87-5.68-3.6,0-5.12,3.24-5.4,5.68Z"/>
  <path id="Trazado_311" data-name="Trazado 311" d="M277.2,330.32a59,59,0,0,0,2.4-9.59l3.92-.4a50.729,50.729,0,0,1-3.84,9.71Z"/>
  <path id="Trazado_312" data-name="Trazado 312" d="M346.33,322.53c0,4.47-.92,7.15-2.76,8.87a10.64,10.64,0,0,1-7.08,2.32,12.5,12.5,0,0,1-6.44-1.6l.88-2.72a10.54,10.54,0,0,0,5.68,1.56c3.6,0,6.24-1.88,6.24-6.79v-2.12h-.08a6.86,6.86,0,0,1-6.16,3.24c-4.8,0-8.24-4.08-8.24-9.44,0-6.56,4.28-10.24,8.76-10.24a6.46,6.46,0,0,1,6,3.32h.08l.12-2.92h3.12c-.12,1.36-.16,3-.16,5.28Zm-3.52-8.88a4.621,4.621,0,0,0-.2-1.56,5,5,0,0,0-4.92-3.76c-3.36,0-5.76,2.84-5.76,7.32,0,3.8,2,7,5.72,7a5.07,5.07,0,0,0,4.88-3.6,6.12,6.12,0,0,0,.28-1.88Z"/>
  <path id="Trazado_313" data-name="Trazado 313" d="M354.09,316.33c.08,4.76,3.08,6.72,6.64,6.72a12.59,12.59,0,0,0,5.36-1l.64,2.52a15.8,15.8,0,0,1-6.48,1.23c-6,0-9.52-3.95-9.52-9.79s3.44-10.4,9.08-10.4c6.36,0,8,5.52,8,9.08a8.583,8.583,0,0,1-.12,1.64Zm10.32-2.52c0-2.2-.92-5.68-4.88-5.68-3.6,0-5.12,3.24-5.4,5.68Z"/>
  <path id="Trazado_314" data-name="Trazado 314" d="M372.17,311.25c0-2,0-3.64-.16-5.24h3.12l.2,3.2h.08a7.17,7.17,0,0,1,6.4-3.6c2.68,0,6.84,1.6,6.84,8.24v11.52h-3.52V314.21c0-3.12-1.16-5.72-4.48-5.72a5.16,5.16,0,0,0-5,5.24v11.64h-3.52Z"/>
  <path id="Trazado_315" data-name="Trazado 315" d="M396.33,316.33c.08,4.76,3.08,6.72,6.64,6.72a12.59,12.59,0,0,0,5.36-1l.64,2.52a15.8,15.8,0,0,1-6.48,1.23c-6,0-9.52-3.95-9.52-9.79s3.44-10.4,9.08-10.4c6.36,0,8,5.52,8,9.08a8.58,8.58,0,0,1-.12,1.64Zm10.32-2.52c0-2.2-.92-5.68-4.88-5.68-3.6,0-5.12,3.24-5.4,5.68Z"/>
  <path id="Trazado_316" data-name="Trazado 316" d="M414.41,312.05c0-2.28,0-4.24-.16-6h3.08l.16,3.84h.12a5.85,5.85,0,0,1,5.4-4.24,7.171,7.171,0,0,1,1,.08V309a5.48,5.48,0,0,0-1.2-.08c-2.48,0-4.24,1.84-4.72,4.48a10.525,10.525,0,0,0-.12,1.64v10.32h-3.52Z"/>
  <path id="Trazado_317" data-name="Trazado 317" d="M440.89,320.73a32.474,32.474,0,0,0,.28,4.64H438l-.28-2.44h-.12a7.2,7.2,0,0,1-5.92,2.87,5.51,5.51,0,0,1-5.92-5.55c0-4.68,4.16-7.24,11.64-7.2v-.4c0-1.56-.44-4.48-4.4-4.44a9.33,9.33,0,0,0-5.08,1.44l-.8-2.36a12.54,12.54,0,0,1,6.4-1.68c5.92,0,7.36,4,7.36,7.88Zm-3.4-5.24c-3.84-.08-8.2.6-8.2,4.36a3.08,3.08,0,0,0,3.28,3.36,4.89,4.89,0,0,0,4.76-3.24,4,4,0,0,0,.16-1.12Zm1.76-17.84-4.88,5.72h-2.48l3.48-5.72Z"/>
  <path id="Trazado_318" data-name="Trazado 318" d="M446.57,311.25c0-2,0-3.64-.16-5.24h3.12l.2,3.2h.08a7.17,7.17,0,0,1,6.4-3.6c2.68,0,6.84,1.6,6.84,8.24v11.52h-3.52V314.21c0-3.12-1.16-5.72-4.48-5.72a5.16,5.16,0,0,0-5,5.24v11.64h-3.52Z"/>
  <path id="Trazado_319" data-name="Trazado 319" d="M485.45,297v23.4c0,1.72.08,3.68.16,5h-3.12l-.16-3.36h-.12a7,7,0,0,1-6.52,3.79c-4.68,0-8.32-3.95-8.32-9.83,0-6.44,4-10.36,8.68-10.36a6.49,6.49,0,0,1,5.84,2.92H482V297ZM482,313.89a6.209,6.209,0,0,0-.16-1.48,5.18,5.18,0,0,0-5.08-4c-3.64,0-5.8,3.2-5.8,7.44,0,3.92,2,7.16,5.72,7.16a5.33,5.33,0,0,0,5.16-4.2,6.111,6.111,0,0,0,.16-1.52Z"/>
  <path id="Trazado_320" data-name="Trazado 320" d="M508.85,315.53c0,7.16-5,10.27-9.64,10.27-5.2,0-9.28-3.83-9.28-9.95,0-6.44,4.28-10.24,9.6-10.24C505.09,305.61,508.85,309.65,508.85,315.53Zm-15.32.2c0,4.24,2.4,7.44,5.84,7.44s5.88-3.16,5.88-7.52c0-3.28-1.64-7.4-5.8-7.4S493.53,312.09,493.53,315.73Z"/>
  <path id="Trazado_321" data-name="Trazado 321" d="M513.29,297h3.52v28.4h-3.52Z"/>
  <path id="Trazado_322" data-name="Trazado 322" d="M524.69,316.33c.08,4.76,3.08,6.72,6.64,6.72a12.59,12.59,0,0,0,5.36-1l.64,2.52a15.8,15.8,0,0,1-6.48,1.23c-6,0-9.52-3.95-9.52-9.79s3.44-10.4,9.08-10.4c6.36,0,8,5.52,8,9.08a8.578,8.578,0,0,1-.12,1.64ZM535,313.81c0-2.2-.92-5.68-4.88-5.68-3.6,0-5.12,3.24-5.4,5.68Z"/>
  <path id="Trazado_323" data-name="Trazado 323" d="M584.3,321.81a9.94,9.94,0,0,0,4.68,1.36c2.52,0,3.72-1.24,3.72-2.88s-1-2.56-3.56-3.52c-3.52-1.28-5.16-3.16-5.16-5.48,0-3.12,2.56-5.68,6.68-5.68a9,9,0,0,1,4.72,1.2l-.84,2.56a7.5,7.5,0,0,0-4-1.16c-2.08,0-3.2,1.2-3.2,2.64,0,1.6,1.12,2.32,3.64,3.32,3.32,1.24,5.08,2.92,5.08,5.8,0,3.44-2.68,5.83-7.2,5.83a11,11,0,0,1-5.44-1.35Z"/>
  <path id="Trazado_324" data-name="Trazado 324" d="M602.58,316.33c.08,4.76,3.08,6.72,6.64,6.72a12.59,12.59,0,0,0,5.36-1l.64,2.52a15.8,15.8,0,0,1-6.48,1.23c-6,0-9.52-3.95-9.52-9.79s3.44-10.4,9.08-10.4c6.36,0,8,5.52,8,9.08a8.583,8.583,0,0,1-.12,1.64Zm10.32-2.52c0-2.2-.92-5.68-4.88-5.68-3.6,0-5.12,3.24-5.4,5.68Z"/>
  <path id="Trazado_325" data-name="Trazado 325" d="M637.22,322.53c0,4.47-.92,7.15-2.76,8.87a10.64,10.64,0,0,1-7.08,2.32,12.5,12.5,0,0,1-6.44-1.6l.88-2.72a10.54,10.54,0,0,0,5.68,1.6c3.6,0,6.24-1.88,6.24-6.79v-2.12h-.08a6.86,6.86,0,0,1-6.16,3.24c-4.8,0-8.24-4.08-8.24-9.44,0-6.56,4.28-10.24,8.76-10.24a6.46,6.46,0,0,1,6,3.32h.08l.12-2.92h3.12c-.12,1.36-.16,3-.16,5.28Zm-3.52-8.88a4.619,4.619,0,0,0-.2-1.56,5,5,0,0,0-4.92-3.76c-3.36,0-5.76,2.84-5.76,7.32,0,3.8,2,7,5.72,7a5.07,5.07,0,0,0,4.88-3.6,6.119,6.119,0,0,0,.28-1.88Z"/>
  <path id="Trazado_326" data-name="Trazado 326" d="M659.22,320.05c0,2,0,3.8.16,5.32h-3.12l-.2-3.16H656a7.23,7.23,0,0,1-6.4,3.59c-3,0-6.68-1.72-6.68-8.47V306h3.52v10.68c0,3.68,1.16,6.2,4.32,6.2a5.06,5.06,0,0,0,4.64-3.24,4.829,4.829,0,0,0,.32-1.8V306h3.52Z"/>
  <path id="Trazado_327" data-name="Trazado 327" d="M665.06,312.05c0-2.28,0-4.24-.16-6H668l.16,3.84h.12a5.85,5.85,0,0,1,5.4-4.24,7.171,7.171,0,0,1,1,.08V309a5.481,5.481,0,0,0-1.2-.08c-2.48,0-4.24,1.84-4.72,4.48a10.529,10.529,0,0,0-.12,1.64v10.32h-3.52Z"/>
  <path id="Trazado_328" data-name="Trazado 328" d="M682.22,300.57a2.1,2.1,0,0,1-2.24,2.16,2.07,2.07,0,0,1-2.12-2.16,2.14,2.14,0,0,1,2.2-2.2,2.11,2.11,0,0,1,2.16,2.2Zm-3.92,24.8V306h3.52v19.36Z"/>
  <path id="Trazado_329" data-name="Trazado 329" d="M704.34,297v23.4c0,1.72.08,3.68.16,5h-3.12l-.16-3.36h-.12a7,7,0,0,1-6.52,3.79c-4.68,0-8.32-3.95-8.32-9.83,0-6.44,4-10.36,8.68-10.36a6.49,6.49,0,0,1,5.84,2.92h.08V297Zm-3.48,16.92a6.209,6.209,0,0,0-.16-1.48,5.18,5.18,0,0,0-5.08-4c-3.64,0-5.8,3.2-5.8,7.44,0,3.92,2,7.16,5.72,7.16a5.33,5.33,0,0,0,5.16-4.2,6.109,6.109,0,0,0,.16-1.52Z"/>
  <path id="Trazado_330" data-name="Trazado 330" d="M723.82,320.73a32.483,32.483,0,0,0,.28,4.64h-3.16l-.28-2.44h-.12a7.2,7.2,0,0,1-5.92,2.87,5.51,5.51,0,0,1-5.92-5.55c0-4.68,4.16-7.24,11.64-7.2v-.4c0-1.56-.44-4.48-4.4-4.44a9.33,9.33,0,0,0-5.08,1.44l-.8-2.36a12.54,12.54,0,0,1,6.4-1.68c5.92,0,7.36,4,7.36,7.88Zm-3.4-5.24c-3.84-.08-8.2.6-8.2,4.36a3.08,3.08,0,0,0,3.28,3.36,4.89,4.89,0,0,0,4.76-3.24,4,4,0,0,0,.16-1.12Z"/>
  <path id="Trazado_331" data-name="Trazado 331" d="M746.18,297v23.4c0,1.72.08,3.68.16,5h-3.12l-.16-3.36h-.12a7,7,0,0,1-6.52,3.79c-4.68,0-8.32-3.95-8.32-9.83,0-6.44,4-10.36,8.68-10.36a6.49,6.49,0,0,1,5.84,2.92h.08V297Zm-3.48,16.92a6.209,6.209,0,0,0-.16-1.48,5.18,5.18,0,0,0-5.08-4c-3.64,0-5.8,3.2-5.8,7.44,0,3.92,2,7.16,5.72,7.16a5.33,5.33,0,0,0,5.16-4.2,6.112,6.112,0,0,0,.16-1.52Z"/>
  <path id="Trazado_332" data-name="Trazado 332" d="M795.36,306l4.2,11.44a35.416,35.416,0,0,1,1.28,4h.08c.36-1.16.76-2.64,1.24-4L806,306h3.72l-5.28,13.8c-2.52,6.64-4.24,10-6.64,12.11a10,10,0,0,1-4.32,2.24l-.88-2.92a9.31,9.31,0,0,0,3.08-1.72,11.071,11.071,0,0,0,3-3.91,2.6,2.6,0,0,0,.28-.84,2.441,2.441,0,0,0-.28-.92L791.52,306Z"/>
  <path id="Trazado_333" data-name="Trazado 333" d="M98.72,372.69a13.65,13.65,0,0,1-5.56,1.11c-5.84,0-9.64-3.95-9.64-9.87s4.08-10.32,10.4-10.32a11.08,11.08,0,0,1,4.88,1l-.8,2.68a8.62,8.62,0,0,0-4.08-.92c-4.44,0-6.84,3.32-6.84,7.32,0,4.48,2.88,7.24,6.72,7.24a10.081,10.081,0,0,0,4.32-.92Z"/>
  <path id="Trazado_334" data-name="Trazado 334" d="M120.12,363.53c0,7.16-5,10.27-9.64,10.27-5.2,0-9.28-3.83-9.28-9.95,0-6.44,4.28-10.24,9.6-10.24C116.36,353.61,120.12,357.65,120.12,363.53Zm-15.32.2c0,4.24,2.4,7.44,5.84,7.44s5.88-3.16,5.88-7.52c0-3.28-1.64-7.4-5.8-7.4S104.8,360.09,104.8,363.73Z"/>
  <path id="Trazado_335" data-name="Trazado 335" d="M124.56,359.25c0-2,0-3.64-.16-5.24h3.12l.2,3.2h.08a7.17,7.17,0,0,1,6.4-3.6c2.68,0,6.84,1.6,6.84,8.24v11.52h-3.52V362.21c0-3.12-1.16-5.72-4.48-5.72a5.16,5.16,0,0,0-5,5.24v11.64h-3.52Z"/>
  <path id="Trazado_336" data-name="Trazado 336" d="M147.12,373.37V356.69h-2.68V354h2.68v-1.08c0-5.08,3-8.4,8.44-8.4a9.69,9.69,0,0,1,4.92,1.28l-1,2.68a7.5,7.5,0,0,0-4.08-1.12c-3.72,0-4.8,2.6-4.8,5.68v1h11.24V373.4h-3.52V356.69H150.6v16.68Z"/>
  <path id="Trazado_337" data-name="Trazado 337" d="M181.28,368.73a32.479,32.479,0,0,0,.28,4.64H178.4l-.28-2.44H178a7.2,7.2,0,0,1-5.92,2.87,5.51,5.51,0,0,1-5.92-5.55c0-4.68,4.16-7.24,11.64-7.2v-.4c0-1.56-.44-4.48-4.4-4.44a9.33,9.33,0,0,0-5.08,1.44l-.8-2.36a12.54,12.54,0,0,1,6.4-1.68c5.92,0,7.36,4,7.36,7.88Zm-3.4-5.24c-3.84-.08-8.2.6-8.2,4.36a3.08,3.08,0,0,0,3.28,3.36,4.89,4.89,0,0,0,4.76-3.24,4,4,0,0,0,.16-1.12Z"/>
  <path id="Trazado_338" data-name="Trazado 338" d="M187,359.25c0-2,0-3.64-.16-5.24h3.12l.2,3.2h.08a7.17,7.17,0,0,1,6.4-3.6c2.68,0,6.84,1.6,6.84,8.24v11.52h-3.52V362.21c0-3.12-1.16-5.72-4.48-5.72a5.16,5.16,0,0,0-5,5.24v11.64H187Z"/>
  <path id="Trazado_339" data-name="Trazado 339" d="M207,371.33l8.72-11.4c.88-1.08,1.68-2,2.56-3v-.08H207.76V354h14.72v2.2l-8.64,11.24a38.054,38.054,0,0,1-2.48,3v.08h11.28v2.8H207Z"/>
  <path id="Trazado_340" data-name="Trazado 340" d="M239.88,368.73a32.479,32.479,0,0,0,.28,4.64H237l-.28-2.44h-.12a7.2,7.2,0,0,1-5.92,2.87,5.51,5.51,0,0,1-5.92-5.55c0-4.68,4.16-7.24,11.64-7.2v-.4c0-1.56-.44-4.48-4.4-4.44a9.33,9.33,0,0,0-5.08,1.44l-.8-2.36a12.54,12.54,0,0,1,6.4-1.68c5.92,0,7.36,4,7.36,7.88Zm-3.4-5.24c-3.84-.08-8.2.6-8.2,4.36a3.08,3.08,0,0,0,3.28,3.36,4.89,4.89,0,0,0,4.76-3.24,4,4,0,0,0,.16-1.12Z"/>
  <path id="Trazado_341" data-name="Trazado 341" d="M278.36,360.33c0-2.48-.08-4.48-.16-6.32h3.12l.2,3.32h.08a7.54,7.54,0,0,1,6.88-3.72c4.72,0,8.24,4,8.24,9.8,0,7-4.28,10.39-8.84,10.39a6.78,6.78,0,0,1-6-3h-.08v10.51h-3.48Zm3.48,5.16a5.43,5.43,0,0,0,5.44,5.56c3.72,0,5.88-3,5.88-7.48,0-3.84-2-7.16-5.76-7.16a5.54,5.54,0,0,0-5.32,4.32,5.711,5.711,0,0,0-.24,1.4Z"/>
  <path id="Trazado_342" data-name="Trazado 342" d="M314.72,368.73a32.487,32.487,0,0,0,.28,4.64h-3.16l-.28-2.44h-.12a7.2,7.2,0,0,1-5.92,2.87,5.51,5.51,0,0,1-5.92-5.55c0-4.68,4.16-7.24,11.64-7.2v-.4c0-1.56-.44-4.48-4.4-4.44a9.33,9.33,0,0,0-5.08,1.44l-.8-2.36a12.54,12.54,0,0,1,6.4-1.68c5.92,0,7.36,4,7.36,7.88Zm-3.4-5.24c-3.84-.08-8.2.6-8.2,4.36a3.08,3.08,0,0,0,3.28,3.36,4.89,4.89,0,0,0,4.76-3.24,4,4,0,0,0,.16-1.12Z"/>
  <path id="Trazado_343" data-name="Trazado 343" d="M320.4,360.05c0-2.28,0-4.24-.16-6h3.08l.16,3.84h.12a5.85,5.85,0,0,1,5.4-4.24,7.166,7.166,0,0,1,1,.08V357a5.483,5.483,0,0,0-1.2-.08c-2.48,0-4.24,1.84-4.72,4.48a10.525,10.525,0,0,0-.12,1.64v10.32H320.4Z"/>
  <path id="Trazado_344" data-name="Trazado 344" d="M346.88,368.73a32.483,32.483,0,0,0,.28,4.64H344l-.28-2.44h-.12a7.2,7.2,0,0,1-5.92,2.87,5.51,5.51,0,0,1-5.92-5.55c0-4.68,4.16-7.24,11.64-7.2v-.4c0-1.56-.44-4.48-4.4-4.44a9.33,9.33,0,0,0-5.08,1.44l-.8-2.36a12.54,12.54,0,0,1,6.4-1.68c5.92,0,7.36,4,7.36,7.88Zm-3.4-5.24c-3.84-.08-8.2.6-8.2,4.36a3.08,3.08,0,0,0,3.28,3.36,4.89,4.89,0,0,0,4.76-3.24,4,4,0,0,0,.16-1.12Z"/>
  <path id="Trazado_345" data-name="Trazado 345" d="M399.16,372.69a13.649,13.649,0,0,1-5.56,1.11c-5.84,0-9.64-3.95-9.64-9.87s4.08-10.32,10.4-10.32a11.08,11.08,0,0,1,4.88,1l-.8,2.68a8.62,8.62,0,0,0-4.08-.92c-4.44,0-6.84,3.32-6.84,7.32,0,4.48,2.88,7.24,6.72,7.24a10.081,10.081,0,0,0,4.32-.92Z"/>
  <path id="Trazado_346" data-name="Trazado 346" d="M419.47,368.05c0,2,0,3.8.16,5.32h-3.11l-.2-3.16h-.08a7.23,7.23,0,0,1-6.4,3.59c-3,0-6.68-1.72-6.68-8.47V354h3.52v10.68c0,3.68,1.16,6.2,4.32,6.2a5.06,5.06,0,0,0,4.64-3.24,4.83,4.83,0,0,0,.32-1.8V354h3.51Z"/>
  <path id="Trazado_347" data-name="Trazado 347" d="M425.32,345h3.52v28.4h-3.52Z"/>
  <path id="Trazado_348" data-name="Trazado 348" d="M434.76,359.25c0-2-.08-3.64-.16-5.24h3.08l.16,3.16H438a6.69,6.69,0,0,1,6.11-3.56,5.71,5.71,0,0,1,5.44,3.88h.08a7.64,7.64,0,0,1,2.2-2.52,6.49,6.49,0,0,1,4.24-1.36c2.6,0,6.4,1.68,6.4,8.4v11.36H459V362.45c0-3.76-1.4-6-4.2-6a4.62,4.62,0,0,0-4.2,3.16,6,6,0,0,0-.28,1.76v12h-3.44v-11.6c0-3.08-1.36-5.28-4-5.28a4.85,4.85,0,0,0-4.35,3.52,4.709,4.709,0,0,0-.28,1.72v11.64h-3.44Z"/>
  <path id="Trazado_349" data-name="Trazado 349" d="M472,348.57a2.1,2.1,0,0,1-2.24,2.16,2.07,2.07,0,0,1-2.12-2.16,2.14,2.14,0,0,1,2.2-2.2,2.11,2.11,0,0,1,2.16,2.2Zm-3.92,24.8V354h3.52v19.36Z"/>
  <path id="Trazado_350" data-name="Trazado 350" d="M477.48,359.25c0-2,0-3.64-.16-5.24h3.12l.2,3.2h.08a7.16,7.16,0,0,1,6.39-3.6c2.68,0,6.84,1.6,6.84,8.24v11.52h-3.52V362.21c0-3.12-1.16-5.72-4.48-5.72a5.16,5.16,0,0,0-4.95,5.24v11.64h-3.52Z"/>
  <path id="Trazado_351" data-name="Trazado 351" d="M513.27,368.73a32.483,32.483,0,0,0,.28,4.64h-3.16l-.28-2.44H510a7.2,7.2,0,0,1-5.91,2.87,5.51,5.51,0,0,1-5.92-5.55c0-4.68,4.16-7.24,11.63-7.2v-.4c0-1.56-.44-4.48-4.39-4.44a9.33,9.33,0,0,0-5.08,1.44l-.8-2.36a12.54,12.54,0,0,1,6.4-1.68c5.91,0,7.35,4,7.35,7.88Zm-3.4-5.24c-3.84-.08-8.19.6-8.19,4.36a3.08,3.08,0,0,0,3.28,3.36,4.88,4.88,0,0,0,4.75-3.24,4,4,0,0,0,.16-1.12Z"/>
  <path id="Trazado_352" data-name="Trazado 352" d="M519,360.05c0-2.28,0-4.24-.16-6h3.08l.16,3.84h.12a5.84,5.84,0,0,1,5.39-4.24,7.171,7.171,0,0,1,1,.08V357a5.483,5.483,0,0,0-1.2-.08c-2.48,0-4.23,1.84-4.71,4.48a10.529,10.529,0,0,0-.12,1.64v10.32H519Z"/>
  <path id="Trazado_353" data-name="Trazado 353" d="M578.63,372.69a13.649,13.649,0,0,1-5.56,1.11c-5.83,0-9.63-3.95-9.63-9.87s4.08-10.32,10.39-10.32a11.08,11.08,0,0,1,4.88,1l-.8,2.68a8.62,8.62,0,0,0-4.08-.92c-4.43,0-6.83,3.32-6.83,7.32,0,4.48,2.88,7.24,6.71,7.24a10.08,10.08,0,0,0,4.32-.92Z"/>
  <path id="Trazado_354" data-name="Trazado 354" d="M600,363.53c0,7.16-5,10.27-9.63,10.27-5.2,0-9.28-3.83-9.28-9.95,0-6.44,4.28-10.24,9.59-10.24C596.27,353.61,600,357.65,600,363.53Zm-15.31.2c0,4.24,2.4,7.44,5.83,7.44s5.88-3.16,5.88-7.52c0-3.28-1.64-7.4-5.8-7.4s-5.88,3.84-5.88,7.48Z"/>
  <path id="Trazado_355" data-name="Trazado 355" d="M604.48,359.25c0-2,0-3.64-.16-5.24h3.12l.2,3.2h.08a7.16,7.16,0,0,1,6.39-3.6c2.68,0,6.84,1.6,6.84,8.24v11.52h-3.52V362.21c0-3.12-1.16-5.72-4.48-5.72a5.16,5.16,0,0,0-5,5.24v11.64h-3.52Z"/>
  <path id="Trazado_356" data-name="Trazado 356" d="M661.44,364.33c.08,4.76,3.08,6.72,6.64,6.72a12.569,12.569,0,0,0,5.35-1l.64,2.52a15.789,15.789,0,0,1-6.47,1.23c-6,0-9.52-3.95-9.52-9.79s3.44-10.4,9.08-10.4c6.35,0,8,5.52,8,9.08a8.588,8.588,0,0,1-.12,1.64Zm10.31-2.52c0-2.2-.92-5.68-4.87-5.68-3.6,0-5.12,3.24-5.4,5.68Zm.8-16.16-4.87,5.72H665.2l3.51-5.72Z"/>
  <path id="Trazado_357" data-name="Trazado 357" d="M681,354l2.76,4.16c.76,1.08,1.36,2,2,3.12h.08c.64-1.12,1.28-2.12,2-3.16l2.68-4.12h3.84l-6.59,9.36,6.75,10h-4L687.68,369c-.76-1.12-1.4-2.2-2.08-3.36h-.08c-.64,1.16-1.28,2.2-2,3.36l-2.8,4.36H676.8l6.88-9.88L677.12,354Z"/>
  <path id="Trazado_358" data-name="Trazado 358" d="M701.84,348.57a2.1,2.1,0,0,1-2.24,2.16,2.07,2.07,0,0,1-2.12-2.16,2.14,2.14,0,0,1,2.2-2.2,2.11,2.11,0,0,1,2.16,2.2Zm-3.92,24.8V354h3.52v19.36Z"/>
  <path id="Trazado_359" data-name="Trazado 359" d="M711.52,349.37V354h5v2.68h-5v10.44c0,2.4.68,3.76,2.64,3.76a6.5,6.5,0,0,0,2-.24l.16,2.68a9.569,9.569,0,0,1-3.11.47,5,5,0,0,1-3.8-1.47c-1-1.08-1.36-2.8-1.36-5.08V356.69h-3V354h3v-3.6Z"/>
  <path id="Trazado_360" data-name="Trazado 360" d="M737.79,363.53c0,7.16-5,10.27-9.63,10.27-5.2,0-9.28-3.83-9.28-9.95,0-6.44,4.28-10.24,9.6-10.24C734,353.61,737.79,357.65,737.79,363.53Zm-15.31.2c0,4.24,2.4,7.44,5.83,7.44s5.88-3.16,5.88-7.52c0-3.28-1.64-7.4-5.79-7.4S722.48,360.09,722.48,363.73Z"/>
  <path id="Trazado_361" data-name="Trazado 361" d="M774.56,369.81a9.94,9.94,0,0,0,4.68,1.36c2.52,0,3.72-1.24,3.72-2.88s-1-2.56-3.56-3.52c-3.52-1.28-5.16-3.16-5.16-5.48,0-3.12,2.56-5.68,6.68-5.68a8.92,8.92,0,0,1,4.71,1.2l-.84,2.56a7.43,7.43,0,0,0-3.95-1.16c-2.08,0-3.2,1.2-3.2,2.64,0,1.6,1.12,2.32,3.64,3.32,3.32,1.24,5.07,2.92,5.07,5.8,0,3.44-2.67,5.83-7.19,5.83a11,11,0,0,1-5.44-1.35Z"/>
  <path id="Trazado_362" data-name="Trazado 362" d="M807.07,368.05c0,2,0,3.8.16,5.32h-3.12l-.2-3.16h-.08a7.21,7.21,0,0,1-6.39,3.59c-3,0-6.68-1.72-6.68-8.47V354h3.52v10.68c0,3.68,1.16,6.2,4.32,6.2a5,5,0,0,0,4.63-3.24,4.83,4.83,0,0,0,.32-1.8V354h3.52Z"/>
  <path id="Trazado_363" data-name="Trazado 363" d="M85.28,421.37V404.69H82.6V402h2.68v-.92c0-2.72.64-5.2,2.24-6.76a6.74,6.74,0,0,1,4.72-1.8,8,8,0,0,1,3,.56l-.48,2.72a5.12,5.12,0,0,0-2.24-.44c-3,0-3.76,2.6-3.76,5.6v1h4.68v2.68H88.76v16.68Z"/>
  <path id="Trazado_364" data-name="Trazado 364" d="M113.6,411.53c0,7.16-5,10.27-9.64,10.27-5.2,0-9.28-3.83-9.28-9.95,0-6.44,4.28-10.24,9.6-10.24C109.84,401.61,113.6,405.65,113.6,411.53Zm-15.32.2c0,4.24,2.4,7.44,5.84,7.44S110,416,110,411.65c0-3.28-1.64-7.4-5.8-7.4S98.28,408.09,98.28,411.73Z"/>
  <path id="Trazado_365" data-name="Trazado 365" d="M118,408.05c0-2.28,0-4.24-.16-6H121l.16,3.84h.12a5.85,5.85,0,0,1,5.4-4.24,7.17,7.17,0,0,1,1,.08V405a5.482,5.482,0,0,0-1.2-.08c-2.48,0-4.24,1.84-4.72,4.48a10.529,10.529,0,0,0-.12,1.64v10.32H118Z"/>
  <path id="Trazado_366" data-name="Trazado 366" d="M131.28,407.25c0-2-.08-3.64-.16-5.24h3.08l.16,3.16h.12a6.69,6.69,0,0,1,6.12-3.56,5.71,5.71,0,0,1,5.44,3.88h.08a7.64,7.64,0,0,1,2.2-2.52,6.49,6.49,0,0,1,4.24-1.36c2.6,0,6.4,1.68,6.4,8.4v11.36h-3.44V410.45c0-3.76-1.4-6-4.2-6a4.62,4.62,0,0,0-4.2,3.16,6,6,0,0,0-.28,1.76v12H143.4v-11.6c0-3.08-1.36-5.28-4-5.28A4.85,4.85,0,0,0,135,408a4.71,4.71,0,0,0-.28,1.72v11.64h-3.44Z"/>
  <path id="Trazado_367" data-name="Trazado 367" d="M178.24,416.73a32.476,32.476,0,0,0,.28,4.64h-3.16l-.28-2.44H175a7.2,7.2,0,0,1-6,2.87,5.51,5.51,0,0,1-5.92-5.55c0-4.68,4.16-7.24,11.64-7.2v-.4c0-1.56-.44-4.48-4.4-4.44a9.33,9.33,0,0,0-5.08,1.44l-.8-2.36a12.54,12.54,0,0,1,6.4-1.68c5.92,0,7.36,4,7.36,7.88Zm-3.4-5.24c-3.84-.08-8.2.6-8.2,4.36a3.08,3.08,0,0,0,3.28,3.36,4.89,4.89,0,0,0,4.76-3.24,4,4,0,0,0,.16-1.12Z"/>
  <path id="Trazado_368" data-name="Trazado 368" d="M197.72,420.69a13.649,13.649,0,0,1-5.56,1.11c-5.84,0-9.64-3.95-9.64-9.87s4.08-10.32,10.4-10.32a11.079,11.079,0,0,1,4.88,1l-.8,2.68a8.621,8.621,0,0,0-4.08-.92c-4.44,0-6.84,3.32-6.84,7.32,0,4.48,2.88,7.24,6.72,7.24a10.08,10.08,0,0,0,4.32-.92Z"/>
  <path id="Trazado_369" data-name="Trazado 369" d="M205.76,396.57a2.1,2.1,0,0,1-2.24,2.16,2.07,2.07,0,0,1-2.12-2.16,2.14,2.14,0,0,1,2.2-2.2,2.11,2.11,0,0,1,2.16,2.2Zm-3.92,24.8V402h3.52v19.36Z"/>
  <path id="Trazado_370" data-name="Trazado 370" d="M228.72,411.53c0,7.16-5,10.27-9.64,10.27-5.2,0-9.28-3.83-9.28-9.95,0-6.44,4.28-10.24,9.6-10.24C225,401.61,228.72,405.65,228.72,411.53Zm-15.32.2c0,4.24,2.4,7.44,5.84,7.44s5.88-3.16,5.88-7.52c0-3.28-1.64-7.4-5.8-7.4S213.4,408.09,213.4,411.73Zm11.12-18.08-4.88,5.72h-2.48l3.48-5.72Z"/>
  <path id="Trazado_371" data-name="Trazado 371" d="M233.16,407.25c0-2,0-3.64-.16-5.24h3.12l.2,3.2h.08a7.17,7.17,0,0,1,6.4-3.6c2.68,0,6.84,1.6,6.84,8.24v11.52h-3.52V410.21c0-3.12-1.16-5.72-4.48-5.72a5.16,5.16,0,0,0-5,5.24v11.64h-3.52Z"/>
</svg>
