<svg xmlns="http://www.w3.org/2000/svg" width="353" height="352.29" viewBox="0 0 353 352.29">
  <g id="Imagen_No_11_Lineamientos_institucionales_SENA_para_la_formación_virtual" data-name="Imagen No 11 Lineamientos institucionales (SENA) para la formación virtual" transform="translate(0 0)">
    <path id="Trazado_1" data-name="Trazado 1" d="M364.32,368.25H18.47a3.57,3.57,0,0,1-3.58-3.57h0a3.58,3.58,0,0,1,3.58-3.58H364.32a3.57,3.57,0,0,1,3.57,3.58h0a3.57,3.57,0,0,1-3.57,3.57Z" transform="translate(-14.89 -15.96)" fill="#272c6a" opacity="0.5"/>
    <rect id="Rectángulo_1" data-name="Rectángulo 1" width="84.32" height="160.22" transform="translate(184.07 345.44) rotate(180)" fill="#844a47"/>
    <rect id="Rectángulo_2" data-name="Rectángulo 2" width="76.43" height="160.22" transform="translate(23.33 185.23)" fill="#d68b4c"/>
    <rect id="Rectángulo_3" data-name="Rectángulo 3" width="76.43" height="14.04" transform="translate(23.33 185.23)" fill="#b46a4f"/>
    <path id="Trazado_2" data-name="Trazado 2" d="M318.71,345.45H184.31v-8.29l67.75-9.95,66.65,9.95Z" fill="#314051"/>
    <path id="Trazado_3" data-name="Trazado 3" d="M182.14,247.68l53.58,1.45,15.34-92.88,80.77-12.47A19.73,19.73,0,0,1,354,168.1l-4.55,18.09L340,264.84c-1.8,15-15.59,27-30.56,26.65l-144-3.33L163.8,266.6C163.06,256.61,172,247.41,182.14,247.68Z" transform="translate(-14.89 -15.96)" fill="#816dd8"/>
    <path id="Trazado_4" data-name="Trazado 4" d="M235.72,249.13l14.44-87.68,74-7.17c-15.12,25-13.93,63.94-8.19,106.79l-78.48-5.29-55.32-8.1Z" transform="translate(-14.89 -15.96)" fill="#4a4a7c"/>
    <rect id="Rectángulo_4" data-name="Rectángulo 4" width="26.97" height="15.79" transform="translate(158.29 329.567) rotate(-89.34)" fill="#92bdb4"/>
    <rect id="Rectángulo_5" data-name="Rectángulo 5" width="15.79" height="28.53" transform="matrix(0.994, -0.113, 0.113, 0.994, 200.486, 306.188)" fill="#92bdb4"/>
    <path id="Trazado_5" data-name="Trazado 5" d="M279.25,251.35l-6.08-.07-6.91-.06h-8.83c-3.2,0-6.64.1-10.12.32-1.77.07-3.48.26-5.27.4a41.978,41.978,0,0,0-5.1.74,27.67,27.67,0,0,0-8.28,2.67,3.641,3.641,0,0,0-.7.44c-.21.15-.43.29-.66.43a5.036,5.036,0,0,0-.53.49,2.25,2.25,0,0,0-.52.5,6.628,6.628,0,0,0-.9,1.16c-.14.23-.3.43-.44.65l-.36.81a24.57,24.57,0,0,0-1.82,8.91c-.15,1.72,0,3.63,0,5.46.06.94.12,1.89.18,2.82l.09,1.41a13.708,13.708,0,0,0,.16,1.42c.1.95.2,1.88.31,2.81s.26,1.88.39,2.8.27,1.84.4,2.74.33,1.82.48,2.71c.6,3.55,1.35,6.95,2,10.09s1.35,6,2,8.57,1.18,4.79,1.68,6.63c1,3.68,1.53,5.78,1.53,5.78v.13a9.69,9.69,0,0,1-18.62,5.34l-1.82-5.9c-.6-1.87-1.26-4.18-2-6.82s-1.59-5.66-2.49-8.94-1.8-6.91-2.63-10.82l-.66-3c-.22-1-.39-2-.59-3.09s-.41-2.08-.58-3.17l-.5-3.29c-.09-.56-.17-1.11-.25-1.67s-.13-1.15-.2-1.73c-.12-1.16-.24-2.33-.37-3.5-.12-2.44-.34-4.85-.26-7.47a46.62,46.62,0,0,1,3-16.87l.94-2.24c.38-.74.81-1.48,1.22-2.21a29.781,29.781,0,0,1,2.93-4.22,18.412,18.412,0,0,1,1.73-1.91c.6-.6,1.21-1.21,1.83-1.79a23.948,23.948,0,0,1,2-1.53,17.711,17.711,0,0,1,2-1.4,49.1,49.1,0,0,1,15.55-6.18c2.42-.58,4.69-.93,6.93-1.31s4.34-.59,6.35-.76c4.1-.43,7.83-.64,11.27-.84s6.52-.3,9.25-.4l7-.23L279,226a12.661,12.661,0,0,1,.79,25.31Z" transform="translate(-14.89 -15.96)" fill="#452a31"/>
    <path id="Trazado_6" data-name="Trazado 6" d="M242.66,248.92l-23.91.22c-3.55,0-7.38.1-11.36.21s-8.14.3-12.21.66a57,57,0,0,0-11.12,1.86,13.92,13.92,0,0,0-3.31,1.42,3.61,3.61,0,0,0-1.25,1.24,8.9,8.9,0,0,0-.92,3.1,31.149,31.149,0,0,0-.24,5.21,95.564,95.564,0,0,0,1.36,12.29c.69,4.18,1.52,8.31,2.34,12.24s1.67,7.69,2.46,11.15l5.43,23.23h0a10.009,10.009,0,0,1-19.41,4.9l-6.27-23.17c-.92-3.5-1.92-7.31-2.93-11.39s-2-8.43-3-13.07a116.363,116.363,0,0,1-2.16-15.13,52.649,52.649,0,0,1,.13-9,31.41,31.41,0,0,1,2.95-10.62,26,26,0,0,1,8-9.53,34.881,34.881,0,0,1,9.4-4.85,77.661,77.661,0,0,1,16-3.42c4.84-.59,9.36-.93,13.59-1.21s8.17-.46,11.79-.63l23.93-1h0a12.659,12.659,0,1,1,1.11,25.293Z" transform="translate(-14.89 -15.96)" fill="#452a31"/>
    <path id="Trazado_7" data-name="Trazado 7" d="M225.1,259.48l-.27.74-.33.89q-.09.27-.21.57c-.06.18-.18.48-.19.57-.06.26-.14.56-.23.87-.05.16-.1.33-.16.5s-.09.44-.14.67q-.16.72-.33,1.53c-.08.57-.16,1.16-.25,1.79s-.12,1.31-.18,2l-.09,1.08v1.15c-.06,1.54,0,3.27.1,5s.29,3.7.57,5.68.58,4,.89,6,.73,4.09,1.18,6.13.85,4,1.32,6,.9,3.84,1.34,5.64.87,3.49,1.28,5.06c.81,3.14,1.52,5.77,2,7.6l.78,2.89v.09a10,10,0,0,1-19.14,5.54l-.91-2.93c-.58-1.86-1.4-4.53-2.35-7.76-.48-1.61-1-3.36-1.51-5.23s-1.09-3.83-1.63-5.9-1.11-4.2-1.63-6.4-1-4.47-1.54-6.73-.94-4.59-1.29-6.94-.67-4.68-.93-7a61.35,61.35,0,0,1-.38-6.84v-1.65a14.622,14.622,0,0,1,.06-1.63c.05-1.08.05-2.1.18-3.13s.21-2,.3-2.92.32-1.83.46-2.67c.08-.43.13-.8.24-1.24l.31-1.26c.21-.81.4-1.54.58-2.21a7.349,7.349,0,0,1,.23-.73c.06-.21.12-.4.18-.58.12-.35.22-.66.3-.9l.24-.75a11.182,11.182,0,0,1,21.26,6.94A1.809,1.809,0,0,1,225.1,259.48Z" transform="translate(-14.89 -15.96)" fill="#633b38"/>
    <path id="Trazado_8" data-name="Trazado 8" d="M179.1,255l-.17.8c-.05.26-.12.58-.19,1a2.9,2.9,0,0,1-.13.61l-.06.32v.2a6.336,6.336,0,0,1-.1.9c0,.17-.05.3-.07.54v.76c0,.53-.08,1.06-.08,1.68v2c.07,1.42.12,3,.33,4.7s.44,3.59.71,5.53.67,4,1.09,6.11.86,4.27,1.3,6.43c.95,4.34,1.95,8.71,2.92,12.84s1.9,8,2.69,11.31c1.59,6.66,2.64,11.09,2.64,11.09a10.007,10.007,0,0,1-19.38,5h0s-1.19-4.39-3-11c-.9-3.31-2-7.16-3.07-11.29s-2.3-8.61-3.43-13.13c-.55-2.28-1.13-4.53-1.63-6.83s-1-4.57-1.43-6.8-.81-4.45-1.07-6.64-.49-4.3-.64-6.28c0-1-.08-2-.11-2.93s0-1.87,0-2.72v-1.25c0-.4.08-.91.11-1.33l.25-2.38.06-.53.06-.35.1-.61c.07-.39.12-.71.17-1l.14-.81a11.18,11.18,0,1,1,22,3.76l-.06.3Z" transform="translate(-14.89 -15.96)" fill="#633b38"/>
    <path id="Trazado_9" data-name="Trazado 9" d="M246.91,135l-.51,1.41c-.21.53-.45,1.17-.74,1.93s-.63,1.51-1,2.42c-1.52,3.6-3.82,8.52-6.84,14.24s-6.72,12.21-11.13,19c-2.22,3.42-4.59,6.91-7.34,10.42a64.779,64.779,0,0,1-4.59,5.32,30.666,30.666,0,0,1-3,2.77l-1,.72c-.39.25-.78.5-1.18.74s-1,.53-1.5.76q-.49.21-1,.37c-.37.11-.68.21-1.11.31a12.446,12.446,0,0,1-1.51.18,6.428,6.428,0,0,1-.77,0,8,8,0,0,1-1-.09,8.491,8.491,0,0,1-1.9-.46,11.641,11.641,0,0,1-1.87-.93,5.56,5.56,0,0,1-.76-.57c-.22-.19-.44-.39-.65-.6a8.249,8.249,0,0,1-1.07-1.25c-.24-.36-.47-.74-.69-1.13-.09-.18-.22-.41-.28-.56l-.18-.45c-.12-.29-.23-.6-.33-.9l-.15-.45-.08-.36c-.11-.48-.22-1-.29-1.44a20.71,20.71,0,0,1-.2-2.35,44.369,44.369,0,0,1,.48-7.43c.65-4.48,1.55-8.59,2.5-12.52,1.93-7.85,4-14.95,5.9-21s3.52-11,4.67-14.55l1.84-5.48a6.5,6.5,0,0,1,12.36,4h0l-1.68,5.45c-1.05,3.47-2.56,8.42-4.24,14.38s-3.55,12.92-5.17,20.32c-.8,3.69-1.53,7.51-2,11.19a31.6,31.6,0,0,0-.24,4.93c0,.38.07.52.08.77v.02l-.06-.17v-.08l-.1-.22a2.181,2.181,0,0,0-.28-.46,7.474,7.474,0,0,0-.55-.66,3.9,3.9,0,0,0-.38-.33l-.46-.33a4.2,4.2,0,0,0-1.16-.58,5.339,5.339,0,0,0-1.14-.3,3.821,3.821,0,0,0-.58,0,2.66,2.66,0,0,0-.39,0,3,3,0,0,0-.73.1l-.37.07-.27.11a.28.28,0,0,0-.12.05.49.49,0,0,1,.14-.11l.28-.23a15.561,15.561,0,0,0,1.52-1.48,50.51,50.51,0,0,0,3.4-4.17c2.25-3,4.36-6.27,6.32-9.46,3.93-6.42,7.3-12.71,10-18.13s4.7-10,5.94-13.18q.47-1.19.81-2.1l.52-1.46.48-1.42h0A8.144,8.144,0,1,1,247,134.78C247,134.83,246.92,134.92,246.91,135Z" transform="translate(-14.89 -15.96)" fill="#fec296"/>
    <path id="Trazado_10" data-name="Trazado 10" d="M290.83,222.62a18.42,18.42,0,0,1-1.6-3.42,5.4,5.4,0,0,0-.49,2.86,5.48,5.48,0,0,0,.92,2.52A10.682,10.682,0,0,1,290.83,222.62Z" transform="translate(-14.89 -15.96)" fill="#e79c78"/>
    <path id="Trazado_11" data-name="Trazado 11" d="M241.84,124.49a8.13,8.13,0,0,0-10.29,5.13h0l-.48,1.42-.52,1.46q-.35.92-.81,2.1c-1.24,3.17-3.24,7.76-5.94,13.18s-6.06,11.71-10,18.13c-.59,1-3.39,5.19-4,6.16,2.39,7.31,1.26,13-1.28,15.48-9.51,9.05-14.19-2.05-14.25-6.12,0,.85-.06,1.72,0,2.67a20.71,20.71,0,0,0,.2,2.35c.07.46.18,1,.29,1.44l.08.36.15.45c.1.3.21.61.33.9l.18.45c.06.15.19.38.28.56.22.39.45.77.69,1.13a8.251,8.251,0,0,0,1.07,1.25c.21.21.43.41.65.6a5.561,5.561,0,0,0,.76.57,11.641,11.641,0,0,0,1.87.93,8.491,8.491,0,0,0,1.9.46,8,8,0,0,0,1,.09,6.424,6.424,0,0,0,.77,0,12.446,12.446,0,0,0,1.51-.18c.43-.1.74-.2,1.11-.31q.509-.16,1-.37c.5-.23,1.05-.5,1.5-.76s.79-.49,1.18-.74l1-.72a30.672,30.672,0,0,0,3-2.77,64.785,64.785,0,0,0,4.59-5.32c2.75-3.51,5.12-7,7.34-10.42,4.41-6.83,8.11-13.35,11.13-19.07s5.32-10.64,6.84-14.24c.37-.91.7-1.72,1-2.42s.53-1.4.74-1.93l.51-1.41a1.39,1.39,0,0,1,.06-.19,8.13,8.13,0,0,0-5.16-10.3Z" transform="translate(-14.89 -15.96)" fill="#e79c78"/>
    <path id="Trazado_12" data-name="Trazado 12" d="M229.85,240.37l46.2,3.09a16.26,16.26,0,0,0,17.31-15.16l1.76-26.68,10-75.19a103.73,103.73,0,0,0-70.79-4.66l-2.6,77.55Z" transform="translate(-14.89 -15.96)" fill="#ee594f"/>
    <path id="Trazado_13" data-name="Trazado 13" d="M299.58,140.31l-4.48,10.63A29.31,29.31,0,0,1,265,168.7l-32.13-3.45L232,199.33l-1.85,41,46.2,3.09a16.26,16.26,0,0,0,17.31-15.15l1.76-26.68,6.27-47.24Z" transform="translate(-14.89 -15.96)" fill="#cf4245"/>
    <path id="Trazado_14" data-name="Trazado 14" d="M230.25,224.74l-1.33,26.07,46,3a17.11,17.11,0,0,0,18.2-16.22l.47-9.57C267.75,234.24,246.75,233.54,230.25,224.74Z" transform="translate(-14.89 -15.96)" fill="#633b38"/>
    <path id="Trazado_15" data-name="Trazado 15" d="M259.28,117.73a15.75,15.75,0,0,0,4.07,10.55,51.8,51.8,0,0,0,12.6-9.86l1.36-20.56-16.64-1.1Z" transform="translate(-14.89 -15.96)" fill="#fec296"/>
    <path id="Trazado_16" data-name="Trazado 16" d="M276.44,111l.42-6.29-16.64-1.1-.42,6.29a8.34,8.34,0,0,0,7.77,8.87h0a8.33,8.33,0,0,0,8.87-7.77Z" transform="translate(-14.89 -15.96)" fill="#e79c78"/>
    <path id="Trazado_17" data-name="Trazado 17" d="M240.47,46.6H291.9V88.66a21.73,21.73,0,0,1-21.73,21.73H255.55a15.08,15.08,0,0,1-15.08-15.08Z" transform="translate(-9.15 -33.31) rotate(3.77)" fill="#fec296"/>
    <path id="Trazado_18" data-name="Trazado 18" d="M253.41,16.35a4.29,4.29,0,0,0-1.57,2,13.28,13.28,0,0,0-.16,10.08c-6-1.55-12.65-3-18,0a12.35,12.35,0,0,0-6.15,11.06c.17,4,2.29,7.61,4.52,10.92-4.14,2.56-7.15,8-4.91,12.32a13.88,13.88,0,0,0,3.28,3.73l10.26,9.13,1.72-24.41,42.56,3.1c-1.76,5.76-3.51,12-1.61,17.68,1.43,4.33,4.77,7.71,8,10.93a79.449,79.449,0,0,0,7-25.92,19,19,0,0,0-.63-8.45,11.1,11.1,0,0,0-11.56-6.9,61.64,61.64,0,0,0-28.32-24.95C256.38,16.11,254.72,15.57,253.41,16.35Z" transform="translate(-14.89 -15.96)" fill="#895842"/>
    <path id="Trazado_19" data-name="Trazado 19" d="M293.3,43.33a10.85,10.85,0,0,0-7.2-1.67,60.91,60.91,0,0,0-9.31-12c-.51,0-1-.05-1.54-.05-4.08,0-5.34,1.68-4.38,5.66a2.83,2.83,0,0,1-.32,2.45c-.84,1-2.46.75-3.75.38a35.4,35.4,0,0,0-8.57-1.65,2.81,2.81,0,0,0-1.44.22,2.25,2.25,0,0,0-1,1.58c-.39,2,.74,3.87,1.94,5.46a24,24,0,0,0,6.18,5.88,36.28,36.28,0,0,0,8.43,3.77l12.61.92-.48,1.58C287.57,55.6,300,49.84,293.3,43.33Z" transform="translate(-14.89 -15.96)" fill="#633b38"/>
    <path id="Trazado_20" data-name="Trazado 20" d="M262.3,33.92c-.75-3.42-.39-7,2.27-9.46a12.31,12.31,0,0,1,3.29-2.18,61.48,61.48,0,0,0-10.08-5.57c-1.4-.6-3.06-1.14-4.37-.36a4.29,4.29,0,0,0-1.57,2,13.28,13.28,0,0,0-.16,10.08c-6-1.55-12.65-3-18,0a12.35,12.35,0,0,0-6.15,11.06c.17,4,2.29,7.61,4.52,10.92-4.14,2.56-7.15,8-4.91,12.32a13.88,13.88,0,0,0,3.28,3.73l10.26,9.13,1.72-24.41,10.37.75C252.09,51.93,233.74,24.89,262.3,33.92Z" transform="translate(-14.89 -15.96)" fill="#633b38"/>
    <path id="Trazado_21" data-name="Trazado 21" d="M282.52,65.75a17.22,17.22,0,0,0,.8,6.25c1.43,4.33,4.77,7.71,8,10.93a80.091,80.091,0,0,0,6.79-24.28A15,15,0,0,1,282.52,65.75Z" transform="translate(-14.89 -15.96)" fill="#633b38"/>
    <path id="Trazado_22" data-name="Trazado 22" d="M286.16,82.16c-1.08,4.48.58,8.72,3.72,9.48s6.56-2.25,7.64-6.73-.58-8.72-3.72-9.48S287.24,77.69,286.16,82.16Z" transform="translate(-14.89 -15.96)" fill="#fec296"/>
    <path id="Trazado_23" data-name="Trazado 23" d="M270.58,76c-.2,3,1.54,5.56,3.89,5.72s4.41-2.16,4.61-5.16-1.55-5.57-3.89-5.72S270.78,73,270.58,76Z" transform="translate(-14.89 -15.96)" fill="#633b38"/>
    <path id="Trazado_24" data-name="Trazado 24" d="M254.31,77.91a6.64,6.64,0,0,0,.9-2.94c.19-3-1.55-5.56-3.89-5.72s-4.41,2.16-4.61,5.16a6.659,6.659,0,0,0,.5,3Z" transform="translate(-14.89 -15.96)" fill="#633b38"/>
    <path id="Trazado_25" data-name="Trazado 25" d="M158.1,361.4l31.62-.07a4.47,4.47,0,0,0,4.43-4.93L193,345.19a7.81,7.81,0,0,0-7.79-7h-4.86a22.64,22.64,0,0,0-13.41,4.44l-9.82,7.26a8.67,8.67,0,0,0-3.51,7h0A4.52,4.52,0,0,0,158.1,361.4Z" transform="translate(-14.89 -15.96)" fill="#633b38"/>
    <path id="Trazado_26" data-name="Trazado 26" d="M200.08,361.43h31.61a4.46,4.46,0,0,0,4.44-4.92L235,345.27a7.82,7.82,0,0,0-7.78-7h-4.87a22.606,22.606,0,0,0-13.406,4.407l-9.834,7.253a8.65,8.65,0,0,0-3.52,7h0a4.51,4.51,0,0,0,4.49,4.5Z" transform="translate(-14.89 -15.96)" fill="#633b38"/>
    <path id="Trazado_27" data-name="Trazado 27" d="M193,345.19a7.81,7.81,0,0,0-7.79-7h-1.7c-.37,4.86-1,9.78-10.3,16.81h-19.4a8.711,8.711,0,0,0-.2,1.84,4.52,4.52,0,0,0,4.52,4.51l31.62-.07a4.47,4.47,0,0,0,4.43-4.93Z" transform="translate(-14.89 -15.96)" fill="#452a31"/>
    <path id="Trazado_28" data-name="Trazado 28" d="M219.77,356.09c10.5-.18,3.66-10.5,10.31-17.27a7.81,7.81,0,0,1,4.89,6.45l1.16,11.21a4.46,4.46,0,0,1-4.44,4.92H200.08a4.51,4.51,0,0,1-4.52-4.51c0-.27,0-.54,0-.8Z" transform="translate(-14.89 -15.96)" fill="#452a31"/>
    <path id="Trazado_29" data-name="Trazado 29" d="M230.79,169.39,239.94,151l-5.64-29.2c-4.94,2.93-10.15,17.09-19.37,35.12Z" transform="translate(-14.89 -15.96)" fill="#ee594f"/>
    <path id="Trazado_30" data-name="Trazado 30" d="M223,163.25l7.79,6.14,2.05-4.14.58-17.22C230.72,153.08,223.52,162.31,223,163.25Z" transform="translate(-14.89 -15.96)" fill="#cf4245"/>
    <path id="Trazado_31" data-name="Trazado 31" d="M279.23,122.81a4.621,4.621,0,0,1,.06-.82l-.1.82a8.476,8.476,0,0,1-.14.93l-.25,1.19c-.13.43-.26.89-.4,1.38a10.66,10.66,0,0,1-.57,1.5,26.466,26.466,0,0,1-1.55,3.11,28.17,28.17,0,0,1-3.9,5.16,18.108,18.108,0,0,1-1.53,1.42,2.841,2.841,0,0,1-.38.29l-7.12-9.51-7,8.48-.07-.1a9.622,9.622,0,0,1-.59-1.43,18.829,18.829,0,0,1-.78-4.84,33.821,33.821,0,0,1,.16-5c.15-1.35.31-2.25.31-2.25a35.451,35.451,0,0,0-1,7.24,20.14,20.14,0,0,0,.46,5.07,10.9,10.9,0,0,0,.56,1.66l.28.56h0l7.28-3.9,7.82,5h0s.44-.34.65-.54a17.479,17.479,0,0,0,1.55-1.6,28.858,28.858,0,0,0,3.71-5.5,25.862,25.862,0,0,0,1.41-3.24c.2-.53.33-1.06.49-1.55s.22-1,.33-1.42a9.867,9.867,0,0,0,.18-1.21,7.34,7.34,0,0,0,.13-.9Z" transform="translate(-14.89 -15.96)" fill="#ae272c"/>
    <path id="Trazado_32" data-name="Trazado 32" d="M260.68,141.27a2.29,2.29,0,1,0,.775-1.577A2.29,2.29,0,0,0,260.68,141.27Z" transform="translate(-14.89 -15.96)" fill="#fff"/>
    <path id="Trazado_33" data-name="Trazado 33" d="M260,152.08a2.29,2.29,0,1,0,2.44-2.13,2.29,2.29,0,0,0-2.44,2.13Z" transform="translate(-14.89 -15.96)" fill="#fff"/>
    <path id="Trazado_34" data-name="Trazado 34" d="M315.67,142.06l2.45,4.06c1.56,2.61,3.8,6.32,6.37,11,1.28,2.37,2.65,5,4,8a52,52,0,0,1,1.88,5,27.94,27.94,0,0,1,1.28,6.33,16.29,16.29,0,0,1-1.58,8.55,15.071,15.071,0,0,1-2.84,3.87,18.181,18.181,0,0,1-3.38,2.55,26.549,26.549,0,0,1-6.38,2.57,47.352,47.352,0,0,1-5.83,1.17,102.374,102.374,0,0,1-10.86.91c-3.5.13-6.9.16-10.17.15-6.53,0-12.56-.24-17.72-.43-10.32-.39-17.15-.75-17.15-.75h0a5.5,5.5,0,1,1,.31-11s6.83,0,17-.07c5.09-.06,11-.15,17.33-.42,3.14-.14,6.37-.32,9.59-.6a92.005,92.005,0,0,0,9.42-1.23,35.218,35.218,0,0,0,4.17-1.05,12.21,12.21,0,0,0,3-1.33,3.691,3.691,0,0,0,.6-.52c.07-.11.06-.14,0-.15s0-.22-.08-1a14.221,14.221,0,0,0-.79-2.87c-.41-1.1-.93-2.26-1.49-3.41-1.14-2.3-2.45-4.56-3.71-6.64-2.54-4.18-4.88-7.69-6.51-10.14s-2.6-3.87-2.6-3.87h0a8.132,8.132,0,0,1,13.5-9.07Z" transform="translate(-14.89 -15.96)" fill="#fec296"/>
    <path id="Trazado_35" data-name="Trazado 35" d="M307.13,171.3l-8.65-20.62,6.61-24.25c4.11,2.6,16.94,14.71,26,32.69Z" transform="translate(-14.89 -15.96)" fill="#ee594f"/>
    <path id="Trazado_36" data-name="Trazado 36" d="M300.17,144.46l-1.69,6.22,8.65,20.62,10.68-5.43C316.72,164.08,305.25,149.59,300.17,144.46Z" transform="translate(-14.89 -15.96)" fill="#cf4245"/>
    <path id="Trazado_37" data-name="Trazado 37" d="M232.39,108.82l-6.66-6.44a3.1,3.1,0,0,0-4.51.17q-8.62,10.08-14.13,28.1l16.87-6a16.58,16.58,0,0,0,9.65-9l.09-.22a5.92,5.92,0,0,0-1.31-6.61Z" transform="translate(-14.89 -15.96)" fill="#fec296"/>
    <path id="Trazado_38" data-name="Trazado 38" d="M294.71,78.41c-1.63-.92-3.21.67-4.26,1.8-1.26,1.37-2.76,3.58-2.71,5.52,0,.41.61.72.84.27.59-1.14.87-2.43,1.45-3.6s2.72-4.3,4.35-3.48C294.72,79.08,295.05,78.61,294.71,78.41Z" transform="translate(-14.89 -15.96)" fill="#e79c78"/>
    <path id="Trazado_39" data-name="Trazado 39" d="M288.38,83.76a.67.67,0,0,0,.26,1.26c1.08.06,3-.72,2.59,1.25a3.53,3.53,0,0,1-2.73,2.44.23.23,0,1,0,0,.46A3.55,3.55,0,0,0,292.24,86C292.54,83.85,290.05,82.76,288.38,83.76Z" transform="translate(-14.89 -15.96)" fill="#e79c78"/>
    <path id="Trazado_40" data-name="Trazado 40" d="M279,81.65c-.63-1.27-2.18-1-3.42-.86a17.62,17.62,0,0,0-6,1.13.24.24,0,0,0,.09.45,40.059,40.059,0,0,0,4.65-.14c1.4,0,2.79.19,4.17.16a.52.52,0,0,0,.51-.74Z" transform="translate(-14.89 -15.96)" fill="#e79c78"/>
    <path id="Trazado_41" data-name="Trazado 41" d="M259.23,93.21c-.75-3.13-5.24-5.62-8.29-4.7a.62.62,0,0,0,.09,1.22,11.31,11.31,0,0,1,4.1,1.22c1.26.73,1.85,1.87,2.76,2.93a.78.78,0,0,0,1.34-.67Z" transform="translate(-14.89 -15.96)" fill="#e79c78"/>
    <path id="Trazado_42" data-name="Trazado 42" d="M255.73,84.38a7.13,7.13,0,0,0-2.64,1.84,8.8,8.8,0,0,0-2,2.64c-.19.44.48.9.8.53.67-.78,1.17-1.68,1.87-2.45s1.59-1.38,2.26-2.19a.25.25,0,0,0-.29-.37Z" transform="translate(-14.89 -15.96)" fill="#e79c78"/>
    <path id="Trazado_43" data-name="Trazado 43" d="M254.6,61.35a8.18,8.18,0,0,0-7.84-3.07,5.8,5.8,0,0,0-4.48,5.13.76.76,0,0,0,1.26.61,6.85,6.85,0,0,1,3.34-2c2.06-.48,3.39.66,4.69,2.08a2.046,2.046,0,1,0,3.03-2.75Z" transform="translate(-14.89 -15.96)" fill="#895842"/>
    <path id="Trazado_44" data-name="Trazado 44" d="M244.67,98c2.23-5.64-8.52-.94-10.16-.16a54.151,54.151,0,0,1-9.95,3.57,2,2,0,0,0-.72.28,1.32,1.32,0,0,0-.1,1.81,3.38,3.38,0,0,0,1.7,1C231.86,106.68,241.86,105.12,244.67,98Z" transform="translate(-14.89 -15.96)" fill="#fec296"/>
    <path id="Trazado_45" data-name="Trazado 45" d="M233.59,109.22c1.11-.48,2.47-.44,3,.71a5.4,5.4,0,0,1,.14,2.88,7.9,7.9,0,0,1-.66,2.43,3.24,3.24,0,0,1-1.8,1.67,2,2,0,0,1-2.27-.66c-1-1.45-.54-4.43.24-5.85a2.92,2.92,0,0,1,1.35-1.18Z" transform="translate(-14.89 -15.96)" fill="#fec296"/>
    <path id="Trazado_46" data-name="Trazado 46" d="M244.2,97.7c-.19-1.26-1.24-2.5-2.59-2a.2.2,0,0,0,.07.37c2,0,2.08,2,1.32,3.4-.47.86-1.26,1.43-1.79,2.23a.33.33,0,0,0,.42.47A5,5,0,0,0,244.2,97.7Z" transform="translate(-14.89 -15.96)" fill="#e79c78"/>
    <path id="Trazado_47" data-name="Trazado 47" d="M233.12,108.94a10.6,10.6,0,0,0-2.62-2,28.42,28.42,0,0,1-4.22-3.84.17.17,0,0,0-.27.19,12.721,12.721,0,0,0,3.4,4c2.34,2,5.07,3.34,3.92,7a.4.4,0,0,0,.75.25,5.87,5.87,0,0,0-.96-5.6Z" transform="translate(-14.89 -15.96)" fill="#e79c78"/>
    <path id="Trazado_48" data-name="Trazado 48" d="M232.41,113.16c-2.07-2.13-5-2.85-6.71-5.5a.79.79,0,1,0-1.3.88,10.8,10.8,0,0,0,3.83,3.14c.9.49,1.8,1,2.68,1.51,2.11,1.27,1.79,3.22.71,5.11a.221.221,0,0,0,.37.24C233.43,116.81,234.12,114.93,232.41,113.16Z" transform="translate(-14.89 -15.96)" fill="#e79c78"/>
    <path id="Trazado_49" data-name="Trazado 49" d="M231.17,117.7c-.52-1.07-2.41-1.85-3.41-2.32-1.54-.72-3-1.85-4.58-2.44a.57.57,0,0,0-.68.79c.85,1.48,2.87,2.08,4.37,2.68a19.579,19.579,0,0,1,3.16,1.53c2,1.27-1.52,3.6-2.3,4.14-.17.11,0,.37.17.34C229.91,122,232.21,119.88,231.17,117.7Z" transform="translate(-14.89 -15.96)" fill="#e79c78"/>
    <path id="Trazado_50" data-name="Trazado 50" d="M226.29,120.2c-.55-.24-1.09-.49-1.64-.72a2.64,2.64,0,0,0-1.72-.37.47.47,0,0,0-.25.75,2.43,2.43,0,0,0,1.54.56c.66.12,1.33.14,2,.22C226.48,120.67,226.5,120.3,226.29,120.2Z" transform="translate(-14.89 -15.96)" fill="#e79c78"/>
    <path id="Trazado_51" data-name="Trazado 51" d="M222.8,118.82a.31.31,0,0,0-.46.41,4.62,4.62,0,0,1-.35,6.39c-1.55,1.5-4,1.21-5.81.6a.751.751,0,0,0-.46,1.43c2.52.91,5.82.76,7.56-1.57a5.4,5.4,0,0,0-.48-7.26Z" transform="translate(-14.89 -15.96)" fill="#e79c78"/>
    <path id="Trazado_52" data-name="Trazado 52" d="M237.54,111.21c0-2.79-2.91-3.38-4.83-1.91-.16.12,0,.34.15.31,1.06-.15,2.16-.43,3.06.34s.23,2.73,0,3.5a3.57,3.57,0,0,1-1.53,2.2c-.61.39-1.15.16-1.64.7a.41.41,0,0,0,0,.55l.18.26a.79.79,0,0,0,.7.23C236.73,117,237.51,113.84,237.54,111.21Z" transform="translate(-14.89 -15.96)" fill="#e79c78"/>
    <path id="Trazado_53" data-name="Trazado 53" d="M251.37,70.27c-.52.29-.52,1.28,0,2.21s1.37,1.46,1.89,1.17.52-1.29,0-2.22S251.89,70,251.37,70.27Z" transform="translate(-14.89 -15.96)" fill="#fff"/>
    <path id="Trazado_54" data-name="Trazado 54" d="M275.46,71.86c-.52.29-.52,1.28,0,2.21s1.37,1.46,1.89,1.16.52-1.28,0-2.21S276,71.56,275.46,71.86Z" transform="translate(-14.89 -15.96)" fill="#fff"/>
    <path id="Trazado_55" data-name="Trazado 55" d="M261.81,110.89a13.9,13.9,0,0,0-4.92-1,47.378,47.378,0,0,1-6.9-1.08,15.22,15.22,0,0,1-4.54-2c-1.25-.81-4.18-3.43-3.48-5.24.11-.27-.26-.39-.42-.2-.83,1,.13,2.67.76,3.59a11.86,11.86,0,0,0,4.63,3.82,20.8,20.8,0,0,0,6.28,1.73c1.4.2,2.81.33,4.22.48a24.761,24.761,0,0,0,4.19.46C261.89,111.42,262.1,111,261.81,110.89Z" transform="translate(-14.89 -15.96)" fill="#e79c78"/>
    <path id="Trazado_56" data-name="Trazado 56" d="M291.18,91.83c-.87,2.08-1.16,4.38-2.07,6.49a17.54,17.54,0,0,1-4.13,5.74c-3.2,3-7.27,5-11.12,7a.15.15,0,0,0,.13.27c4.26-1.77,8.52-3.81,11.91-7a17.13,17.13,0,0,0,3.81-5.24,19.271,19.271,0,0,0,2.1-7.15.32.32,0,0,0-.63-.11Z" transform="translate(-14.89 -15.96)" fill="#e79c78"/>
    <path id="Trazado_57" data-name="Trazado 57" d="M294.47,75.27c-.44-.21-.81.56-.37.78,3.45,1.7,3.25,7.06,2.35,10.17-1,3.6-4.2,6.06-8,5.17-.17,0-.31.2-.14.3,3.8,2.24,7.51-1.37,8.82-4.73S298.43,77.12,294.47,75.27Z" transform="translate(-14.89 -15.96)" fill="#e79c78"/>
    <path id="Trazado_58" data-name="Trazado 58" d="M230.43,182.79a51.308,51.308,0,0,1,4.74-3.48,10.6,10.6,0,0,1,10.14-.92l21.7,9.43-18.67,8.35a12.3,12.3,0,0,1-8.37.48c-2.72-.71-5-2.26-7.95-1.63a3.16,3.16,0,0,1-1.49.13,2.509,2.509,0,0,1-.81-.49,11,11,0,0,1-3.26-4.48,4.22,4.22,0,0,1-.37-2c.1-1-1.16-1.6-.53-2.32C226.52,184.79,229.4,183.66,230.43,182.79Z" transform="translate(-14.89 -15.96)" fill="#fec296"/>
    <path id="Trazado_59" data-name="Trazado 59" d="M243.54,191c-1.2-.92-2.88-.51-4.15,0-.31.12-.1.66.21.55a3.63,3.63,0,0,1,3,0,2,2,0,0,1,.85,1.23c.1.37,0,.65.16,1a.44.44,0,0,0,.6.18C245.35,193.2,244.33,191.63,243.54,191Z" transform="translate(-14.89 -15.96)" fill="#e79c78"/>
    <path id="Trazado_60" data-name="Trazado 60" d="M240.84,185.17c-2.55,2.57-8.23,4.31-7.77,8.73.07.73,1.21.57,1.24-.12.12-2.24,1.64-3.43,3.3-4.68a14,14,0,0,0,3.53-3.67C241.26,185.24,241,185,240.84,185.17Z" transform="translate(-14.89 -15.96)" fill="#e79c78"/>
    <path id="Trazado_61" data-name="Trazado 61" d="M239.78,180.1c-2.48,2.52-5.57,4.11-8.16,6.48-1.92,1.76-3.43,5.16-1.94,7.58a.53.53,0,0,0,1-.23c.12-1.76-.18-3.26.68-4.93a11.13,11.13,0,0,1,3.26-3.33,23.62,23.62,0,0,0,5.46-5.33.192.192,0,1,0-.3-.24Z" transform="translate(-14.89 -15.96)" fill="#e79c78"/>
    <path id="Trazado_62" data-name="Trazado 62" d="M244.08,189.55a2.85,2.85,0,0,0-2.3.84.524.524,0,0,0,.71.77,5.731,5.731,0,0,1,1.65-1,.31.31,0,0,0-.06-.61Z" transform="translate(-14.89 -15.96)" fill="#e79c78"/>
    <path id="Trazado_63" data-name="Trazado 63" d="M258.59,188.37a.19.19,0,0,0-.37.09c.49,3.88-4.14,5.44-7.09,5.36s-5.51-2.17-7.25-4.35c-.65-.8-1.81.29-1.17,1.09a10.82,10.82,0,0,0,10,4.38C255.49,194.6,259.78,191.62,258.59,188.37Z" transform="translate(-14.89 -15.96)" fill="#e79c78"/>
    <path id="Trazado_64" data-name="Trazado 64" d="M236.73,178.65c-2.75,1.87-5.61,3.6-8.32,5.53-3.52,2.5-2.93,6.7.41,9a.28.28,0,0,1-.26.49,5.48,5.48,0,0,1-3-7.78,9.27,9.27,0,0,1,3.75-3.35q3.6-2.11,7.26-4.14C236.72,178.32,236.87,178.56,236.73,178.65Z" transform="translate(-14.89 -15.96)" fill="#e79c78"/>
    <path id="Trazado_65" data-name="Trazado 65" d="M268.49,63.13a8.19,8.19,0,0,1,7.84-3.06,5.79,5.79,0,0,1,4.48,5.13.77.77,0,0,1-1.26.61,6.82,6.82,0,0,0-3.34-2.06c-2-.47-3.39.67-4.69,2.09a2.033,2.033,0,1,1-3.03-2.71Z" transform="translate(-14.89 -15.96)" fill="#895842"/>
    <path id="Trazado_66" data-name="Trazado 66" d="M259.36,101.79c2.34,2.21,7.46,1.83,9.51-.6a.622.622,0,1,0-.74-1,11.57,11.57,0,0,1-4.1,1.22,10.323,10.323,0,0,1-3.91-1,.79.79,0,0,0-.76,1.38Z" transform="translate(-14.89 -15.96)" fill="#e79c78"/>
    <path id="Trazado_67" data-name="Trazado 67" d="M329.37,201.2H27.27a3.43,3.43,0,0,1-3.43-3.43h0a3.42,3.42,0,0,1,3.43-3.43h302.1a3.42,3.42,0,0,1,3.42,3.43h0a3.43,3.43,0,0,1-3.42,3.43Z" transform="translate(-14.89 -15.96)" fill="#d68b4c"/>
    <path id="Trazado_68" data-name="Trazado 68" d="M233.85,194.34h95.33a3.56,3.56,0,0,1,3.57,2.85,3.43,3.43,0,0,1-3.38,4H233.85a4.54,4.54,0,0,0,0-6.86Z" transform="translate(-14.89 -15.96)" fill="#b46a4f"/>
    <rect id="Rectángulo_6" data-name="Rectángulo 6" width="84.32" height="160.22" transform="translate(303.27 345.44) rotate(180)" fill="#844a47"/>
    <rect id="Rectángulo_7" data-name="Rectángulo 7" width="6.47" height="160.22" transform="translate(212.49 185.23)" fill="#d68b4c"/>
    <rect id="Rectángulo_8" data-name="Rectángulo 8" width="6.47" height="14.04" transform="translate(212.49 185.23)" fill="#b46a4f"/>
    <path id="Trazado_69" data-name="Trazado 69" d="M184.09,105.27l-25.87-4.81c-1.12-10.87-.15-19.24,4.35-23.4l25.88,4.81C182.66,86.44,181.65,94.56,184.09,105.27Z" transform="translate(-14.89 -15.96)" fill="#ffff60"/>
    <path id="Trazado_70" data-name="Trazado 70" d="M141.44,96.46l-25.13,7.81c-6.06-9.09-9.1-17-7.06-22.73l25.13-7.81C131.4,80.47,134.29,88.13,141.44,96.46Z" transform="translate(-14.89 -15.96)" fill="#ffff60"/>
    <path id="Trazado_71" data-name="Trazado 71" d="M79.37,89.54H184.8A8.12,8.12,0,0,1,192.89,97l6,68.32a8.13,8.13,0,0,1-8.09,8.83H85.37a8.12,8.12,0,0,1-8.09-7.411l-6-68.319a8.13,8.13,0,0,1,8.09-8.88Z" transform="translate(-14.89 -15.96)" fill="#6d706f"/>
    <path id="Trazado_72" data-name="Trazado 72" d="M79.37,89.54h98A8.12,8.12,0,0,1,185.45,97l6,68.32a8.11,8.11,0,0,1-8.09,8.83h-98a8.12,8.12,0,0,1-8.09-7.411l-6-68.319a8.13,8.13,0,0,1,8.1-8.88Z" transform="translate(-14.89 -15.96)" fill="#a09b9b"/>
    <path id="Trazado_73" data-name="Trazado 73" d="M123.82,172.33H105.07l20.24-36.42,2.32,8.13Z" fill="#6d706f"/>
    <path id="Trazado_74" data-name="Trazado 74" d="M119.48,172.33H99.5l5.6-36.42h20.21Z" fill="#a09b9b"/>
    <rect id="Rectángulo_9" data-name="Rectángulo 9" width="53.43" height="6.38" transform="translate(145.96 178.37) rotate(180)" fill="#6d706f"/>
    <path id="Trazado_75" data-name="Trazado 75" d="M51.17,186.5h.29a2,2,0,0,0,1.68-2.26l-7.52-51a2,2,0,1,0-3.93.58l7.51,51A2,2,0,0,0,51.17,186.5Z" transform="translate(-14.89 -15.96)" fill="#314051"/>
    <path id="Trazado_76" data-name="Trazado 76" d="M55.06,194.36h.29a2,2,0,0,0,2.2-1.76l5.67-51.21a2.012,2.012,0,0,0-4-.43l-5.67,51.2A2,2,0,0,0,55.06,194.36Z" transform="translate(-14.89 -15.96)" fill="#314051"/>
    <path id="Trazado_77" data-name="Trazado 77" d="M47.55,178.83H28.98L27,140.92H49.54Z" fill="#cf4245"/>
  </g>
</svg>
