<svg id="Imagen_No_14_Rubrica" data-name="Imagen No 14 Rubrica" xmlns="http://www.w3.org/2000/svg" width="790" height="604.16" viewBox="0 0 790 604.16">
  <rect id="Rectángulo_1" data-name="Rectángulo 1" width="790" height="604.16" fill="#fee066"/>
  <path id="Trazado_1" data-name="Trazado 1" d="M699.67,330.45q-48.09,1.1-28.22,38.59,7-19.1,9.87-24.6c3.6-.18,5.25-1.44,4.95-3.76Z" fill="#e3393c" fill-rule="evenodd"/>
  <path id="Trazado_2" data-name="Trazado 2" d="M648.48,331.58l33.38,8.57q-12.35,14.3-10.11,32.48Q622,360.69,626.3,359.3,630,336.91,648.48,331.58Z" fill="#d1c6b3" fill-rule="evenodd"/>
  <path id="Trazado_3" data-name="Trazado 3" d="M648.48,331.58l33.38,8.57q14.1-13.5,27.82-8.52-7.53-7.94-36.56-8.55Z" fill="#d1c6b3" fill-rule="evenodd"/>
  <path id="Trazado_4" data-name="Trazado 4" d="M716.54,327.68s-16.06-2.39-24.09.34-10.59,12.13-10.59,12.13l-39.4-8.57c-.55-.12,2.44-7.94,8.47-11.08,7.57-3.95,18.66-3.41,19-3.34Z" fill="#e5e5e5" fill-rule="evenodd"/>
  <path id="Trazado_5" data-name="Trazado 5" d="M398,509c207,0,375.89-10.11,375.89-22.51S605.05,464,398,464,22.12,474.07,22.12,486.47,191,509,398,509Z" fill="#f7b64d" fill-rule="evenodd"/>
  <path id="Trazado_6" data-name="Trazado 6" d="M196.41,197.86H600.14a19.63,19.63,0,0,1,19.58,19.57V439.36H176.84V217.43a19.62,19.62,0,0,1,19.57-19.57Z" fill="#333" fill-rule="evenodd"/>
  <path id="Trazado_7" data-name="Trazado 7" d="M620,439.69H176.51V217.43a19.92,19.92,0,0,1,19.9-19.89H600.14A19.92,19.92,0,0,1,620,217.43ZM177.16,439H619.4V217.43a19.28,19.28,0,0,0-19.26-19.25H196.41a19.28,19.28,0,0,0-19.25,19.25Z" fill="#666"/>
  <rect id="Rectángulo_2" data-name="Rectángulo 2" width="404.41" height="207.65" transform="translate(194.47 214.68)" fill="#336654"/>
  <path id="Trazado_8" data-name="Trazado 8" d="M605.34,428.78H188V208.22H605.34ZM200.93,415.86H592.42V221.13H200.93Z" fill="#fee066"/>
  <path id="Trazado_9" data-name="Trazado 9" d="M494.17,270.43q70.8-8.08,97.63.72,25-118.68-38.2-130.4-138.19,21.47-76.42,76.95Q448.11,241.76,494.17,270.43Z" fill="#633639" fill-rule="evenodd"/>
  <path id="Trazado_10" data-name="Trazado 10" d="M582.08,217.29q-87.55,17.94-80.47-59.14-56.08,22-19.38,54.63-24.28,31.85,11.94,57.65,73-12.27,91.48-6.12Q596.44,227.52,582.08,217.29Z" fill="#542b2e" fill-rule="evenodd"/>
  <path id="Trazado_11" data-name="Trazado 11" d="M484,208.49l-10.18-3.67s.22-1.81,1.49-2.14,9.31,3.17,9.31,3.17Z" fill="#9e282a" fill-rule="evenodd"/>
  <rect id="Rectángulo_3" data-name="Rectángulo 3" width="584.5" height="25.75" rx="5.79" transform="translate(105.86 466.51)" fill="#d6d6d6"/>
  <path id="Trazado_12" data-name="Trazado 12" d="M690.36,480.78H105.86v5.69a5.81,5.81,0,0,0,5.79,5.79H684.57a5.81,5.81,0,0,0,5.79-5.79Z" fill="#b5b5b5" fill-rule="evenodd"/>
  <path id="Trazado_13" data-name="Trazado 13" d="M111.65,466.51l65.18-27.15H619.72l67.04,27.58Z" fill="#f2f2f2" fill-rule="evenodd"/>
  <path id="Trazado_14" data-name="Trazado 14" d="M237.56,441.35l-51.8,22.48,419.6.26-57.6-23.2Z" fill="#47413e" fill-rule="evenodd"/>
  <path id="Trazado_15" data-name="Trazado 15" d="M606.12,455.1H171.61v-.33H603.66l-27.12-7.27H199.81v-.32H576.58l.02.01Z" fill="#f2f2f2"/>
  <path id="Trazado_16" data-name="Trazado 16" d="M203.4,466.75l.75-.38,51.79-26.27.14.28-51.04,25.9,29.1-2.58,43.06-22.55,20.29-.02-37.5,25.22H464.56l-18.79-25.37h21.85l.05.04,25.25,25.33h25.39l-30.95-25.54h22.28l.05.02,36.75,25.51,26.47-2.39-41.97-22.88.15-.28L574,464.17l-.53.05-27.12,2.46-.05-.04-36.76-25.51H488.26l30.95,25.54H492.78l-.04-.05L467.49,441.3H446.41l18.79,25.37H258.93l.44-.29,37.06-24.92-19.19.02L234.2,464.02Z" fill="#b2b2b2"/>
  <path id="Trazado_17" data-name="Trazado 17" d="M434.02,455.1H412.46l-.04-.08-8.9-14.37-16.03.15,2.73,14.3H368.6V441.3H355.36l-3.81,13.8H335.03l.08-.22,5.28-14.32-11.96-.08L317.71,455.1H298.42l14.99-14.08.22.24-14.4,13.51h18.32l10.72-14.61h.08l12.51.08-.08.22-5.29,14.31H351.3l3.82-13.79h13.8v13.79h20.91l-2.73-14.29h.2l16.4-.15.05.08,8.89,14.36h20.81l-8.86-14.64.28-.17Z" fill="#b2b2b2"/>
  <path id="Trazado_18" data-name="Trazado 18" d="M556,238.19s-3.52,5.3-8.27,12.19-10.92,19.37-10.92,19.37-7,11.27-9.36,9.34-6.88-7.59-6.88-7.59l2.16-4.61,2.85-11.32S546.19,252.75,556,238.19Z" fill="#ffa89a" fill-rule="evenodd"/>
  <path id="Trazado_19" data-name="Trazado 19" d="M626.44,338s-29.12,2.67-35.66,1.22-6.44-1.63-6.44-1.63l8.63-12.3,36.89,3.18Z" fill="#ffa89a" fill-rule="evenodd"/>
  <path id="Trazado_20" data-name="Trazado 20" d="M366.23,311.39q11.81,14.92,20.89,4.86-4.08-13-18.72-9.15a19.69,19.69,0,0,1-9.87-2Q357,311.87,366.23,311.39Z" fill="#ffa89a" fill-rule="evenodd"/>
  <path id="Trazado_21" data-name="Trazado 21" d="M592.08,175.59q-7.53-22.46-14-12.46-22.32,32.48-63.87-.5a89.56,89.56,0,0,0,37.43,30.94q-33.77-11.23-39.42-27.2,10.11,25.69,41.33,34.6,3.54,22,10.81,18.56,5.75-8.64,17.67-2.24Q595.87,197.28,592.08,175.59Z" fill="#542b2e" fill-rule="evenodd"/>
  <path id="Trazado_22" data-name="Trazado 22" d="M583.59,319.37c1.8,1.64-29.21-42.66-34.1-44.12s-12.76-1.4-12.76-1.4l22.73,35.33L576,327.68Z" fill="#b1c2bb" fill-rule="evenodd"/>
  <path id="Trazado_23" data-name="Trazado 23" d="M583.09,430.54l-93.19-.38s-4.76-29.25,2.08-48.3,35.17-40.06,35.17-40.06-33.7-52.27-34.19-58.62,5.86-8.8,10.74-9.29,32.25-.48,32.25-.48l30.29,17.09c-1.8,0-.72,8.91-6.83,13.55s-3.19,7.22-3.19,7.22l.74,24.42.48,12.71s29.32,32,27.85,53.49S583.09,430.54,583.09,430.54Z" fill="#2a3842" fill-rule="evenodd"/>
  <path id="Trazado_24" data-name="Trazado 24" d="M558.1,354.77l-2.42,75.66,27.41.11C583.92,418,592.76,398.22,558.1,354.77Z" fill="#202b33" fill-rule="evenodd"/>
  <path id="Trazado_25" data-name="Trazado 25" d="M499.48,296.75C513,325.28,526.65,332.91,509.79,357l-9.39,10.53,46.07,11.73,3.41-10.91,12.83,8.37,10.66-7.4L567,360.18l-9.59-11.78s1.23-35.27.48-36.45,5.61-2.19,7.17-8.13a51.259,51.259,0,0,0,1.15-13.32l-22.6-12.75-1-3.65s-31.58-.59-35.23-.4a59.941,59.941,0,0,0-8.79,1.43Z" fill="#ceded8" fill-rule="evenodd"/>
  <path id="Trazado_26" data-name="Trazado 26" d="M538.41,267.34s9.36,11.64,3.1,14.28-8.86-8.25-8.86-8.25Z" fill="#fff" fill-rule="evenodd"/>
  <path id="Trazado_27" data-name="Trazado 27" d="M522.86,266.18l9.79,7.19s2.19,4.31-4.4,7.74-12.79-5.71-12.79-5.71Z" fill="#fff" fill-rule="evenodd"/>
  <path id="Trazado_28" data-name="Trazado 28" d="M503.15,157.53s-14.25,4.56-15.54,20.34-1.26,27.27-5.38,34.91-4.94,13.38-.85,19.35,13.95,24.26,17.1,26.82,28.95-2.26,28.95-2.26,9.5-1.59,15-4.94,13.32-11.25,13.32-11.25,6.42,7.71,15.87-1.05,16.29-19.06,9.12-23.12-15.8-1.05-16.88,4.9-6.37,3.56-7.53-1.53S554,210,554,210,510,202.37,503.15,157.53Z" fill="#ffc9a8" fill-rule="evenodd"/>
  <path id="Trazado_29" data-name="Trazado 29" d="M505.5,249.77l2.8-5.8-11.15-2.44,1.12,6.74S503.13,247.15,505.5,249.77Z" fill="#ffa89a" fill-rule="evenodd"/>
  <path id="Trazado_30" data-name="Trazado 30" d="M546.29,207.85q16.9-1.89,18.12,11.68,16.43-6,16.48,5.72-14.24,21.9-24.88,12.94-15.32,17.94-36.75,17.25Q557,235.27,546.29,207.85Z" fill="#ffa89a" fill-rule="evenodd"/>
  <path id="Trazado_31" data-name="Trazado 31" d="M510.85,281.4l-39.57,53.42-10.56-7.9s27.17-50.15,31.66-52.89S510.85,281.4,510.85,281.4Z" fill="#ceded8" fill-rule="evenodd"/>
  <path id="Trazado_32" data-name="Trazado 32" d="M455.62,319.55l13.07-1.91,3.42,19.25-13.18-1.06Z" fill="#fff" fill-rule="evenodd"/>
  <path id="Trazado_33" data-name="Trazado 33" d="M387.78,315.65,456,321.47l2.48,12.21-12.26,1-59.4-15.09s-5.54,5.87-9.76,4.73-9.69-1.27-12.06-.67c-2.76.7-8.73.63-10.83-.23,0,0-7.53-4-7.2-4.84s4.21-2.2,4.21-2.2,4.9,2.53,9.35,2c6.24-.71,13-4.61,16.12-5.42C382.05,311.6,387.78,315.65,387.78,315.65Z" fill="#ffc9a8" fill-rule="evenodd"/>
  <path id="Trazado_34" data-name="Trazado 34" d="M586.04,316.04l-3.3,3.63-10.29,11.3,9.86,10.39,10.66-15.19Z" fill="#ceded8" fill-rule="evenodd"/>
  <path id="Trazado_35" data-name="Trazado 35" d="M520.93,235.25a134.661,134.661,0,0,1-29.59-3.08,9.43,9.43,0,0,1,3.33,5.49,29.65,29.65,0,0,0,20,3.14C516,237.71,517.55,235.91,520.93,235.25Z" fill="#fff" fill-rule="evenodd"/>
  <path id="Trazado_36" data-name="Trazado 36" d="M490.82,230.92c.11-.24,1.75.92,2.72.77,3.42-.51,3.77-4.47,8.7-.68,7-1.27,6.48-.61,12.8,2.87a13.44,13.44,0,0,0,7.74.31C513.65,240.69,489.39,234.06,490.82,230.92Z" fill="#fb578b" fill-rule="evenodd"/>
  <path id="Trazado_37" data-name="Trazado 37" d="M515.84,240.91c-15.82-1.51-22.39-3.55-22.39-3.55C497.57,248,509.65,244.59,515.84,240.91Z" fill="#fe728e" fill-rule="evenodd"/>
  <path id="Trazado_38" data-name="Trazado 38" d="M553.71,310.59q14.65-6.75,10.31-18.84-7.44,14.67-19.53,9.48c-12.22,6.85-23.4,3.45-29.13-5.29-1.47,12.92,7.08,19.51,21.25,14.9Q545.68,303.63,553.71,310.59Z" fill="#bfcfc9" fill-rule="evenodd"/>
  <path id="Trazado_39" data-name="Trazado 39" d="M510.85,281.4l-11.3,15.15c10.7,21,33.68,48.66.85,71l32.34,8.23,4.34-30C527.21,312.22,512.66,314,510.85,281.4Z" fill="#bfcfc9" fill-rule="evenodd"/>
  <path id="Trazado_40" data-name="Trazado 40" d="M499.91,183s.34,2-.78,2.75-4.48.25-7.4,1.74a18.87,18.87,0,0,0-5,3.87S487.08,184.54,499.91,183Z" fill="#542b2e" fill-rule="evenodd"/>
  <path id="Trazado_41" data-name="Trazado 41" d="M572.76,231.99l-9.1.25-6.49,4.87,6.86-7.86Z" fill="#ff8d90" fill-rule="evenodd"/>
  <path id="Trazado_42" data-name="Trazado 42" d="M576.13,221.39,567.4,228v-2.62Z" fill="#ff8d90" fill-rule="evenodd"/>
  <path id="Trazado_43" data-name="Trazado 43" d="M505.51,227.1a28,28,0,0,0-7.42-.68q-5.05-4.24-2.89-9.68,10.57-.66,11.91-10.39.09,11.24-10.16,11.31,3.72,5.11,7.58,4.39a2.29,2.29,0,0,0,0-2.66Q509.61,222.51,505.51,227.1Z" fill="#ff8d90" fill-rule="evenodd"/>
  <path id="Trazado_44" data-name="Trazado 44" d="M502.49,219c-.76-.1-1.41.15-1.47.57s.5.84,1.25.95,1.42-.15,1.48-.56S503.24,219.15,502.49,219Z" fill="#ffd8c4" fill-rule="evenodd"/>
  <path id="Trazado_45" data-name="Trazado 45" d="M504.54,225.58a2.27,2.27,0,0,0-2.05-1.88,20.65,20.65,0,0,0-3.42-.31,11,11,0,0,0,5.47,2.19Z" fill="#c75256" fill-rule="evenodd"/>
  <path id="Trazado_46" data-name="Trazado 46" d="M505.07,242.75c1.3,0,2.35-.32,2.35-.72s-1.05-.71-2.35-.71-2.35.32-2.35.71S503.78,242.75,505.07,242.75Z" fill="#ffd8c4" fill-rule="evenodd"/>
  <path id="Trazado_47" data-name="Trazado 47" d="M561.56,238.3c.7,1.89.28,1.88,2.08,2.53-2,.19-1.49.1-2.76,1.73,1.82.78,1.51,1.08,3.28.22-1.31,1.55-1,1.15-.82,3.18,1.87-.78,1.85-.36,2.55-2.22.11,2,.05,1.52,1.6,2.76.83-1.89,1.11-1.58.33-3.36,1.47,1.28,1.09,1,3.09.73-.7-1.88-.28-1.88-2.09-2.53,2-.19,1.5-.1,2.76-1.73-1.81-.78-1.5-1.08-3.27-.22,1.3-1.54,1-1.15.82-3.18-1.87.78-1.85.36-2.55,2.22-.12-2-.05-1.52-1.61-2.76-.82,1.89-1.11,1.58-.33,3.36C563.18,237.75,563.55,238,561.56,238.3Z" fill="#f4e9a6" fill-rule="evenodd"/>
  <path id="Trazado_48" data-name="Trazado 48" d="M568.11,215.81l-21.52-12-.53,5.4,2.3.94,1.81-.33s14.94,9.47,14.24,9.72S566.55,216.85,568.11,215.81Z" fill="#9e282a" fill-rule="evenodd"/>
  <path id="Trazado_49" data-name="Trazado 49" d="M530.64,217.32c-9.31.87-16.9-2.35-17-7.19a5.18,5.18,0,0,1,.49-2.22c1.81-4,8.4-7.4,16.27-8.13,9.31-.88,16.9,2.35,17,7.19S539.95,216.45,530.64,217.32Zm0-1.48c8-.63,14.35-4.34,14.29-8.28s-6.56-6.63-14.51-6-14.36,4.34-14.3,8.29,6.56,6.63,14.52,5.99Z" fill="#b02e30" fill-rule="evenodd"/>
  <path id="Trazado_50" data-name="Trazado 50" d="M486.82,215.62c-8.71-1.57-15.09-6.49-14.25-11s8.58-6.89,17.3-5.32,15.09,6.49,14.25,11S495.54,217.18,486.82,215.62Zm.28-1.37c7.42,1.44,13.65-.57,14.32-4.24s-4.48-7.61-11.9-9-14,.36-14.66,4S479.67,212.81,487.1,214.25Z" fill="#b02e30" fill-rule="evenodd"/>
  <path id="Trazado_51" data-name="Trazado 51" d="M530.46,200.81c7.94-.45,14.44,1.83,14.53,5.09a2.6,2.6,0,0,0,0-.56c-.06-3.45-6.56-5.79-14.51-5.24s-14.15,3.69-14.29,7.07c.38-3.12,6.58-5.92,14.23-6.36Zm-28.61,7.07c.67-3.31-4.81-7-12.23-8.35a23.06,23.06,0,0,0-11.07.45c-1.9.68-3.18,1.7-3.54,3a6.33,6.33,0,0,1,3.44-2.25,23.51,23.51,0,0,1,10.78-.36c7.43,1.31,12.9,5,12.23,8.35a1.059,1.059,0,0,1,0,.19,2.82,2.82,0,0,0,.39-1.03Z" fill="#9e282a" fill-rule="evenodd"/>
  <path id="Trazado_52" data-name="Trazado 52" d="M510.13,208.19l4.5,2.28.16-4A37.2,37.2,0,0,0,509,205a16.78,16.78,0,0,0-6,.87l-.65,4.05S504.84,206.74,510.13,208.19Z" fill="#b02e30" fill-rule="evenodd"/>
  <path id="Trazado_53" data-name="Trazado 53" d="M642.46,331.58q-14,12.92-21.39,1.55Q627.13,320.92,641,327a19.74,19.74,0,0,0,10.06-.45Q651.47,333.48,642.46,331.58Z" fill="#ffa89a" fill-rule="evenodd"/>
  <path id="Trazado_54" data-name="Trazado 54" d="M630.52,343.3s9.85-7.79,13.05-7.92,3.37,1.08,3.37,1.08,4.65-2.7,6.59-1.49a8.349,8.349,0,0,1,2.31,1.75s5.83-1.29,7.3-.41a3.56,3.56,0,0,1,1.72,1.8,40.788,40.788,0,0,1,6.1-.2c1.62.24,1.9,2.82,1.9,2.82s-11,1.79-14.43,3.17a18.872,18.872,0,0,0-5.61,3.43Z" fill="#ffc9a8" fill-rule="evenodd"/>
  <path id="Trazado_55" data-name="Trazado 55" d="M217.64,282.92,370,315.62s3.83-.65,2.69-2.92-155.26-32.17-155.26-32.17S215.24,281.89,217.64,282.92Z" fill="#b59046" fill-rule="evenodd"/>
  <path id="Trazado_56" data-name="Trazado 56" d="M621.54,354.5s2.23-11.38,8.38-17.08,12.54-5.84,12.54-5.84l39.4,8.57a23.23,23.23,0,0,0-14,16.4c-2.91,12.65-1.71,13.67-1.71,13.67Z" fill="#f2f2f2" fill-rule="evenodd"/>
  <path id="Trazado_57" data-name="Trazado 57" d="M530.53,204.12a4.94,4.94,0,0,1,5.07,5,5.25,5.25,0,0,1-4.6,5.65,4.93,4.93,0,0,1-5.07-5,5.26,5.26,0,0,1,4.6-5.65Z" fill="#458783" fill-rule="evenodd"/>
  <path id="Trazado_58" data-name="Trazado 58" d="M527.68,207.77a.8.8,0,0,1,.78.84.86.86,0,0,1-.7.94.8.8,0,0,1-.78-.84.85.85,0,0,1,.7-.94Z" fill="#ffceb5" fill-rule="evenodd"/>
  <path id="Trazado_59" data-name="Trazado 59" d="M533,204.38a6.27,6.27,0,0,1,2.59,4.23,10.6,10.6,0,0,0-.61-.89c-1.27-1.74-7.34-1.34-7.6-1.14a3.159,3.159,0,0,1-.91.51,5.46,5.46,0,0,1,2.32-2.85,3.891,3.891,0,0,1,1.74-.53,4,4,0,0,1,2.47.67Z" fill="#b37c6b" fill-rule="evenodd"/>
  <path id="Trazado_60" data-name="Trazado 60" d="M535.78,207.83c1.17,1.63.5,1,.5,1-3.24-2.53-7.13-1.53-10-1.58-1.82,0-3.27-2.16-3.27-2.16s3.36,2.13,5.54.87C528.8,205.83,534.6,206.2,535.78,207.83Z" fill="#63262b" fill-rule="evenodd"/>
  <path id="Trazado_61" data-name="Trazado 61" d="M517.85,209.28a1.32,1.32,0,0,0-.65,1.76,1.37,1.37,0,0,0,1.62,1,1.32,1.32,0,0,0,.66-1.76,1.38,1.38,0,0,0-1.63-1Z" fill="#fff" fill-rule="evenodd"/>
  <path id="Trazado_62" data-name="Trazado 62" d="M522.09,204.8c-.67-.36-2.23.14-3.48,1.12s-1.71,2.07-1,2.44,2.23-.14,3.48-1.12S522.77,205.16,522.09,204.8Z" fill="#fff" fill-rule="evenodd"/>
  <path id="Trazado_63" data-name="Trazado 63" d="M490.92,202.75a4.93,4.93,0,0,1,5.07,5,5.26,5.26,0,0,1-4.6,5.65,5,5,0,0,1-5.07-5,5.25,5.25,0,0,1,4.6-5.65Z" fill="#458783" fill-rule="evenodd"/>
  <path id="Trazado_64" data-name="Trazado 64" d="M488.07,206.39a.81.81,0,0,1,.78.84.86.86,0,0,1-.7.94.79.79,0,0,1-.78-.83.86.86,0,0,1,.7-.95Z" fill="#ffceb5" fill-rule="evenodd"/>
  <path id="Trazado_65" data-name="Trazado 65" d="M493.35,203a6.29,6.29,0,0,1,2.59,4.23c-.12-.19-.31-.47-.61-.89-1.27-1.74-7.34-1.34-7.6-1.14a2.94,2.94,0,0,1-.91.51,5.46,5.46,0,0,1,2.32-2.85A4,4,0,0,1,493.35,203Z" fill="#b37c6b" fill-rule="evenodd"/>
  <path id="Trazado_66" data-name="Trazado 66" d="M496.17,206.45c1.17,1.63.5,1,.5,1-3.24-2.53-7.13-1.52-10-1.57-1.82,0-3.27-2.17-3.27-2.17s3.36,2.13,5.54.88C489.19,204.45,495,204.82,496.17,206.45Z" fill="#63262b" fill-rule="evenodd"/>
  <path id="Trazado_67" data-name="Trazado 67" d="M477,206.15a1.33,1.33,0,0,0-.65,1.77,1.38,1.38,0,0,0,1.62,1,1.33,1.33,0,0,0,.66-1.76A1.4,1.4,0,0,0,477,206.15Z" fill="#fff" fill-rule="evenodd"/>
  <path id="Trazado_68" data-name="Trazado 68" d="M481.27,201.68c-.67-.37-2.23.14-3.48,1.12s-1.71,2.07-1,2.43,2.23-.13,3.48-1.12S481.94,202,481.27,201.68Z" fill="#fff" fill-rule="evenodd"/>
  <path id="Trazado_69" data-name="Trazado 69" d="M547.4,302.21q-14.55-26.43-14.58-26.79l11.67,25.81c5.13,44.75,5.13,67.92,5.13,67.92C549.65,349.4,550.61,326.56,547.4,302.21Z" fill="#a3b3ad" fill-rule="evenodd"/>
  <path id="Trazado_70" data-name="Trazado 70" d="M663.38,466.51l-556.91,3.21s-.64-2.11,6.46-3.21S663.38,466.51,663.38,466.51Z" fill="#fff" fill-rule="evenodd"/>
  <path id="Trazado_71" data-name="Trazado 71" d="M376.56,319.9s-9.67-8-12.86-8.23-3.39,1-3.39,1-4.59-2.8-6.56-1.64a8.361,8.361,0,0,0-2.35,1.7s-5.79-1.43-7.28-.58a3.53,3.53,0,0,0-1.76,1.76,41,41,0,0,0-6.1-.35c-1.63.2-2,2.78-2,2.78s10.94,2.05,14.36,3.5a18.91,18.91,0,0,1,5.53,3.57Z" fill="#ffc9a8" fill-rule="evenodd"/>
  <path id="Trazado_72" data-name="Trazado 72" d="M589.38,331.29l-4.57,6.51c.65.2,2.22.61,6,1.45a43.389,43.389,0,0,0,8.1.42c6.51-.07,15-.64,20.84-1.09,4-.3,6.72-.55,6.72-.55v-.12a10.84,10.84,0,0,1-4.84-4l-1.92.12a144.565,144.565,0,0,1-14.87.19,58,58,0,0,1-6-.66,65.178,65.178,0,0,1-9.46-2.27Z" fill="#ed8c7d" fill-rule="evenodd"/>
  <path id="Trazado_73" data-name="Trazado 73" d="M574.7,331.1l11.34-15.06-3.82,10.71,2.3,3.16,8.45-3.74-10.75,13.48Z" fill="#b1c2bb" fill-rule="evenodd"/>
  <path id="Trazado_74" data-name="Trazado 74" d="M456.8,321.11l4.19,10.08,6.83-.43-.04-11.26,4.33,17.39-13.18-1.06Z" fill="#ceded8" fill-rule="evenodd"/>
  <path id="Trazado_75" data-name="Trazado 75" d="M577.6,325.32c-3.86-2.55-9.21-18.87-11.61-26.76a35.058,35.058,0,0,1-.9,5.26,10.42,10.42,0,0,1-4.92,6.16l15.57,17.38Z" fill="#a3b3ad" fill-rule="evenodd"/>
  <path id="Trazado_76" data-name="Trazado 76" d="M534.67,282.58c.59,0,1.24.78,1.46,1.75s-.1,1.75-.69,1.75-1.24-.78-1.45-1.75S534.08,282.58,534.67,282.58Z" fill="#adadad" fill-rule="evenodd"/>
  <path id="Trazado_77" data-name="Trazado 77" d="M542.53,299.45c.59,0,1.24.78,1.45,1.75s-.09,1.75-.68,1.75-1.24-.78-1.45-1.75S541.94,299.45,542.53,299.45Z" fill="#adadad" fill-rule="evenodd"/>
  <path id="Trazado_78" data-name="Trazado 78" d="M544.93,320.64c.59,0,1.14.78,1.24,1.75s-.32,1.75-.91,1.75-1.14-.78-1.23-1.75S544.34,320.64,544.93,320.64Z" fill="#adadad" fill-rule="evenodd"/>
  <path id="Trazado_79" data-name="Trazado 79" d="M546.08,339.35c.59,0,1.14.78,1.23,1.75s-.31,1.75-.9,1.75-1.14-.79-1.23-1.75S545.49,339.35,546.08,339.35Z" fill="#adadad" fill-rule="evenodd"/>
  <path id="Trazado_80" data-name="Trazado 80" d="M547.79,361.9c.59,0,1.14.78,1.23,1.75s-.31,1.75-.9,1.75-1.14-.78-1.23-1.75S547.2,361.9,547.79,361.9Z" fill="#adadad" fill-rule="evenodd"/>
  <path id="Trazado_81" data-name="Trazado 81" d="M498.83,281.3,469.2,320.48l2.32,14,38.53-52a12.15,12.15,0,0,0-11.22-1.18Z" fill="#bfcfc9" fill-rule="evenodd"/>
</svg>
